Gemunu-sinhala-1-opt.ufo
<glyph name="visarga" format="1">
  <advance width="276"/>
  <unicode hex="0D83"/>
  <outline>
    <contour>
      <point x="32" y="203.799" type="curve" smooth="yes"/>
      <point x="32" y="13" type="line" smooth="yes"/>
      <point x="32" y="2.79004"/>
      <point x="37.7686" y="0"/>
      <point x="46.8018" y="0" type="curve" smooth="yes"/>
      <point x="226" y="0" type="line" smooth="yes"/>
      <point x="234.363" y="0"/>
      <point x="240" y="3.09473"/>
      <point x="240" y="12" type="curve" smooth="yes"/>
      <point x="240" y="204" type="line" smooth="yes"/>
      <point x="240" y="215.251"/>
      <point x="234.11" y="218"/>
      <point x="224" y="218" type="curve" smooth="yes"/>
      <point x="48" y="218" type="line" smooth="yes"/>
      <point x="37.4102" y="218"/>
      <point x="32" y="212.348"/>
    </contour>
    <contour>
      <point x="112.002" y="142" type="curve" smooth="yes"/>
      <point x="156.999" y="142" type="line" smooth="yes"/>
      <point x="162.34" y="142"/>
      <point x="164" y="141.34"/>
      <point x="164" y="135.799" type="curve" smooth="yes"/>
      <point x="164" y="88.2012" type="line" smooth="yes"/>
      <point x="164" y="82.2217"/>
      <point x="163.199" y="81"/>
      <point x="157.199" y="81" type="curve" smooth="yes"/>
      <point x="112.001" y="81" type="line" smooth="yes"/>
      <point x="106.021" y="81"/>
      <point x="105" y="82.001"/>
      <point x="105" y="88.001" type="curve" smooth="yes"/>
      <point x="105" y="135.999" type="line" smooth="yes"/>
      <point x="105" y="140.982"/>
      <point x="107.002" y="142"/>
    </contour>
    <contour>
      <point x="32" y="483.799" type="curve" smooth="yes"/>
      <point x="32" y="293" type="line" smooth="yes"/>
      <point x="32" y="282.79"/>
      <point x="37.7686" y="280"/>
      <point x="46.8018" y="280" type="curve" smooth="yes"/>
      <point x="226" y="280" type="line" smooth="yes"/>
      <point x="234.363" y="280"/>
      <point x="240" y="283.095"/>
      <point x="240" y="292" type="curve" smooth="yes"/>
      <point x="240" y="484" type="line" smooth="yes"/>
      <point x="240" y="495.251"/>
      <point x="234.11" y="498"/>
      <point x="224" y="498" type="curve" smooth="yes"/>
      <point x="48" y="498" type="line" smooth="yes"/>
      <point x="37.4102" y="498"/>
      <point x="32" y="492.348"/>
    </contour>
    <contour>
      <point x="112.002" y="422" type="curve" smooth="yes"/>
      <point x="156.999" y="422" type="line" smooth="yes"/>
      <point x="162.34" y="422"/>
      <point x="164" y="421.34"/>
      <point x="164" y="415.799" type="curve" smooth="yes"/>
      <point x="164" y="368.201" type="line" smooth="yes"/>
      <point x="164" y="362.222"/>
      <point x="163.199" y="361"/>
      <point x="157.199" y="361" type="curve" smooth="yes"/>
      <point x="112.001" y="361" type="line" smooth="yes"/>
      <point x="106.021" y="361"/>
      <point x="105" y="362.001"/>
      <point x="105" y="368.001" type="curve" smooth="yes"/>
      <point x="105" y="415.999" type="line" smooth="yes"/>
      <point x="105" y="420.982"/>
      <point x="107.002" y="422"/>
    </contour>
  </outline>
</glyph>
<glyph name="si_vocalicLL" format="1">
  <advance width="1231"/>
  <unicode hex="0D90"/>
  <outline>
    <contour>
      <point x="881" y="496.8" type="line"/>
      <point x="881" y="268" type="line" smooth="yes"/>
      <point x="881" y="245.365"/>
      <point x="894" y="235"/>
      <point x="914" y="235" type="curve" smooth="yes"/>
      <point x="986.594" y="235" type="line" smooth="yes"/>
      <point x="1012.56" y="235"/>
      <point x="1028.59" y="242.905"/>
      <point x="1028.59" y="270" type="curve" smooth="yes"/>
      <point x="1028.59" y="378.2" type="line" smooth="yes"/>
      <point x="1028.59" y="388.865"/>
      <point x="1031.93" y="394.2"/>
      <point x="1038.59" y="394.2" type="curve" smooth="yes"/>
      <point x="1053.39" y="394.2" type="line" smooth="yes"/>
      <point x="1059.39" y="394.2"/>
      <point x="1062.39" y="389.533"/>
      <point x="1062.39" y="380.2" type="curve" smooth="yes"/>
      <point x="1062.39" y="123.8" type="line" smooth="yes"/>
      <point x="1062.39" y="112.467"/>
      <point x="1060.6" y="106.8"/>
      <point x="1050.6" y="106.8" type="curve" smooth="yes"/>
      <point x="1020" y="106.8" type="line" smooth="yes"/>
      <point x="1006.09" y="106.8"/>
      <point x="1005" y="109.507"/>
      <point x="1005" y="123.8" type="curve" smooth="yes"/>
      <point x="1005" y="172" type="line"/>
      <point x="881" y="172" type="line"/>
      <point x="881" y="47" type="line" smooth="yes"/>
      <point x="881" y="16.3369"/>
      <point x="897.089" y="0"/>
      <point x="921" y="0" type="curve" smooth="yes"/>
      <point x="1139" y="0" type="line" smooth="yes"/>
      <point x="1167.59" y="-0"/>
      <point x="1187" y="16.7559"/>
      <point x="1187" y="46" type="curve" smooth="yes"/>
      <point x="1187" y="456" type="line" smooth="yes"/>
      <point x="1187" y="478.214"/>
      <point x="1170.73" y="497"/>
      <point x="1145" y="497" type="curve" smooth="yes"/>
      <point x="1022.8" y="497" type="line" smooth="yes"/>
      <point x="999.819" y="497"/>
      <point x="986.2" y="485.421"/>
      <point x="986.2" y="457" type="curve" smooth="yes"/>
      <point x="986.2" y="360.995" type="line" smooth="yes"/>
      <point x="986.2" y="344.995"/>
      <point x="985.766" y="336.995"/>
      <point x="976.2" y="336.995" type="curve" smooth="yes"/>
      <point x="960.995" y="336.995" type="line" smooth="yes"/>
      <point x="953.472" y="336.995"/>
      <point x="952.193" y="341.662"/>
      <point x="952.193" y="358.995" type="curve" smooth="yes"/>
      <point x="952.193" y="496.8" type="line"/>
    </contour>
    <component base="si_vocalicL"/>
  </outline>
</glyph>
<glyph name="si_Ee" format="1">
  <advance width="534"/>
  <unicode hex="0D92"/>
  <outline>
    <contour>
      <point x="388" y="708" type="line"/>
      <point x="504" y="708" type="line"/>
      <point x="504" y="480" type="line"/>
      <point x="388.001" y="480" type="line"/>
    </contour>
    <component base="si_E"/>
  </outline>
</glyph>
<glyph name="si_Oo" format="1">
  <advance width="515"/>
  <unicode hex="0D95"/>
  <outline>
    <contour>
      <point x="485" y="400" type="line"/>
      <point x="361" y="400" type="line"/>
      <point x="361" y="441" type="line" smooth="yes"/>
      <point x="361" y="459.349"/>
      <point x="354.061" y="464"/>
      <point x="335" y="464" type="curve" smooth="yes"/>
      <point x="14" y="464" type="line"/>
      <point x="14" y="550" type="line"/>
      <point x="94" y="550" type="line"/>
      <point x="64.6667" y="557.333"/>
      <point x="50" y="571.667"/>
      <point x="50" y="593" type="curve" smooth="yes"/>
      <point x="50" y="632" type="line" smooth="yes"/>
      <point x="50" y="659.333"/>
      <point x="66.3333" y="673"/>
      <point x="99" y="673" type="curve" smooth="yes"/>
      <point x="483" y="673" type="line"/>
      <point x="483" y="589" type="line"/>
      <point x="206" y="589" type="line" smooth="yes"/>
      <point x="188" y="589"/>
      <point x="179" y="584.333"/>
      <point x="179" y="575" type="curve" smooth="yes"/>
      <point x="179" y="565.226"/>
      <point x="186.926" y="558"/>
      <point x="197" y="558" type="curve" smooth="yes"/>
      <point x="416" y="558" type="line" smooth="yes"/>
      <point x="471.441" y="558"/>
      <point x="485" y="533.686"/>
      <point x="485" y="477" type="curve" smooth="yes"/>
    </contour>
    <contour>
      <point x="360.997" y="416" type="line"/>
      <point x="360.997" y="416"/>
      <point x="485.001" y="416"/>
      <point x="485.001" y="416" type="curve"/>
      <point x="484.998" y="50.8008" type="line" smooth="yes"/>
      <point x="484.998" y="17.1599"/>
      <point x="471.396" y="-4.08988e-15"/>
      <point x="438" y="0" type="curve" smooth="yes"/>
      <point x="301.803" y="0" type="line" smooth="yes"/>
      <point x="275.803" y="0"/>
      <point x="259.469" y="12.333"/>
      <point x="252.803" y="37" type="curve"/>
      <point x="249.629" y="16.3779"/>
      <point x="229.072" y="0"/>
      <point x="205.803" y="0" type="curve" smooth="yes"/>
      <point x="69" y="0" type="line" smooth="yes"/>
      <point x="37.6096" y="0"/>
      <point x="22" y="15.0176"/>
      <point x="22" y="48" type="curve" smooth="yes"/>
      <point x="22" y="361" type="line" smooth="yes"/>
      <point x="22" y="399.555"/>
      <point x="40.0205" y="426"/>
      <point x="81" y="426" type="curve" smooth="yes"/>
      <point x="195" y="426" type="line" smooth="yes"/>
      <point x="220.992" y="426"/>
      <point x="236.001" y="416.979"/>
      <point x="236.001" y="391" type="curve" smooth="yes"/>
      <point x="236.001" y="326" type="line" smooth="yes"/>
      <point x="236.001" y="318"/>
      <point x="237.224" y="314"/>
      <point x="245.202" y="314" type="curve" smooth="yes"/>
      <point x="253.8" y="314" type="line" smooth="yes"/>
      <point x="260.984" y="314"/>
      <point x="263.001" y="317.667"/>
      <point x="263.001" y="325" type="curve" smooth="yes"/>
      <point x="263.001" y="426" type="line"/>
      <point x="331.997" y="426" type="line"/>
      <point x="331.997" y="262" type="line" smooth="yes"/>
      <point x="331.997" y="238.667"/>
      <point x="318.997" y="227"/>
      <point x="292.997" y="227" type="curve" smooth="yes"/>
      <point x="209.404" y="227" type="line" smooth="yes"/>
      <point x="187.843" y="227"/>
      <point x="174.405" y="235.307"/>
      <point x="174.405" y="257" type="curve" smooth="yes"/>
      <point x="174.405" y="314" type="line" smooth="yes"/>
      <point x="174.405" y="319.033"/>
      <point x="171.706" y="323.001"/>
      <point x="165.404" y="323.001" type="curve" smooth="yes"/>
      <point x="156" y="323.001" type="line" smooth="yes"/>
      <point x="149.043" y="323.001"/>
      <point x="146.004" y="319.293"/>
      <point x="146.004" y="313.2" type="curve" smooth="yes"/>
      <point x="146.004" y="126" type="line" smooth="yes"/>
      <point x="146.004" y="113.333"/>
      <point x="152.337" y="107"/>
      <point x="165.004" y="107" type="curve" smooth="yes"/>
      <point x="181.803" y="107" type="line" smooth="yes"/>
      <point x="196.469" y="107"/>
      <point x="203.803" y="115.333"/>
      <point x="203.803" y="132" type="curve" smooth="yes"/>
      <point x="203.803" y="181.403" type="line"/>
      <point x="303.398" y="181.403" type="line"/>
      <point x="303.398" y="134" type="line" smooth="yes"/>
      <point x="303.398" y="116"/>
      <point x="311.064" y="107"/>
      <point x="326.398" y="107" type="curve" smooth="yes"/>
      <point x="343.997" y="107" type="line" smooth="yes"/>
      <point x="355.33" y="107"/>
      <point x="360.997" y="114"/>
      <point x="360.997" y="128" type="curve" smooth="yes"/>
    </contour>
  </outline>
</glyph>
<glyph name="si_Kha" format="1">
  <advance width="516"/>
  <unicode hex="0D9B"/>
  <outline>
    <contour>
      <point x="22" y="406.027" type="line" smooth="yes"/>
      <point x="22" y="441.993"/>
      <point x="40.6514" y="470.002"/>
      <point x="81" y="470.002" type="curve" smooth="yes"/>
      <point x="256" y="470.002" type="line" smooth="yes"/>
      <point x="288.526" y="470.002"/>
      <point x="312" y="452.695"/>
      <point x="312" y="415.027" type="curve" smooth="yes"/>
      <point x="312" y="266" type="line"/>
      <point x="304.802" y="191" type="line"/>
      <point x="338" y="139" type="line" smooth="yes"/>
      <point x="341.62" y="133.622"/>
      <point x="348.192" y="122.203"/>
      <point x="356.001" y="122.203" type="curve" smooth="yes"/>
      <point x="361.328" y="122.203"/>
      <point x="361.989" y="130.114"/>
      <point x="361.998" y="139.398" type="curve"/>
      <point x="360.994" y="184" type="line"/>
      <point x="360.994" y="479.394" type="line" smooth="yes"/>
      <point x="360.994" y="500.061"/>
      <point x="346.661" y="509.993"/>
      <point x="317.994" y="509.993" type="curve" smooth="yes"/>
      <point x="21.998" y="509.993" type="line"/>
      <point x="21.998" y="626" type="line"/>
      <point x="414.995" y="626" type="line" smooth="yes"/>
      <point x="454.281" y="626"/>
      <point x="484.995" y="606.242"/>
      <point x="484.995" y="566" type="curve" smooth="yes"/>
      <point x="484.995" y="51" type="line" smooth="yes"/>
      <point x="484.995" y="26.0734"/>
      <point x="473.261" y="-4.1958e-15"/>
      <point x="439" y="0" type="curve" smooth="yes"/>
      <point x="369" y="0" type="line" smooth="yes"/>
      <point x="341.643" y="0"/>
      <point x="319.213" y="17.0242"/>
      <point x="306.188" y="41" type="curve" smooth="yes"/>
      <point x="285" y="80" type="line"/>
      <point x="270" y="-5" type="line"/>
      <point x="178.4" y="-5" type="line"/>
      <point x="199" y="291" type="line"/>
      <point x="199.001" y="338.8" type="line" smooth="yes"/>
      <point x="199.001" y="354.23"/>
      <point x="195" y="359.002"/>
      <point x="181" y="359.002" type="curve" smooth="yes"/>
      <point x="166.01" y="359.002" type="line" smooth="yes"/>
      <point x="148.01" y="359.002"/>
      <point x="146.01" y="351.669"/>
      <point x="146.01" y="337.002" type="curve" smooth="yes"/>
      <point x="146" y="122.8" type="line" smooth="yes"/>
      <point x="146" y="115"/>
      <point x="147.666" y="107"/>
      <point x="157" y="107" type="curve" smooth="yes"/>
      <point x="164.804" y="107" type="line"/>
      <point x="157.997" y="0" type="line"/>
      <point x="65" y="0" type="line" smooth="yes"/>
      <point x="38.3047" y="0"/>
      <point x="22" y="16.7649"/>
      <point x="22" y="48" type="curve" smooth="yes"/>
    </contour>
  </outline>
</glyph>
<glyph name="si_Ga" format="1">
  <advance width="592"/>
  <unicode hex="0D9C"/>
  <outline>
    <contour>
      <point x="196.781" y="496.999" type="line"/>
      <point x="196.781" y="394" type="line"/>
      <point x="169" y="393.998" type="line" smooth="yes"/>
      <point x="148.817" y="393.997"/>
      <point x="146" y="389.129"/>
      <point x="146" y="368.998" type="curve" smooth="yes"/>
      <point x="146" y="128" type="line" smooth="yes"/>
      <point x="146" y="114"/>
      <point x="151.667" y="107"/>
      <point x="163" y="107" type="curve" smooth="yes"/>
      <point x="214.186" y="107" type="line" smooth="yes"/>
      <point x="233.895" y="107"/>
      <point x="234.186" y="111.54"/>
      <point x="234.186" y="132" type="curve" smooth="yes"/>
      <point x="234.186" y="196" type="line" smooth="yes"/>
      <point x="234.186" y="209.333"/>
      <point x="229.186" y="216"/>
      <point x="219.186" y="216" type="curve" smooth="yes"/>
      <point x="205.186" y="216" type="line"/>
      <point x="243.186" y="446" type="line" smooth="yes"/>
      <point x="249.186" y="480"/>
      <point x="273.186" y="497"/>
      <point x="315.186" y="497" type="curve" smooth="yes"/>
      <point x="495" y="497" type="line" smooth="yes"/>
      <point x="541.224" y="497"/>
      <point x="562" y="479.952"/>
      <point x="562" y="434" type="curve" smooth="yes"/>
      <point x="562" y="64" type="line" smooth="yes"/>
      <point x="562" y="15.29"/>
      <point x="548.134" y="0"/>
      <point x="499" y="0" type="curve" smooth="yes"/>
      <point x="402" y="0" type="line"/>
      <point x="402" y="107" type="line"/>
      <point x="416" y="107" type="line" smooth="yes"/>
      <point x="436.64" y="107"/>
      <point x="438" y="112.033"/>
      <point x="438" y="133" type="curve" smooth="yes"/>
      <point x="438" y="372" type="line" smooth="yes"/>
      <point x="438" y="384"/>
      <point x="432" y="390"/>
      <point x="420" y="390" type="curve" smooth="yes"/>
      <point x="369.186" y="390" type="line" smooth="yes"/>
      <point x="355.853" y="390"/>
      <point x="347.853" y="384.333"/>
      <point x="345.186" y="373" type="curve" smooth="yes"/>
      <point x="330.186" y="288" type="line"/>
      <point x="332.936" y="287.928" type="line" smooth="yes"/>
      <point x="347.769" y="287.538"/>
      <point x="355.186" y="276.896"/>
      <point x="355.186" y="256" type="curve" smooth="yes"/>
      <point x="355.186" y="60" type="line" smooth="yes"/>
      <point x="355.186" y="12.6074"/>
      <point x="335.785" y="-5.82927e-15"/>
      <point x="288.186" y="0" type="curve" smooth="yes"/>
      <point x="74" y="0" type="line" smooth="yes"/>
      <point x="37.3613" y="0"/>
      <point x="22" y="24.0518"/>
      <point x="22" y="61" type="curve" smooth="yes"/>
      <point x="22" y="436" type="line" smooth="yes"/>
      <point x="22" y="473.333"/>
      <point x="44.333" y="497"/>
      <point x="81" y="497" type="curve" smooth="yes"/>
    </contour>
  </outline>
</glyph>
<glyph name="si_Jha" format="1">
  <advance width="917"/>
  <unicode hex="0DA3"/>
  <outline>
    <contour>
      <point x="11.9971" y="203.002" type="line"/>
      <point x="11.9971" y="276.397" type="line"/>
      <point x="11.9971" y="276.397"/>
      <point x="87.4082" y="342.001"/>
      <point x="130.608" y="380.401" type="curve"/>
      <point x="130.608" y="381.999" type="line" smooth="yes"/>
      <point x="130.608" y="391.229"/>
      <point x="119.919" y="393.972"/>
      <point x="107.012" y="394.002" type="curve" smooth="yes"/>
      <point x="22" y="394.201" type="line"/>
      <point x="22" y="497.201" type="line"/>
      <point x="185.409" y="497.001" type="line" smooth="yes"/>
      <point x="217.092" y="496.963"/>
      <point x="221.005" y="469.791"/>
      <point x="221.005" y="461.599" type="curve" smooth="yes"/>
      <point x="221.005" y="459.398" type="line"/>
      <point x="243.6" y="475.202" type="line" smooth="yes"/>
      <point x="267.183" y="490.383"/>
      <point x="280.128" y="491.401"/>
      <point x="301" y="491.401" type="curve" smooth="yes"/>
      <point x="308.069" y="491.401"/>
      <point x="329.488" y="489.309"/>
      <point x="346" y="487.201" type="curve" smooth="yes"/>
      <point x="660.794" y="447.013" type="line"/>
      <point x="440" y="377.201" type="line" smooth="yes"/>
      <point x="329.603" y="390.599" type="line" smooth="yes"/>
      <point x="326.478" y="391.041"/>
      <point x="319.48" y="391.8"/>
      <point x="316.603" y="391.8" type="curve" smooth="yes"/>
      <point x="300.822" y="391.799"/>
      <point x="292.494" y="390.784"/>
      <point x="276.198" y="376.592" type="curve" smooth="yes"/>
      <point x="251.407" y="355.001" type="line"/>
      <point x="331.4" y="355.001" type="line" smooth="yes"/>
      <point x="363.213" y="355.001"/>
      <point x="384.4" y="337.696"/>
      <point x="384.4" y="298.001" type="curve" smooth="yes"/>
      <point x="384.4" y="51.001" type="line" smooth="yes"/>
      <point x="384.4" y="14.9551"/>
      <point x="361.045" y="0.000976562"/>
      <point x="331.4" y="0.000976562" type="curve" smooth="yes"/>
      <point x="241.397" y="0.000976562" type="line" smooth="yes"/>
      <point x="222.438" y="0.000976562"/>
      <point x="209.064" y="9.66797"/>
      <point x="204.397" y="29.002" type="curve"/>
      <point x="199.73" y="9.66797"/>
      <point x="183.09" y="0.000976562"/>
      <point x="165.397" y="0.000976562" type="curve" smooth="yes"/>
      <point x="65.9961" y="0.000976562" type="line" smooth="yes"/>
      <point x="34.1328" y="0.000976562"/>
      <point x="22" y="19.8174"/>
      <point x="22" y="50.002" type="curve" smooth="yes"/>
      <point x="22" y="140.201" type="line" smooth="yes"/>
      <point x="22" y="180.996"/>
      <point x="34.2734" y="195.266"/>
      <point x="48" y="203.002" type="curve"/>
    </contour>
    <contour>
      <point x="275.4" y="243" type="line" smooth="yes"/>
      <point x="275.4" y="255.665"/>
      <point x="270.4" y="262"/>
      <point x="260.4" y="262" type="curve" smooth="yes"/>
      <point x="145" y="262" type="line"/>
      <point x="115.399" y="236" type="line"/>
      <point x="143.793" y="236" type="line"/>
      <point x="143.996" y="222" type="line"/>
      <point x="138.511" y="218.224"/>
      <point x="131.996" y="204.954"/>
      <point x="131.996" y="180.803" type="curve" smooth="yes"/>
      <point x="131.996" y="127" type="line" smooth="yes"/>
      <point x="131.996" y="109.666"/>
      <point x="134.656" y="107"/>
      <point x="145.996" y="107" type="curve" smooth="yes"/>
      <point x="154.397" y="107" type="line" smooth="yes"/>
      <point x="167.482" y="107"/>
      <point x="169.397" y="112.667"/>
      <point x="169.397" y="124.001" type="curve" smooth="yes"/>
      <point x="169.397" y="188" type="line"/>
      <point x="237.397" y="188" type="line"/>
      <point x="237.397" y="126" type="line" smooth="yes"/>
      <point x="237.397" y="111.333"/>
      <point x="240.106" y="107"/>
      <point x="251.397" y="107" type="curve" smooth="yes"/>
      <point x="262.4" y="107" type="line" smooth="yes"/>
      <point x="272.605" y="107"/>
      <point x="275.4" y="111.803"/>
      <point x="275.4" y="129.802" type="curve" smooth="yes"/>
    </contour>
    <contour>
      <point x="661.217" y="338.211" type="line"/>
      <point x="558.019" y="338.211" type="line" smooth="yes"/>
      <point x="551.083" y="338.211"/>
      <point x="548.022" y="334.503"/>
      <point x="548.022" y="328.41" type="curve" smooth="yes"/>
      <point x="548.022" y="126" type="line" smooth="yes"/>
      <point x="548.022" y="113.333"/>
      <point x="554.355" y="107"/>
      <point x="567.022" y="107" type="curve" smooth="yes"/>
      <point x="583.821" y="107" type="line" smooth="yes"/>
      <point x="598.487" y="107"/>
      <point x="605.821" y="115.333"/>
      <point x="605.821" y="132" type="curve" smooth="yes"/>
      <point x="605.821" y="244.796" type="line"/>
      <point x="705.417" y="244.796" type="line"/>
      <point x="705.417" y="134" type="line" smooth="yes"/>
      <point x="705.417" y="116"/>
      <point x="713.083" y="107"/>
      <point x="728.417" y="107" type="curve" smooth="yes"/>
      <point x="746.016" y="107" type="line" smooth="yes"/>
      <point x="757.349" y="107"/>
      <point x="763.016" y="114"/>
      <point x="763.016" y="128" type="curve" smooth="yes"/>
      <point x="763.016" y="479" type="line" smooth="yes"/>
      <point x="763.016" y="503.852"/>
      <point x="755.902" y="510"/>
      <point x="732.019" y="510" type="curve" smooth="yes"/>
      <point x="424.02" y="510" type="line"/>
      <point x="424.02" y="626" type="line"/>
      <point x="814.019" y="626" type="line" smooth="yes"/>
      <point x="856.327" y="626"/>
      <point x="887.017" y="609.264"/>
      <point x="887.017" y="560" type="curve" smooth="yes"/>
      <point x="887.017" y="50" type="line" smooth="yes"/>
      <point x="887.017" y="19.6377"/>
      <point x="873.415" y="0"/>
      <point x="840.019" y="0" type="curve" smooth="yes"/>
      <point x="703.821" y="0" type="line" smooth="yes"/>
      <point x="677.821" y="0"/>
      <point x="661.487" y="12.333"/>
      <point x="654.821" y="37" type="curve"/>
      <point x="651.647" y="16.3779"/>
      <point x="631.091" y="0"/>
      <point x="607.821" y="0" type="curve" smooth="yes"/>
      <point x="471.019" y="0" type="line" smooth="yes"/>
      <point x="439.628" y="0"/>
      <point x="424.019" y="15.0176"/>
      <point x="424.019" y="48" type="curve" smooth="yes"/>
      <point x="424.019" y="371" type="line" smooth="yes"/>
      <point x="424.019" y="413.076"/>
      <point x="442.04" y="444.827"/>
      <point x="483.019" y="445.011" type="curve" smooth="yes"/>
      <point x="661.216" y="445.812" type="line"/>
    </contour>
  </outline>
</glyph>
<glyph name="si_Nna" format="1">
  <advance width="845"/>
  <unicode hex="0DAB"/>
  <outline>
    <contour>
      <point x="390.199" y="496.915" type="line" smooth="yes"/>
      <point x="412.517" y="496.908"/>
      <point x="423.914" y="482.651"/>
      <point x="432.244" y="467.001" type="curve"/>
      <point x="442.796" y="488.558"/>
      <point x="457.725" y="497"/>
      <point x="486" y="497" type="curve" smooth="yes"/>
      <point x="517" y="497" type="line" smooth="yes"/>
      <point x="550.162" y="497"/>
      <point x="559.441" y="482.247"/>
      <point x="565.549" y="464.001" type="curve"/>
      <point x="572.969" y="482.983"/>
      <point x="586.031" y="497"/>
      <point x="623" y="497" type="curve" smooth="yes"/>
      <point x="753" y="497" type="line" smooth="yes"/>
      <point x="795.148" y="497"/>
      <point x="814" y="478.25"/>
      <point x="814" y="439" type="curve" smooth="yes"/>
      <point x="814" y="64.8008" type="line" smooth="yes"/>
      <point x="814" y="25.5696"/>
      <point x="797.68" y="0"/>
      <point x="741" y="0" type="curve" smooth="yes"/>
      <point x="483.946" y="0.000976562" type="line"/>
      <point x="483.946" y="107.001" type="line"/>
      <point x="665.473" y="107.001" type="line" smooth="yes"/>
      <point x="687.48" y="107.001"/>
      <point x="690.131" y="117.346"/>
      <point x="690.131" y="135.001" type="curve" smooth="yes"/>
      <point x="690.131" y="371" type="line" smooth="yes"/>
      <point x="690.131" y="391.099"/>
      <point x="685.106" y="394"/>
      <point x="669.183" y="394" type="curve" smooth="yes"/>
      <point x="637.211" y="394" type="line" smooth="yes"/>
      <point x="623.245" y="394"/>
      <point x="616.264" y="386.666"/>
      <point x="616.264" y="372" type="curve" smooth="yes"/>
      <point x="616.264" y="181.001" type="line"/>
      <point x="507.116" y="181.001" type="line"/>
      <point x="507.116" y="369" type="line" smooth="yes"/>
      <point x="507.116" y="385.666"/>
      <point x="499.398" y="394"/>
      <point x="483.964" y="394" type="curve" smooth="yes"/>
      <point x="466.422" y="394" type="line" smooth="yes"/>
      <point x="450.987" y="394"/>
      <point x="443.27" y="387"/>
      <point x="443.27" y="373" type="curve" smooth="yes"/>
      <point x="443.27" y="75" type="line" smooth="yes"/>
      <point x="443.27" y="28.7609"/>
      <point x="424.11" y="-6.52866e-15"/>
      <point x="370.8" y="0" type="curve" smooth="yes"/>
      <point x="129" y="0" type="line" smooth="yes"/>
      <point x="90.4219" y="0"/>
      <point x="74.9365" y="2.03555"/>
      <point x="74.9365" y="38.001" type="curve" smooth="yes"/>
      <point x="74.9365" y="46.667"/>
      <point x="69.0566" y="51.001"/>
      <point x="57.2949" y="51.001" type="curve"/>
      <point x="22.0156" y="13.1943" type="line"/>
      <point x="22.0156" y="133.001" type="line"/>
      <point x="362.688" y="616.001" type="line"/>
      <point x="483.964" y="616.001" type="line"/>
      <point x="156.521" y="135.403" type="line"/>
      <point x="161.683" y="135.35"/>
      <point x="162.97" y="128.828"/>
      <point x="163" y="126" type="curve" smooth="yes"/>
      <point x="163.08" y="118.554"/>
      <point x="162.466" y="107"/>
      <point x="183" y="107" type="curve" smooth="yes"/>
      <point x="298.743" y="107.001" type="line" smooth="yes"/>
      <point x="311.974" y="107.001"/>
      <point x="318.589" y="115.667"/>
      <point x="318.589" y="133.001" type="curve" smooth="yes"/>
      <point x="318.589" y="372.204" type="line" smooth="yes"/>
      <point x="318.589" y="388.995"/>
      <point x="308" y="398.204"/>
      <point x="294" y="398.204" type="curve" smooth="yes"/>
      <point x="181.878" y="398.204" type="line" smooth="yes"/>
      <point x="163.506" y="398.204"/>
      <point x="154.332" y="391.338"/>
      <point x="154.315" y="376.005" type="curve" smooth="yes"/>
      <point x="154.4" y="260.393" type="line" smooth="yes"/>
      <point x="154.416" y="241.711"/>
      <point x="160.329" y="235.792"/>
      <point x="178.999" y="235.792" type="curve" smooth="yes"/>
      <point x="278.898" y="235.792" type="line"/>
      <point x="278.898" y="152.001" type="line"/>
      <point x="99" y="152.001" type="line" smooth="yes"/>
      <point x="66.8467" y="152.001"/>
      <point x="40.7578" y="179.88"/>
      <point x="40.7578" y="227" type="curve" smooth="yes"/>
      <point x="40.7578" y="443" type="line" smooth="yes"/>
      <point x="40.7578" y="483.908"/>
      <point x="70" y="497"/>
      <point x="101.2" y="497" type="curve" smooth="yes"/>
    </contour>
  </outline>
</glyph>
<glyph name="si_Ta" format="1">
  <advance width="592"/>
  <unicode hex="0DAD"/>
  <outline>
    <contour>
      <point x="263.6" y="242.8" type="line" smooth="yes"/>
      <point x="263.6" y="255.465"/>
      <point x="258.6" y="261.8"/>
      <point x="248.6" y="261.8" type="curve" smooth="yes"/>
      <point x="145" y="261.8" type="line"/>
      <point x="115.399" y="235.8" type="line"/>
      <point x="156.196" y="235.8" type="line"/>
      <point x="156.399" y="221.8" type="line"/>
      <point x="150.914" y="218.023"/>
      <point x="144.399" y="204.754"/>
      <point x="144.399" y="180.603" type="curve" smooth="yes"/>
      <point x="144.399" y="126.8" type="line" smooth="yes"/>
      <point x="144.399" y="109.466"/>
      <point x="147.06" y="106.8"/>
      <point x="158.399" y="106.8" type="curve" smooth="yes"/>
      <point x="250.6" y="106.8" type="line" smooth="yes"/>
      <point x="260.805" y="106.8"/>
      <point x="263.6" y="111.603"/>
      <point x="263.6" y="129.602" type="curve" smooth="yes"/>
    </contour>
    <contour>
      <point x="221.005" y="459.197" type="line"/>
      <point x="240.008" y="475.8" type="line" smooth="yes"/>
      <point x="262.183" y="494.689"/>
      <point x="279.213" y="496.8"/>
      <point x="303.408" y="496.8" type="curve" smooth="yes"/>
      <point x="503" y="497" type="line" smooth="yes"/>
      <point x="539.827" y="497"/>
      <point x="561.608" y="475.843"/>
      <point x="561.608" y="444" type="curve" smooth="yes"/>
      <point x="561.608" y="49" type="line" smooth="yes"/>
      <point x="561.608" y="13.2042"/>
      <point x="537.075" y="-3.60972e-15"/>
      <point x="507.6" y="0" type="curve" smooth="yes"/>
      <point x="401.6" y="0" type="line"/>
      <point x="401.6" y="107" type="line"/>
      <point x="423" y="107.001" type="line" smooth="yes"/>
      <point x="432.333" y="107.001"/>
      <point x="437" y="112.667"/>
      <point x="437" y="124.001" type="curve" smooth="yes"/>
      <point x="437" y="376.001" type="line" smooth="yes"/>
      <point x="437" y="388.001"/>
      <point x="429.933" y="394.001"/>
      <point x="416.6" y="394.001" type="curve" smooth="yes"/>
      <point x="313.408" y="393.8" type="line" smooth="yes"/>
      <point x="298.741" y="393.8"/>
      <point x="293.372" y="391.342"/>
      <point x="281.208" y="380.8" type="curve" smooth="yes"/>
      <point x="251.407" y="354.8" type="line"/>
      <point x="331.4" y="354.8" type="line" smooth="yes"/>
      <point x="363.213" y="354.8"/>
      <point x="384.4" y="337.495"/>
      <point x="384.4" y="297.8" type="curve" smooth="yes"/>
      <point x="384.4" y="50.7998" type="line" smooth="yes"/>
      <point x="384.4" y="14.7539"/>
      <point x="361.045" y="-0.200195"/>
      <point x="331.4" y="-0.200195" type="curve" smooth="yes"/>
      <point x="65.9961" y="-0.200195" type="line" smooth="yes"/>
      <point x="34.1328" y="-0.200195"/>
      <point x="22" y="19.6164"/>
      <point x="22" y="49.8008" type="curve" smooth="yes"/>
      <point x="22" y="140" type="line" smooth="yes"/>
      <point x="22" y="180.795"/>
      <point x="34.2732" y="195.065"/>
      <point x="48" y="202.801" type="curve"/>
      <point x="11.9971" y="202.801" type="line"/>
      <point x="11.9971" y="276.196" type="line"/>
      <point x="11.9971" y="276.196"/>
      <point x="87.4082" y="341.8"/>
      <point x="130.608" y="380.2" type="curve"/>
      <point x="130.608" y="381.798" type="line" smooth="yes"/>
      <point x="130.608" y="391.027"/>
      <point x="119.919" y="393.771"/>
      <point x="107.012" y="393.801" type="curve" smooth="yes"/>
      <point x="22" y="394" type="line"/>
      <point x="22" y="497" type="line"/>
      <point x="185.409" y="496.8" type="line" smooth="yes"/>
      <point x="217.092" y="496.762"/>
      <point x="221.005" y="469.59"/>
      <point x="221.005" y="461.397" type="curve" smooth="yes"/>
    </contour>
  </outline>
</glyph>
<glyph name="si_Tha" format="1">
  <advance width="515"/>
  <unicode hex="0DAE"/>
  <outline>
    <contour>
      <point x="293.203" y="538" type="line"/>
      <point x="293.203" y="514.6" type="line" smooth="yes"/>
      <point x="293.203" y="496.191"/>
      <point x="300.605" y="496.015"/>
      <point x="314.986" y="496.015" type="curve" smooth="yes"/>
      <point x="358.199" y="496.015" type="line"/>
      <point x="358.2" y="522.001" type="line" smooth="yes"/>
      <point x="358.2" y="529.711"/>
      <point x="356.312" y="538"/>
      <point x="346" y="538" type="curve" smooth="yes"/>
    </contour>
    <contour>
      <point x="485.001" y="394" type="line"/>
      <point x="360.199" y="394" type="line"/>
      <point x="360.199" y="427.015" type="line"/>
      <point x="228.986" y="427.015" type="line" smooth="yes"/>
      <point x="195.694" y="427.015"/>
      <point x="183.203" y="437.986"/>
      <point x="183.203" y="474.4" type="curve" smooth="yes"/>
      <point x="183.203" y="539" type="line"/>
      <point x="137.809" y="539" type="line"/>
      <point x="137.809" y="626" type="line"/>
      <point x="419" y="626" type="line" smooth="yes"/>
      <point x="466.56" y="626"/>
      <point x="485.001" y="610.567"/>
      <point x="485.001" y="559" type="curve" smooth="yes"/>
    </contour>
    <contour>
      <point x="254" y="287.399" type="line"/>
      <point x="167" y="287.399" type="line" smooth="yes"/>
      <point x="153" y="287.399"/>
      <point x="146" y="281.066"/>
      <point x="146" y="268.399" type="curve" smooth="yes"/>
      <point x="146" y="129" type="line" smooth="yes"/>
      <point x="146" y="114.333"/>
      <point x="152" y="107"/>
      <point x="164" y="107" type="curve" smooth="yes"/>
      <point x="342.199" y="107" type="line" smooth="yes"/>
      <point x="354.199" y="107"/>
      <point x="360.199" y="114.333"/>
      <point x="360.199" y="129" type="curve" smooth="yes"/>
      <point x="360.199" y="415" type="line"/>
      <point x="485" y="415" type="line"/>
      <point x="485" y="54" type="line" smooth="yes"/>
      <point x="485" y="16.2703"/>
      <point x="472.075" y="0"/>
      <point x="435" y="0" type="curve" smooth="yes"/>
      <point x="72" y="0" type="line" smooth="yes"/>
      <point x="34.9277" y="0"/>
      <point x="22" y="16.273"/>
      <point x="22" y="54" type="curve" smooth="yes"/>
      <point x="22" y="339.001" type="line" smooth="yes"/>
      <point x="22" y="375.668"/>
      <point x="40.667" y="394.001"/>
      <point x="78" y="394.001" type="curve" smooth="yes"/>
      <point x="253.998" y="394.001" type="line"/>
    </contour>
  </outline>
</glyph>
<glyph name="si_Da" format="1">
  <advance width="460"/>
  <unicode hex="0DAF"/>
  <outline>
    <contour>
      <point x="429" y="0.000976562" type="line"/>
      <point x="269" y="0" type="line" smooth="yes"/>
      <point x="247.859" y="-0.000129033"/>
      <point x="238" y="-10.0111"/>
      <point x="238" y="-30" type="curve" smooth="yes"/>
      <point x="238" y="-46" type="line" smooth="yes"/>
      <point x="238" y="-59.1377"/>
      <point x="246.031" y="-64"/>
      <point x="259" y="-64" type="curve" smooth="yes"/>
      <point x="452" y="-64" type="line"/>
      <point x="452" y="-171" type="line"/>
      <point x="161" y="-171" type="line" smooth="yes"/>
      <point x="132.813" y="-171"/>
      <point x="109" y="-159.622"/>
      <point x="109" y="-126" type="curve" smooth="yes"/>
      <point x="109" y="-56" type="line" smooth="yes"/>
      <point x="109" y="-22.2028"/>
      <point x="114.8" y="-9.3776"/>
      <point x="138" y="0" type="curve"/>
      <point x="66" y="0" type="line" smooth="yes"/>
      <point x="32.3066" y="0"/>
      <point x="22" y="17.9256"/>
      <point x="22" y="49.5996" type="curve" smooth="yes"/>
      <point x="22" y="298" type="line" smooth="yes"/>
      <point x="22" y="338.657"/>
      <point x="43.1063" y="355"/>
      <point x="80" y="355" type="curve" smooth="yes"/>
      <point x="301" y="355" type="line"/>
      <point x="300.999" y="378" type="line" smooth="yes"/>
      <point x="300.998" y="391.308"/>
      <point x="296.338" y="394.001"/>
      <point x="287.005" y="394.001" type="curve" smooth="yes"/>
      <point x="22" y="394.001" type="line"/>
      <point x="22" y="497.001" type="line"/>
      <point x="372" y="497" type="line" smooth="yes"/>
      <point x="405.565" y="497"/>
      <point x="425" y="480.913"/>
      <point x="425" y="444" type="curve" smooth="yes"/>
      <point x="425" y="253.001" type="line"/>
      <point x="168" y="253" type="line" smooth="yes"/>
      <point x="151.333" y="253"/>
      <point x="146" y="245.668"/>
      <point x="146" y="231.001" type="curve" smooth="yes"/>
      <point x="146" y="133.001" type="line" smooth="yes"/>
      <point x="146" y="113.159"/>
      <point x="151.048" y="107"/>
      <point x="166.2" y="107" type="curve" smooth="yes"/>
      <point x="429" y="107.001" type="line"/>
    </contour>
  </outline>
</glyph>
<glyph name="si_Ba" format="1">
  <advance width="515"/>
  <unicode hex="0DB6"/>
  <outline>
    <contour>
      <point x="416" y="625" type="line" smooth="yes"/>
      <point x="471" y="625"/>
      <point x="485" y="600.687"/>
      <point x="485" y="544" type="curve" smooth="yes"/>
      <point x="485" y="400" type="line"/>
      <point x="361" y="400" type="line"/>
      <point x="361" y="494.602" type="line" smooth="yes"/>
      <point x="361" y="512.95"/>
      <point x="354.062" y="517.602"/>
      <point x="335" y="517.602" type="curve" smooth="yes"/>
      <point x="22" y="517.602" type="line"/>
      <point x="22" y="625" type="line"/>
    </contour>
    <contour>
      <point x="198" y="54" type="curve" smooth="yes"/>
      <point x="197" y="345.414" type="line" smooth="yes"/>
      <point x="196.952" y="356.885"/>
      <point x="194.912" y="363.414"/>
      <point x="183.399" y="363.414" type="curve" smooth="yes"/>
      <point x="161.999" y="363.414" type="line" smooth="yes"/>
      <point x="147.999" y="363.414"/>
      <point x="146" y="357.081"/>
      <point x="146" y="344.414" type="curve" smooth="yes"/>
      <point x="146" y="129" type="line" smooth="yes"/>
      <point x="146" y="114.333"/>
      <point x="152" y="107"/>
      <point x="164" y="107" type="curve" smooth="yes"/>
      <point x="172" y="107" type="line"/>
      <point x="172" y="0" type="line"/>
      <point x="72" y="0" type="line" smooth="yes"/>
      <point x="34.9277" y="0"/>
      <point x="22" y="16.273"/>
      <point x="22" y="54" type="curve" smooth="yes"/>
      <point x="22" y="415.016" type="line" smooth="yes"/>
      <point x="22" y="451.683"/>
      <point x="40.667" y="470.016"/>
      <point x="78" y="470.016" type="curve" smooth="yes"/>
      <point x="256" y="470.016" type="line" smooth="yes"/>
      <point x="288.128" y="470.016"/>
      <point x="311" y="455.803"/>
      <point x="311" y="416.414" type="curve" smooth="yes"/>
      <point x="311" y="126.195" type="line" smooth="yes"/>
      <point x="311" y="110.599"/>
      <point x="313.397" y="107"/>
      <point x="327.397" y="107" type="curve" smooth="yes"/>
      <point x="345.402" y="107" type="line" smooth="yes"/>
      <point x="357.402" y="107"/>
      <point x="361" y="110.33"/>
      <point x="361" y="124.996" type="curve" smooth="yes"/>
      <point x="361" y="415" type="line"/>
      <point x="485" y="415" type="line"/>
      <point x="485" y="54" type="line" smooth="yes"/>
      <point x="485" y="16.2703"/>
      <point x="472.075" y="0"/>
      <point x="435" y="0" type="curve" smooth="yes"/>
      <point x="250" y="0" type="line" smooth="yes"/>
      <point x="213.253" y="0"/>
      <point x="198.135" y="16.7309"/>
    </contour>
  </outline>
</glyph>
<glyph name="si_Bha" format="1">
  <advance width="592"/>
  <unicode hex="0DB7"/>
  <outline>
    <contour>
      <point x="22" y="51" type="curve" smooth="yes"/>
      <point x="22" y="216.999" type="line" smooth="yes"/>
      <point x="22" y="238"/>
      <point x="29.667" y="250.864"/>
      <point x="45" y="258.197" type="curve"/>
      <point x="61.2197" y="280.5"/>
      <point x="41" y="354.998"/>
      <point x="78" y="354.999" type="curve" smooth="yes"/>
      <point x="106" y="355" type="line"/>
      <point x="106" y="377" type="line" smooth="yes"/>
      <point x="106" y="392"/>
      <point x="100.533" y="394"/>
      <point x="85" y="394" type="curve" smooth="yes"/>
      <point x="22" y="394" type="line"/>
      <point x="22" y="497" type="line"/>
      <point x="125" y="497" type="line" smooth="yes"/>
      <point x="168.332" y="497"/>
      <point x="197.001" y="474.112"/>
      <point x="197.001" y="431" type="curve" smooth="yes"/>
      <point x="197" y="253" type="line"/>
      <point x="169" y="253" type="line" smooth="yes"/>
      <point x="148.818" y="253"/>
      <point x="146" y="248.131"/>
      <point x="146" y="228" type="curve" smooth="yes"/>
      <point x="146" y="128" type="line" smooth="yes"/>
      <point x="146" y="114"/>
      <point x="151.667" y="107"/>
      <point x="163" y="107" type="curve" smooth="yes"/>
      <point x="229" y="107" type="line" smooth="yes"/>
      <point x="248.709" y="107"/>
      <point x="249" y="111.54"/>
      <point x="249" y="132" type="curve" smooth="yes"/>
      <point x="249" y="196" type="line" smooth="yes"/>
      <point x="249" y="209.333"/>
      <point x="244" y="216"/>
      <point x="234" y="216" type="curve" smooth="yes"/>
      <point x="220" y="216" type="line"/>
      <point x="258" y="446" type="line" smooth="yes"/>
      <point x="264" y="480"/>
      <point x="288" y="497"/>
      <point x="330" y="497" type="curve" smooth="yes"/>
      <point x="495" y="497" type="line" smooth="yes"/>
      <point x="541.224" y="497"/>
      <point x="562" y="479.952"/>
      <point x="562" y="434" type="curve" smooth="yes"/>
      <point x="562" y="64" type="line" smooth="yes"/>
      <point x="562" y="15.29"/>
      <point x="548.134" y="0"/>
      <point x="499" y="0" type="curve" smooth="yes"/>
      <point x="402" y="0" type="line"/>
      <point x="402" y="107" type="line"/>
      <point x="416" y="107" type="line" smooth="yes"/>
      <point x="436.64" y="107"/>
      <point x="438" y="112.033"/>
      <point x="438" y="133" type="curve" smooth="yes"/>
      <point x="438" y="372" type="line" smooth="yes"/>
      <point x="438" y="384"/>
      <point x="432" y="390"/>
      <point x="420" y="390" type="curve" smooth="yes"/>
      <point x="384" y="390" type="line" smooth="yes"/>
      <point x="370.667" y="390"/>
      <point x="362.667" y="384.333"/>
      <point x="360" y="373" type="curve" smooth="yes"/>
      <point x="345" y="288" type="line"/>
      <point x="347.75" y="287.928" type="line" smooth="yes"/>
      <point x="362.583" y="287.538"/>
      <point x="370" y="276.896"/>
      <point x="370" y="256" type="curve" smooth="yes"/>
      <point x="370" y="60" type="line" smooth="yes"/>
      <point x="370" y="12.6074"/>
      <point x="350.6" y="0"/>
      <point x="303" y="0" type="curve" smooth="yes"/>
      <point x="70" y="0" type="line" smooth="yes"/>
      <point x="33.3613" y="0"/>
      <point x="22" y="14"/>
    </contour>
    <contour>
      <point x="-6" y="354.995" type="line"/>
      <point x="88" y="354.995" type="line"/>
      <point x="88" y="257.995" type="line"/>
      <point x="-6" y="257.995" type="line"/>
    </contour>
  </outline>
</glyph>
<glyph name="si_Ra" format="1">
  <advance width="466"/>
  <unicode hex="0DBB"/>
  <outline>
    <contour>
      <point x="22" y="424" type="line" smooth="yes"/>
      <point x="22" y="455.7"/>
      <point x="35.9731" y="478.246"/>
      <point x="63" y="498.002" type="curve" smooth="yes"/>
      <point x="260" y="642.002" type="line"/>
      <point x="438" y="642.002" type="line"/>
      <point x="240" y="497.002" type="line"/>
      <point x="373" y="497" type="line" smooth="yes"/>
      <point x="411.484" y="496.999"/>
      <point x="435.214" y="476.413"/>
      <point x="435.214" y="438" type="curve" smooth="yes"/>
      <point x="435.214" y="48" type="line" smooth="yes"/>
      <point x="435.214" y="18.8481"/>
      <point x="417.333" y="-3.34733e-15"/>
      <point x="390" y="0" type="curve" smooth="yes"/>
      <point x="67" y="0" type="line" smooth="yes"/>
      <point x="41" y="0"/>
      <point x="22" y="14.9419"/>
      <point x="22" y="48" type="curve" smooth="yes"/>
    </contour>
    <contour>
      <point x="146.005" y="365.801" type="curve" smooth="yes"/>
      <point x="146" y="138" type="line" smooth="yes"/>
      <point x="146" y="112.666"/>
      <point x="157.334" y="107"/>
      <point x="170" y="107" type="curve" smooth="yes"/>
      <point x="284" y="107" type="line" smooth="yes"/>
      <point x="301.894" y="107"/>
      <point x="311.005" y="113.252"/>
      <point x="311.005" y="138.398" type="curve" smooth="yes"/>
      <point x="311.005" y="368" type="line" smooth="yes"/>
      <point x="311.005" y="385.761"/>
      <point x="304.667" y="394"/>
      <point x="286" y="394" type="curve" smooth="yes"/>
      <point x="173.808" y="394.002" type="line" smooth="yes"/>
      <point x="151.802" y="394.002"/>
      <point x="146.005" y="386.921"/>
    </contour>
  </outline>
</glyph>
<glyph name="si_La" format="1">
  <advance width="557"/>
  <unicode hex="0DBD"/>
  <outline>
    <contour>
      <point x="211.608" y="48" type="curve" smooth="yes"/>
      <point x="211.608" y="222.204" type="line"/>
      <point x="172.612" y="222.204" type="line"/>
      <point x="172.612" y="312.204" type="line"/>
      <point x="374.999" y="312.204" type="line"/>
      <point x="374.999" y="224.204" type="line"/>
      <point x="335.609" y="224.204" type="line"/>
      <point x="335.609" y="123" type="line" smooth="yes"/>
      <point x="335.609" y="107.734"/>
      <point x="337.95" y="107"/>
      <point x="353.609" y="107" type="curve" smooth="yes"/>
      <point x="388.01" y="107" type="line" smooth="yes"/>
      <point x="397.343" y="107"/>
      <point x="402.01" y="112.667"/>
      <point x="402.01" y="124" type="curve" smooth="yes"/>
      <point x="402.01" y="371" type="line" smooth="yes"/>
      <point x="402.01" y="386.299"/>
      <point x="397.666" y="394"/>
      <point x="377" y="394" type="curve" smooth="yes"/>
      <point x="169.8" y="394.001" type="line" smooth="yes"/>
      <point x="152.057" y="394.001"/>
      <point x="146" y="384"/>
      <point x="146" y="370" type="curve" smooth="yes"/>
      <point x="146" y="-6.61133" type="line" smooth="yes"/>
      <point x="146" y="-37.0498"/>
      <point x="155.477" y="-47.6113"/>
      <point x="188.001" y="-47.6113" type="curve" smooth="yes"/>
      <point x="525.812" y="-47.6113" type="line"/>
      <point x="525.812" y="-162.611" type="line"/>
      <point x="92" y="-162.611" type="line" smooth="yes"/>
      <point x="52.1143" y="-162.611"/>
      <point x="22" y="-146.153"/>
      <point x="22" y="-90.6113" type="curve" smooth="yes"/>
      <point x="22" y="434" type="line" smooth="yes"/>
      <point x="22" y="471.686"/>
      <point x="47.3457" y="497.001"/>
      <point x="76.2002" y="497.001" type="curve" smooth="yes"/>
      <point x="465" y="497" type="line" smooth="yes"/>
      <point x="501.262" y="497"/>
      <point x="526" y="464"/>
      <point x="526.012" y="428" type="curve" smooth="yes"/>
      <point x="526" y="61" type="line" smooth="yes"/>
      <point x="525.999" y="27.2047"/>
      <point x="511.8" y="-4.62922e-15"/>
      <point x="474" y="0" type="curve" smooth="yes"/>
      <point x="260.608" y="0" type="line" smooth="yes"/>
      <point x="227.708" y="0"/>
      <point x="211.608" y="20.8721"/>
    </contour>
  </outline>
</glyph>
<glyph name="si_Va" format="1">
  <advance width="515"/>
  <unicode hex="0DC0"/>
  <outline>
    <contour>
      <point x="485" y="415" type="line"/>
      <point x="485" y="54" type="line" smooth="yes"/>
      <point x="485" y="16.2703"/>
      <point x="472.075" y="0"/>
      <point x="435" y="0" type="curve" smooth="yes"/>
      <point x="72" y="0" type="line" smooth="yes"/>
      <point x="34.9277" y="0"/>
      <point x="22" y="16.273"/>
      <point x="22" y="54" type="curve" smooth="yes"/>
      <point x="22" y="275.61" type="line" smooth="yes"/>
      <point x="22" y="312.277"/>
      <point x="40.667" y="330.61"/>
      <point x="78" y="330.61" type="curve" smooth="yes"/>
      <point x="144" y="330.61" type="line"/>
      <point x="144" y="353" type="line" smooth="yes"/>
      <point x="144" y="362.333"/>
      <point x="138.667" y="367"/>
      <point x="128" y="367" type="curve" smooth="yes"/>
      <point x="21.999" y="367" type="line"/>
      <point x="21.999" y="470" type="line"/>
      <point x="205" y="470" type="line" smooth="yes"/>
      <point x="246.705" y="470"/>
      <point x="267.999" y="448.41"/>
      <point x="267.999" y="412" type="curve" smooth="yes"/>
      <point x="267.999" y="236.61" type="line"/>
      <point x="167" y="236.61" type="line" smooth="yes"/>
      <point x="153" y="236.61"/>
      <point x="146" y="230.277"/>
      <point x="146" y="217.61" type="curve" smooth="yes"/>
      <point x="146" y="129" type="line" smooth="yes"/>
      <point x="146" y="114.333"/>
      <point x="152" y="107"/>
      <point x="164" y="107" type="curve" smooth="yes"/>
      <point x="343" y="107" type="line" smooth="yes"/>
      <point x="355" y="107"/>
      <point x="361" y="114.333"/>
      <point x="361" y="129" type="curve" smooth="yes"/>
      <point x="361" y="415" type="line"/>
    </contour>
    <contour>
      <point x="416" y="625" type="line" smooth="yes"/>
      <point x="471" y="625"/>
      <point x="485" y="600.687"/>
      <point x="485" y="544" type="curve" smooth="yes"/>
      <point x="485" y="400" type="line"/>
      <point x="361" y="400" type="line"/>
      <point x="361" y="494.602" type="line" smooth="yes"/>
      <point x="361" y="512.95"/>
      <point x="354.062" y="517.602"/>
      <point x="335" y="517.602" type="curve" smooth="yes"/>
      <point x="22" y="517.602" type="line"/>
      <point x="22" y="625" type="line"/>
    </contour>
  </outline>
</glyph>
<glyph name="si_Ssa" format="1">
  <advance width="513"/>
  <unicode hex="0DC2"/>
  <outline>
    <contour>
      <point x="286" y="262" type="line"/>
      <point x="396" y="262" type="line"/>
      <point x="327" y="191" type="line" smooth="yes"/>
      <point x="316.538" y="180.235"/>
      <point x="309.609" y="173.317"/>
      <point x="309.607" y="153" type="curve" smooth="yes"/>
      <point x="309.605" y="133.393" type="line"/>
      <point x="196" y="133.392" type="line"/>
      <point x="196" y="159" type="line" smooth="yes"/>
      <point x="196" y="180.787"/>
      <point x="201.492" y="192.547"/>
      <point x="216" y="204" type="curve" smooth="yes"/>
    </contour>
    <contour>
      <point x="22" y="54" type="curve" smooth="yes"/>
      <point x="22" y="300" type="line" smooth="yes"/>
      <point x="22" y="337.333"/>
      <point x="40.6667" y="356"/>
      <point x="78" y="356" type="curve" smooth="yes"/>
      <point x="134.991" y="356" type="line"/>
      <point x="134.991" y="380" type="line" smooth="yes"/>
      <point x="134.991" y="389"/>
      <point x="129.658" y="394"/>
      <point x="118.991" y="394" type="curve" smooth="yes"/>
      <point x="23" y="394" type="line"/>
      <point x="23" y="497" type="line"/>
      <point x="158.991" y="497" type="line" smooth="yes"/>
      <point x="197.647" y="497"/>
      <point x="230.991" y="480.761"/>
      <point x="230.991" y="443" type="curve" smooth="yes"/>
      <point x="230.991" y="253" type="line"/>
      <point x="167" y="253" type="line" smooth="yes"/>
      <point x="156" y="253"/>
      <point x="146" y="246.667"/>
      <point x="146" y="234" type="curve" smooth="yes"/>
      <point x="146" y="129" type="line" smooth="yes"/>
      <point x="146" y="114.333"/>
      <point x="152" y="107"/>
      <point x="164" y="107" type="curve" smooth="yes"/>
      <point x="343" y="107" type="line" smooth="yes"/>
      <point x="355" y="107"/>
      <point x="361" y="114.333"/>
      <point x="361" y="129" type="curve" smooth="yes"/>
      <point x="361" y="234" type="line" smooth="yes"/>
      <point x="361" y="246.667"/>
      <point x="354" y="253"/>
      <point x="340" y="253" type="curve" smooth="yes"/>
      <point x="254.188" y="253" type="line"/>
      <point x="254.188" y="443" type="line" smooth="yes"/>
      <point x="254.188" y="480.766"/>
      <point x="287.519" y="497"/>
      <point x="326.188" y="497" type="curve" smooth="yes"/>
      <point x="437" y="497" type="line" smooth="yes"/>
      <point x="458.3" y="497"/>
      <point x="485" y="486.944"/>
      <point x="485" y="450" type="curve" smooth="yes"/>
      <point x="485" y="392" type="line" smooth="yes"/>
      <point x="485" y="373.763"/>
      <point x="482.344" y="364.686"/>
      <point x="473" y="354" type="curve" smooth="yes"/>
      <point x="452" y="330.983" type="line"/>
      <point x="351" y="330" type="line"/>
      <point x="388" y="364" type="line" smooth="yes"/>
      <point x="397.615" y="372.835"/>
      <point x="401.403" y="378.35"/>
      <point x="401.403" y="385.598" type="curve" smooth="yes"/>
      <point x="401.403" y="391.141"/>
      <point x="398.173" y="394"/>
      <point x="392" y="394" type="curve" smooth="yes"/>
      <point x="365.787" y="394" type="line" smooth="yes"/>
      <point x="356.072" y="394"/>
      <point x="349.787" y="389.333"/>
      <point x="349.787" y="380" type="curve" smooth="yes"/>
      <point x="349.787" y="349.193" type="line"/>
      <point x="429" y="349.193" type="line" smooth="yes"/>
      <point x="466.333" y="349.193"/>
      <point x="485" y="330.527"/>
      <point x="485" y="293.193" type="curve" smooth="yes"/>
      <point x="485" y="54" type="line" smooth="yes"/>
      <point x="485" y="16.273"/>
      <point x="472.072" y="0"/>
      <point x="435" y="0" type="curve" smooth="yes"/>
      <point x="72" y="0" type="line" smooth="yes"/>
      <point x="34.9249" y="0"/>
      <point x="22" y="16.2703"/>
    </contour>
  </outline>
</glyph>
<glyph name="si_Halant" format="1">
  <advance width="2"/>
  <unicode hex="0DCA"/>
  <outline>
    <contour>
      <point x="-159.202" y="492.396" type="line"/>
      <point x="-159.202" y="649" type="line"/>
      <point x="-35" y="649" type="line"/>
      <point x="-35" y="426" type="line"/>
      <point x="-39.667" y="433.333"/>
      <point x="-55.082" y="462.636"/>
      <point x="-67" y="470.791" type="curve" smooth="yes"/>
      <point x="-79.4561" y="479.315"/>
      <point x="-98.498" y="492.396"/>
      <point x="-124" y="492.396" type="curve" smooth="yes"/>
    </contour>
  </outline>
</glyph>
<glyph name="si_MatraAe" format="1">
  <advance width="250"/>
  <unicode hex="0DD0"/>
  <outline>
    <contour>
      <point x="22" y="497" type="line"/>
      <point x="220" y="497" type="line"/>
      <point x="220" y="388" type="line"/>
      <point x="154" y="226.999" type="line" smooth="yes"/>
      <point x="148.094" y="212.591"/>
      <point x="146" y="197.1"/>
      <point x="146" y="178" type="curve" smooth="yes"/>
      <point x="146" y="126" type="line" smooth="yes"/>
      <point x="146" y="113.333"/>
      <point x="152.667" y="107"/>
      <point x="166" y="107" type="curve" smooth="yes"/>
      <point x="220" y="107.001" type="line"/>
      <point x="220" y="0.000976562" type="line"/>
      <point x="57" y="0" type="line" smooth="yes"/>
      <point x="36.333" y="0"/>
      <point x="22" y="12.001"/>
      <point x="22" y="36.001" type="curve" smooth="yes"/>
      <point x="22" y="184" type="line" smooth="yes"/>
      <point x="22" y="212.758"/>
      <point x="25.9844" y="233.708"/>
      <point x="36" y="256" type="curve" smooth="yes"/>
      <point x="98" y="394" type="line"/>
      <point x="22" y="394" type="line"/>
    </contour>
  </outline>
</glyph>
<glyph name="si_MatraI" format="1">
  <advance width="2"/>
  <unicode hex="0DD2"/>
  <outline>
    <contour>
      <point x="-590.01" y="511" type="line"/>
      <point x="-590.01" y="595.803" type="line" smooth="yes"/>
      <point x="-590.01" y="625.797"/>
      <point x="-573.094" y="640"/>
      <point x="-546.01" y="640" type="curve" smooth="yes"/>
      <point x="-108" y="640" type="line" smooth="yes"/>
      <point x="-82.667" y="640"/>
      <point x="-67" y="628.565"/>
      <point x="-67" y="597" type="curve" smooth="yes"/>
      <point x="-67" y="511" type="line"/>
      <point x="-191.005" y="511" type="line"/>
      <point x="-191.005" y="528" type="line" smooth="yes"/>
      <point x="-191.005" y="540.878"/>
      <point x="-191.721" y="546.001"/>
      <point x="-204.601" y="546.001" type="curve" smooth="yes"/>
      <point x="-453.01" y="546.001" type="line" smooth="yes"/>
      <point x="-464.343" y="546.001"/>
      <point x="-466.005" y="540.001"/>
      <point x="-466.005" y="528.001" type="curve" smooth="yes"/>
      <point x="-466.005" y="511" type="line"/>
    </contour>
  </outline>
</glyph>
<glyph name="si_MatraIi" format="1">
  <advance width="515"/>
  <unicode hex="0DD3"/>
  <outline>
    <contour>
      <point x="-217.001" y="582.198" type="line" smooth="yes"/>
      <point x="-227.001" y="582.198"/>
      <point x="-232.001" y="578.198"/>
      <point x="-232.001" y="570.198" type="curve" smooth="yes"/>
      <point x="-232.001" y="562.011" type="line" smooth="yes"/>
      <point x="-232.001" y="553.344"/>
      <point x="-226.668" y="549.011"/>
      <point x="-216.001" y="549.011" type="curve" smooth="yes"/>
      <point x="-175.001" y="549.011" type="line" smooth="yes"/>
      <point x="-164.334" y="549.011"/>
      <point x="-159.001" y="553.678"/>
      <point x="-159.001" y="563.011" type="curve" smooth="yes"/>
      <point x="-159.001" y="570.198" type="line" smooth="yes"/>
      <point x="-159.001" y="578.198"/>
      <point x="-164.668" y="582.198"/>
      <point x="-176.001" y="582.198" type="curve" smooth="yes"/>
    </contour>
    <contour>
      <point x="-453.01" y="546.001" type="line" smooth="yes"/>
      <point x="-464" y="546"/>
      <point x="-466.005" y="540.001"/>
      <point x="-466.005" y="528.001" type="curve" smooth="yes"/>
      <point x="-466.005" y="511" type="line"/>
      <point x="-590.01" y="511" type="line"/>
      <point x="-590.01" y="595.803" type="line" smooth="yes"/>
      <point x="-590.01" y="625.797"/>
      <point x="-573.79" y="640.011"/>
      <point x="-546.8" y="640.011" type="curve" smooth="yes"/>
      <point x="-108.8" y="640.012" type="line" smooth="yes"/>
      <point x="-81.3203" y="640.012"/>
      <point x="-67.001" y="626.661"/>
      <point x="-67.001" y="600" type="curve" smooth="yes"/>
      <point x="-67.001" y="540.996" type="line" smooth="yes"/>
      <point x="-67.001" y="521"/>
      <point x="-77.0029" y="510.996"/>
      <point x="-97.001" y="510.996" type="curve" smooth="yes"/>
      <point x="-297.001" y="510.994" type="line" smooth="yes"/>
      <point x="-320.276" y="510.994"/>
      <point x="-325.001" y="520.251"/>
      <point x="-325.001" y="531.996" type="curve" smooth="yes"/>
      <point x="-325.001" y="537.993" type="line" smooth="yes"/>
      <point x="-325.001" y="542.524"/>
      <point x="-324.184" y="545.002"/>
      <point x="-322.602" y="545.993" type="curve"/>
    </contour>
  </outline>
</glyph>
<glyph name="si_MatraLl" format="1">
  <advance width="369"/>
  <unicode hex="0DF3"/>
  <outline>
    <contour>
      <point x="16" y="496.8" type="line"/>
      <point x="16" y="268" type="line" smooth="yes"/>
      <point x="16" y="245.365"/>
      <point x="29" y="235"/>
      <point x="49" y="235" type="curve" smooth="yes"/>
      <point x="145.594" y="235" type="line" smooth="yes"/>
      <point x="171.563" y="235"/>
      <point x="197.594" y="242.905"/>
      <point x="197.594" y="270" type="curve" smooth="yes"/>
      <point x="197.594" y="378.2" type="line" smooth="yes"/>
      <point x="197.594" y="388.865"/>
      <point x="200.927" y="394.2"/>
      <point x="207.594" y="394.2" type="curve" smooth="yes"/>
      <point x="218.395" y="394.2" type="line" smooth="yes"/>
      <point x="224.395" y="394.2"/>
      <point x="227.395" y="389.533"/>
      <point x="227.395" y="380.2" type="curve" smooth="yes"/>
      <point x="227.395" y="123.8" type="line" smooth="yes"/>
      <point x="227.395" y="112.467"/>
      <point x="225.598" y="106.8"/>
      <point x="215.598" y="106.8" type="curve" smooth="yes"/>
      <point x="168" y="106.8" type="line" smooth="yes"/>
      <point x="154.091" y="106.8"/>
      <point x="153" y="109.507"/>
      <point x="153" y="123.8" type="curve" smooth="yes"/>
      <point x="153" y="172" type="line"/>
      <point x="19" y="172" type="line"/>
      <point x="19" y="47" type="line" smooth="yes"/>
      <point x="19" y="16.3369"/>
      <point x="35.0889" y="0"/>
      <point x="59" y="0" type="curve" smooth="yes"/>
      <point x="294" y="0" type="line" smooth="yes"/>
      <point x="322.587" y="0"/>
      <point x="342" y="16.7559"/>
      <point x="342" y="46" type="curve" smooth="yes"/>
      <point x="342" y="456" type="line" smooth="yes"/>
      <point x="342" y="478.214"/>
      <point x="325.733" y="497"/>
      <point x="300" y="497" type="curve" smooth="yes"/>
      <point x="144.798" y="497" type="line" smooth="yes"/>
      <point x="121.819" y="497"/>
      <point x="118.2" y="485.421"/>
      <point x="118.2" y="457" type="curve" smooth="yes"/>
      <point x="118.2" y="360.995" type="line" smooth="yes"/>
      <point x="118.2" y="344.995"/>
      <point x="117.766" y="336.995"/>
      <point x="108.2" y="336.995" type="curve" smooth="yes"/>
      <point x="95.9951" y="336.995" type="line" smooth="yes"/>
      <point x="88.4717" y="336.995"/>
      <point x="87.1934" y="341.662"/>
      <point x="87.1934" y="358.995" type="curve" smooth="yes"/>
      <point x="87.1934" y="496.8" type="line"/>
    </contour>
  </outline>
</glyph>
<glyph name="si_kundaliya" format="1">
  <advance width="1838"/>
  <unicode hex="0DF4"/>
  <outline>
    <contour>
      <point x="162" y="221" type="line"/>
      <point x="222" y="120" type="line"/>
      <point x="196" y="106" type="line"/>
      <point x="202" y="98" type="line" smooth="yes"/>
      <point x="204.475" y="94.6994"/>
      <point x="211.446" y="98.4752"/>
      <point x="218" y="102" type="curve" smooth="yes"/>
      <point x="337" y="166" type="line" smooth="yes"/>
      <point x="361.939" y="179.966"/>
      <point x="381.163" y="181.598"/>
      <point x="399.5" y="168.5" type="curve" smooth="yes"/>
      <point x="399.5" y="168.5"/>
      <point x="405" y="164.667"/>
      <point x="409" y="162" type="curve"/>
      <point x="497" y="266" type="line" smooth="yes"/>
      <point x="508.556" y="279.657"/>
      <point x="527.36" y="279.63"/>
      <point x="535" y="262" type="curve" smooth="yes"/>
      <point x="548" y="232" type="line"/>
      <point x="660" y="334" type="line"/>
      <point x="673.99" y="346.347"/>
      <point x="697.432" y="341.416"/>
      <point x="702" y="322" type="curve" smooth="yes"/>
      <point x="712" y="277" type="line"/>
      <point x="825" y="373" type="line" smooth="yes"/>
      <point x="840.312" y="386.92"/>
      <point x="863.209" y="379.956"/>
      <point x="867" y="361" type="curve" smooth="yes"/>
      <point x="882" y="292" type="line"/>
      <point x="1003" y="393" type="line" smooth="yes"/>
      <point x="1019.01" y="405.58"/>
      <point x="1040.45" y="402.158"/>
      <point x="1042" y="382" type="curve" smooth="yes"/>
      <point x="1049" y="274" type="line"/>
      <point x="1180" y="353" type="line"/>
      <point x="1206.91" y="370.941"/>
      <point x="1228.76" y="359.778"/>
      <point x="1226" y="328" type="curve" smooth="yes"/>
      <point x="1215" y="235" type="line"/>
      <point x="1322" y="283" type="line" smooth="yes"/>
      <point x="1347.94" y="294.672"/>
      <point x="1368.45" y="281.509"/>
      <point x="1363" y="257" type="curve" smooth="yes"/>
      <point x="1349" y="194" type="line"/>
      <point x="1431" y="234" type="line" smooth="yes"/>
      <point x="1453.83" y="244.745"/>
      <point x="1478.26" y="234.128"/>
      <point x="1469" y="209" type="curve" smooth="yes"/>
      <point x="1453" y="164" type="line"/>
      <point x="1458.13" y="165.183"/>
      <point x="1464.87" y="166.792"/>
      <point x="1472.96" y="166.675" type="curve" smooth="yes"/>
      <point x="1481.05" y="166.559"/>
      <point x="1490.48" y="164.718"/>
      <point x="1501" y="159" type="curve" smooth="yes"/>
      <point x="1615" y="97" type="line" smooth="yes"/>
      <point x="1619.78" y="94.3995"/>
      <point x="1629.18" y="90.6582"/>
      <point x="1631.2" y="95.2002" type="curve" smooth="yes"/>
      <point x="1636" y="104" type="line"/>
      <point x="1612" y="117" type="line"/>
      <point x="1671" y="217" type="line"/>
      <point x="1769" y="158" type="line" smooth="yes"/>
      <point x="1786.73" y="147.867"/>
      <point x="1784.04" y="124.774"/>
      <point x="1774" y="109" type="curve" smooth="yes"/>
      <point x="1714" y="7" type="line"/>
      <point x="1699.2" y="-9.44149"/>
      <point x="1668.04" y="-17.0179"/>
      <point x="1644" y="-5" type="curve" smooth="yes"/>
      <point x="1490" y="78" type="line" smooth="yes"/>
      <point x="1476.65" y="86.2124"/>
      <point x="1462.48" y="89.8046"/>
      <point x="1447" y="84" type="curve" smooth="yes"/>
      <point x="1325" y="32" type="line"/>
      <point x="1346" y="106" type="line"/>
      <point x="1206" y="42" type="line"/>
      <point x="1227" y="141" type="line"/>
      <point x="1084" y="75" type="line"/>
      <point x="1094" y="182" type="line"/>
      <point x="945" y="87" type="line"/>
      <point x="934" y="222" type="line"/>
      <point x="801" y="114" type="line"/>
      <point x="778" y="216" type="line"/>
      <point x="643" y="102" type="line"/>
      <point x="625" y="182" type="line"/>
      <point x="506" y="76" type="line"/>
      <point x="490" y="119" type="line"/>
      <point x="430" y="54" type="line"/>
      <point x="383" y="88" type="line" smooth="yes"/>
      <point x="371.767" y="97.3437"/>
      <point x="355.554" y="89.2768"/>
      <point x="343" y="83" type="curve" smooth="yes"/>
      <point x="189" y="0" type="line" smooth="yes"/>
      <point x="164.348" y="-13.2864"/>
      <point x="131" y="-8"/>
      <point x="119" y="12" type="curve" smooth="yes"/>
      <point x="59" y="113" type="line" smooth="yes"/>
      <point x="49.3123" y="129.608"/>
      <point x="45.8619" y="152.635"/>
      <point x="64" y="163" type="curve" smooth="yes"/>
    </contour>
  </outline>
</glyph>
<glyph name="si_BI" format="1">
  <advance width="515"/>
  <outline>
    <contour>
      <point x="485" y="400" type="line"/>
      <point x="361" y="400" type="line"/>
      <point x="361" y="441" type="line" smooth="yes"/>
      <point x="361" y="459.349"/>
      <point x="354.061" y="464"/>
      <point x="335" y="464" type="curve" smooth="yes"/>
      <point x="69" y="464" type="line" smooth="yes"/>
      <point x="37.6667" y="464"/>
      <point x="22" y="480"/>
      <point x="22" y="512" type="curve" smooth="yes"/>
      <point x="22" y="612" type="line" smooth="yes"/>
      <point x="22" y="656.156"/>
      <point x="37.8431" y="672"/>
      <point x="82" y="672" type="curve" smooth="yes"/>
      <point x="483.5" y="672" type="line"/>
      <point x="483.5" y="589" type="line"/>
      <point x="165" y="589" type="line" smooth="yes"/>
      <point x="152.333" y="589"/>
      <point x="146" y="585.667"/>
      <point x="146" y="577" type="curve" smooth="yes"/>
      <point x="146" y="568" type="line" smooth="yes"/>
      <point x="146" y="561.333"/>
      <point x="151.667" y="558"/>
      <point x="163" y="558" type="curve" smooth="yes"/>
      <point x="416" y="558" type="line" smooth="yes"/>
      <point x="472.814" y="558"/>
      <point x="485" y="535.085"/>
      <point x="485" y="477" type="curve" smooth="yes"/>
    </contour>
    <contour>
      <point x="198" y="54" type="curve" smooth="yes"/>
      <point x="197" y="298.591" type="line" smooth="yes"/>
      <point x="196.952" y="310.062"/>
      <point x="194.912" y="316.591"/>
      <point x="183.399" y="316.591" type="curve" smooth="yes"/>
      <point x="161.999" y="316.591" type="line" smooth="yes"/>
      <point x="147.999" y="316.591"/>
      <point x="146" y="310.258"/>
      <point x="146" y="297.591" type="curve" smooth="yes"/>
      <point x="146" y="129" type="line" smooth="yes"/>
      <point x="146" y="114.333"/>
      <point x="152" y="107"/>
      <point x="164" y="107" type="curve" smooth="yes"/>
      <point x="172" y="107" type="line"/>
      <point x="172" y="0" type="line"/>
      <point x="72" y="0" type="line" smooth="yes"/>
      <point x="34.9277" y="0"/>
      <point x="22" y="16.2734"/>
      <point x="22" y="54" type="curve" smooth="yes"/>
      <point x="22" y="368.192" type="line" smooth="yes"/>
      <point x="22" y="404.859"/>
      <point x="40.667" y="423.192"/>
      <point x="78" y="423.192" type="curve" smooth="yes"/>
      <point x="256" y="423.192" type="line" smooth="yes"/>
      <point x="288.128" y="423.192"/>
      <point x="311" y="408.979"/>
      <point x="311" y="369.591" type="curve" smooth="yes"/>
      <point x="311" y="126.195" type="line" smooth="yes"/>
      <point x="311" y="110.599"/>
      <point x="313.397" y="107"/>
      <point x="327.397" y="107" type="curve" smooth="yes"/>
      <point x="345.402" y="107" type="line" smooth="yes"/>
      <point x="357.402" y="107"/>
      <point x="361" y="110.33"/>
      <point x="361" y="124.996" type="curve" smooth="yes"/>
      <point x="361" y="415" type="line"/>
      <point x="485" y="415" type="line"/>
      <point x="485" y="54" type="line" smooth="yes"/>
      <point x="485" y="16.2705"/>
      <point x="472.075" y="0"/>
      <point x="435" y="0" type="curve" smooth="yes"/>
      <point x="250" y="0" type="line" smooth="yes"/>
      <point x="213.253" y="0"/>
      <point x="198.147" y="16.7305"/>
    </contour>
  </outline>
</glyph>
<glyph name="si_CI" format="1">
  <advance width="539"/>
  <outline>
    <contour>
      <point x="508.999" y="400" type="line"/>
      <point x="384.999" y="400" type="line"/>
      <point x="384.999" y="441" type="line" smooth="yes"/>
      <point x="384.999" y="459.349"/>
      <point x="378.061" y="464"/>
      <point x="358.999" y="464" type="curve" smooth="yes"/>
      <point x="92.999" y="464" type="line" smooth="yes"/>
      <point x="61.666" y="464"/>
      <point x="45.999" y="480"/>
      <point x="45.999" y="512" type="curve" smooth="yes"/>
      <point x="45.999" y="612" type="line" smooth="yes"/>
      <point x="45.999" y="656.156"/>
      <point x="61.8418" y="672"/>
      <point x="105.999" y="672" type="curve" smooth="yes"/>
      <point x="507.499" y="672" type="line"/>
      <point x="507.499" y="589" type="line"/>
      <point x="188.999" y="589" type="line" smooth="yes"/>
      <point x="176.332" y="589"/>
      <point x="169.999" y="585.667"/>
      <point x="169.999" y="577" type="curve" smooth="yes"/>
      <point x="169.999" y="568" type="line" smooth="yes"/>
      <point x="169.999" y="561.333"/>
      <point x="175.666" y="558"/>
      <point x="186.999" y="558" type="curve" smooth="yes"/>
      <point x="439.999" y="558" type="line" smooth="yes"/>
      <point x="496.813" y="558"/>
      <point x="508.999" y="535.085"/>
      <point x="508.999" y="477" type="curve" smooth="yes"/>
    </contour>
    <contour>
      <point x="-6" y="294.165" type="line"/>
      <point x="162" y="294.165" type="line"/>
      <point x="162" y="200.165" type="line"/>
      <point x="-6.00195" y="200.165" type="line"/>
    </contour>
    <contour>
      <point x="508.997" y="415" type="line"/>
      <point x="508.997" y="54" type="line" smooth="yes"/>
      <point x="508.997" y="16.2705"/>
      <point x="496.072" y="0"/>
      <point x="458.997" y="0" type="curve" smooth="yes"/>
      <point x="95.9971" y="0" type="line" smooth="yes"/>
      <point x="58.9248" y="0"/>
      <point x="45.9971" y="16.2734"/>
      <point x="45.9971" y="54" type="curve" smooth="yes"/>
      <point x="45.9971" y="150.968" type="line" smooth="yes"/>
      <point x="45.9971" y="183.179"/>
      <point x="53.9268" y="196.333"/>
      <point x="62" y="204.968" type="curve" smooth="yes"/>
      <point x="62" y="204.968"/>
      <point x="118.863" y="294.175"/>
      <point x="148" y="294.175" type="curve" smooth="yes"/>
      <point x="167.997" y="294.175" type="line"/>
      <point x="167.997" y="313.161" type="line" smooth="yes"/>
      <point x="167.997" y="322.494"/>
      <point x="162.664" y="327.161"/>
      <point x="151.997" y="327.161" type="curve" smooth="yes"/>
      <point x="45.9961" y="327.161" type="line"/>
      <point x="45.9961" y="430.161" type="line"/>
      <point x="228.997" y="430.161" type="line" smooth="yes"/>
      <point x="270.702" y="430.161"/>
      <point x="291.996" y="408.571"/>
      <point x="291.996" y="372.161" type="curve" smooth="yes"/>
      <point x="291.996" y="200.175" type="line"/>
      <point x="205.398" y="200.175" type="line" smooth="yes"/>
      <point x="177.746" y="200.175"/>
      <point x="169.997" y="184.667"/>
      <point x="169.997" y="155.176" type="curve" smooth="yes"/>
      <point x="169.997" y="129" type="line" smooth="yes"/>
      <point x="169.997" y="114.333"/>
      <point x="175.997" y="107"/>
      <point x="187.997" y="107" type="curve" smooth="yes"/>
      <point x="366.997" y="107" type="line" smooth="yes"/>
      <point x="378.997" y="107"/>
      <point x="384.997" y="114.333"/>
      <point x="384.997" y="129" type="curve" smooth="yes"/>
      <point x="384.997" y="415" type="line"/>
    </contour>
  </outline>
</glyph>
<glyph name="si_CIi" format="1">
  <advance width="539"/>
  <outline>
    <contour>
      <point x="384.999" y="405" type="line"/>
      <point x="384.999" y="434" type="line" smooth="yes"/>
      <point x="384.999" y="452.19"/>
      <point x="367.682" y="464"/>
      <point x="348.999" y="464" type="curve" smooth="yes"/>
      <point x="88.999" y="464" type="line" smooth="yes"/>
      <point x="59.1562" y="464"/>
      <point x="45.999" y="472.771"/>
      <point x="45.999" y="505" type="curve" smooth="yes"/>
      <point x="45.999" y="618" type="line" smooth="yes"/>
      <point x="45.999" y="654.859"/>
      <point x="59.4102" y="672"/>
      <point x="95.999" y="672" type="curve" smooth="yes"/>
      <point x="458.999" y="672" type="line" smooth="yes"/>
      <point x="495.587" y="672"/>
      <point x="508.999" y="654.858"/>
      <point x="508.999" y="618" type="curve" smooth="yes"/>
      <point x="508.999" y="552" type="line" smooth="yes"/>
      <point x="508.999" y="529.838"/>
      <point x="492.867" y="512.773"/>
      <point x="473.999" y="509" type="curve"/>
      <point x="495.91" y="502.152"/>
      <point x="508.999" y="474.274"/>
      <point x="508.999" y="445" type="curve" smooth="yes"/>
      <point x="508.999" y="405" type="line"/>
    </contour>
    <contour>
      <point x="255.999" y="539" type="line"/>
      <point x="248.065" y="543.655"/>
      <point x="244.999" y="547.826"/>
      <point x="244.999" y="564" type="curve" smooth="yes"/>
      <point x="244.999" y="575" type="line" smooth="yes"/>
      <point x="244.999" y="581.855"/>
      <point x="245.141" y="584.019"/>
      <point x="247.999" y="587" type="curve"/>
      <point x="176.999" y="587" type="line" smooth="yes"/>
      <point x="165.666" y="587"/>
      <point x="159.999" y="582.333"/>
      <point x="159.999" y="573" type="curve" smooth="yes"/>
      <point x="159.999" y="554" type="line" smooth="yes"/>
      <point x="159.999" y="544"/>
      <point x="165.332" y="539"/>
      <point x="175.999" y="539" type="curve" smooth="yes"/>
    </contour>
    <contour>
      <point x="349.999" y="594" type="line" smooth="yes"/>
      <point x="341.618" y="594"/>
      <point x="336.999" y="588.388"/>
      <point x="336.999" y="581" type="curve" smooth="yes"/>
      <point x="336.999" y="558" type="line" smooth="yes"/>
      <point x="336.999" y="547.623"/>
      <point x="346.2" y="543"/>
      <point x="354.999" y="543" type="curve" smooth="yes"/>
      <point x="391.999" y="543" type="line" smooth="yes"/>
      <point x="403.682" y="543"/>
      <point x="411.999" y="549.519"/>
      <point x="411.999" y="564" type="curve" smooth="yes"/>
      <point x="411.999" y="582" type="line" smooth="yes"/>
      <point x="411.999" y="591.396"/>
      <point x="405.684" y="594"/>
      <point x="400.999" y="594" type="curve" smooth="yes"/>
    </contour>
    <contour>
      <point x="-6" y="294.165" type="line"/>
      <point x="162" y="294.165" type="line"/>
      <point x="162" y="200.165" type="line"/>
      <point x="-6.00195" y="200.165" type="line"/>
    </contour>
    <contour>
      <point x="508.997" y="415" type="line"/>
      <point x="508.997" y="54" type="line" smooth="yes"/>
      <point x="508.997" y="16.2705"/>
      <point x="496.072" y="0"/>
      <point x="458.997" y="0" type="curve" smooth="yes"/>
      <point x="95.9971" y="0" type="line" smooth="yes"/>
      <point x="58.9248" y="0"/>
      <point x="45.9971" y="16.2734"/>
      <point x="45.9971" y="54" type="curve" smooth="yes"/>
      <point x="45.9971" y="150.968" type="line" smooth="yes"/>
      <point x="45.9971" y="183.179"/>
      <point x="53.9268" y="196.333"/>
      <point x="62" y="204.968" type="curve" smooth="yes"/>
      <point x="62" y="204.968"/>
      <point x="118.863" y="294.175"/>
      <point x="148" y="294.175" type="curve" smooth="yes"/>
      <point x="167.997" y="294.175" type="line"/>
      <point x="167.997" y="313.161" type="line" smooth="yes"/>
      <point x="167.997" y="322.494"/>
      <point x="162.664" y="327.161"/>
      <point x="151.997" y="327.161" type="curve" smooth="yes"/>
      <point x="45.9961" y="327.161" type="line"/>
      <point x="45.9961" y="430.161" type="line"/>
      <point x="228.997" y="430.161" type="line" smooth="yes"/>
      <point x="270.702" y="430.161"/>
      <point x="291.996" y="408.571"/>
      <point x="291.996" y="372.161" type="curve" smooth="yes"/>
      <point x="291.996" y="200.175" type="line"/>
      <point x="205.398" y="200.175" type="line" smooth="yes"/>
      <point x="177.746" y="200.175"/>
      <point x="169.997" y="184.667"/>
      <point x="169.997" y="155.176" type="curve" smooth="yes"/>
      <point x="169.997" y="129" type="line" smooth="yes"/>
      <point x="169.997" y="114.333"/>
      <point x="175.997" y="107"/>
      <point x="187.997" y="107" type="curve" smooth="yes"/>
      <point x="366.997" y="107" type="line" smooth="yes"/>
      <point x="378.997" y="107"/>
      <point x="384.997" y="114.333"/>
      <point x="384.997" y="129" type="curve" smooth="yes"/>
      <point x="384.997" y="415" type="line"/>
    </contour>
  </outline>
</glyph>
<glyph name="si_Ch.halant" format="1">
  <advance width="513"/>
  <outline>
    <contour>
      <point x="199.798" y="477" type="curve"/>
      <point x="199.798" y="656" type="line"/>
      <point x="310" y="656" type="line"/>
      <point x="310" y="433" type="line"/>
      <point x="282.131" y="476.789"/>
      <point x="277.766" y="477"/>
    </contour>
    <component base="si_Cha"/>
  </outline>
</glyph>
<glyph name="si_DRI" format="1">
  <advance width="460"/>
  <outline>
    <contour>
      <point x="22.1816" y="511" type="line"/>
      <point x="22.1816" y="595.803" type="line" smooth="yes"/>
      <point x="22.1816" y="625.797"/>
      <point x="39.0977" y="640"/>
      <point x="66.1816" y="640" type="curve" smooth="yes"/>
      <point x="383" y="640" type="line" smooth="yes"/>
      <point x="408.333" y="640"/>
      <point x="424" y="628.565"/>
      <point x="424" y="597" type="curve" smooth="yes"/>
      <point x="424" y="511" type="line"/>
      <point x="299.995" y="511" type="line"/>
      <point x="299.995" y="528" type="line" smooth="yes"/>
      <point x="299.995" y="540.878"/>
      <point x="299.279" y="546.001"/>
      <point x="286.399" y="546.001" type="curve" smooth="yes"/>
      <point x="159.182" y="546.001" type="line" smooth="yes"/>
      <point x="147.849" y="546.001"/>
      <point x="146.187" y="540.001"/>
      <point x="146.187" y="528.001" type="curve" smooth="yes"/>
      <point x="146.187" y="511" type="line"/>
    </contour>
    <component base="si_DRa"/>
  </outline>
</glyph>
<glyph name="si_DRa" format="1">
  <advance width="460"/>
  <outline>
    <contour>
      <point x="22.1992" y="-15.8076" type="line"/>
      <point x="146.204" y="-15.8076" type="line"/>
      <point x="146.204" y="-34.8105" type="line" smooth="yes"/>
      <point x="146.204" y="-46.8105"/>
      <point x="147.866" y="-52.8105"/>
      <point x="159.199" y="-52.8105" type="curve" smooth="yes"/>
      <point x="291.199" y="-52.8105" type="line" smooth="yes"/>
      <point x="304.079" y="-52.8105"/>
      <point x="304.795" y="-47.6871"/>
      <point x="304.795" y="-34.8096" type="curve" smooth="yes"/>
      <point x="304.795" y="12" type="line"/>
      <point x="428.8" y="12" type="line"/>
      <point x="428.8" y="-115.821" type="line" smooth="yes"/>
      <point x="428.8" y="-147.387"/>
      <point x="413.133" y="-158.821"/>
      <point x="387.8" y="-158.821" type="curve" smooth="yes"/>
      <point x="66.1992" y="-158.821" type="line" smooth="yes"/>
      <point x="39.1152" y="-158.821"/>
      <point x="22.1992" y="-144.618"/>
      <point x="22.1992" y="-114.624" type="curve" smooth="yes"/>
    </contour>
    <contour>
      <point x="429" y="0.000976562" type="line"/>
      <point x="66.2002" y="0" type="line" smooth="yes"/>
      <point x="32.2002" y="-0"/>
      <point x="22" y="17.9256"/>
      <point x="22" y="49.5996" type="curve" smooth="yes"/>
      <point x="22" y="298" type="line" smooth="yes"/>
      <point x="22" y="338.657"/>
      <point x="43.1063" y="355"/>
      <point x="80" y="355" type="curve" smooth="yes"/>
      <point x="301" y="355" type="line"/>
      <point x="300.999" y="378" type="line" smooth="yes"/>
      <point x="300.998" y="391.308"/>
      <point x="296.338" y="394.001"/>
      <point x="287.005" y="394.001" type="curve" smooth="yes"/>
      <point x="22" y="394.001" type="line"/>
      <point x="22" y="497.001" type="line"/>
      <point x="372" y="497" type="line" smooth="yes"/>
      <point x="405.565" y="497"/>
      <point x="425" y="480.913"/>
      <point x="425" y="444" type="curve" smooth="yes"/>
      <point x="425" y="253.001" type="line"/>
      <point x="168" y="253" type="line" smooth="yes"/>
      <point x="151.333" y="253"/>
      <point x="146" y="245.668"/>
      <point x="146" y="231.001" type="curve" smooth="yes"/>
      <point x="146" y="133.001" type="line" smooth="yes"/>
      <point x="146" y="113.159"/>
      <point x="151.048" y="107"/>
      <point x="166.2" y="107" type="curve" smooth="yes"/>
      <point x="429" y="107.001" type="line"/>
    </contour>
  </outline>
</glyph>
<glyph name="si_DUu" format="1">
  <advance width="460"/>
  <outline>
    <contour>
      <point x="429.001" y="-158.999" type="line"/>
      <point x="312.401" y="-158.999" type="line"/>
      <point x="304.847" y="-151.036"/>
      <point x="296.935" y="-141.535"/>
      <point x="289.206" y="-136.201" type="curve" smooth="yes"/>
      <point x="279.035" y="-129.182"/>
      <point x="267.515" y="-129.002"/>
      <point x="257.406" y="-129.002" type="curve"/>
      <point x="252.821" y="-129.002" type="line"/>
      <point x="240.846" y="-129.002"/>
      <point x="231.25" y="-131.704"/>
      <point x="218.821" y="-136.803" type="curve"/>
      <point x="175.617" y="-153.804" type="line"/>
      <point x="163.829" y="-158.021"/>
      <point x="155.828" y="-162.805"/>
      <point x="127.828" y="-162.805" type="curve" smooth="yes"/>
      <point x="70.0498" y="-162.805" type="line" smooth="yes"/>
      <point x="37.6357" y="-162.805"/>
      <point x="22.0488" y="-150.575"/>
      <point x="22.0488" y="-122.002" type="curve" smooth="yes"/>
      <point x="22.0488" y="-29.0029" type="line"/>
      <point x="139.049" y="-29.0029" type="line"/>
      <point x="139.049" y="-48.1992" type="line" smooth="yes"/>
      <point x="139.049" y="-59.4834"/>
      <point x="140.313" y="-66.2002"/>
      <point x="152.25" y="-66.2002" type="curve" smooth="yes"/>
      <point x="155.043" y="-66.2002" type="line" smooth="yes"/>
      <point x="163.46" y="-66.2002"/>
      <point x="171.088" y="-63.2168"/>
      <point x="180.196" y="-58.6006" type="curve"/>
      <point x="208.817" y="-46.001" type="line"/>
      <point x="221.783" y="-40.6738"/>
      <point x="234.97" y="-39.002"/>
      <point x="250.617" y="-39.002" type="curve"/>
      <point x="259.415" y="-39.002" type="line"/>
      <point x="269.376" y="-39.002"/>
      <point x="286.438" y="-39.1924"/>
      <point x="294.611" y="-45.002" type="curve" smooth="yes"/>
      <point x="300.418" y="-49.1299"/>
      <point x="301.252" y="-50.2412"/>
      <point x="305.999" y="-55.002" type="curve"/>
      <point x="305.999" y="14" type="line"/>
      <point x="384.001" y="14" type="line" smooth="yes"/>
      <point x="410.001" y="14"/>
      <point x="425.001" y="28"/>
      <point x="429.001" y="56" type="curve"/>
    </contour>
    <contour>
      <point x="429" y="0.000976562" type="line"/>
      <point x="66.2002" y="0" type="line" smooth="yes"/>
      <point x="32.2002" y="-0"/>
      <point x="22" y="17.9256"/>
      <point x="22" y="49.5996" type="curve" smooth="yes"/>
      <point x="22" y="298" type="line" smooth="yes"/>
      <point x="22" y="338.657"/>
      <point x="43.1063" y="355"/>
      <point x="80" y="355" type="curve" smooth="yes"/>
      <point x="301" y="355" type="line"/>
      <point x="300.999" y="378" type="line" smooth="yes"/>
      <point x="300.998" y="391.308"/>
      <point x="296.338" y="394.001"/>
      <point x="287.005" y="394.001" type="curve" smooth="yes"/>
      <point x="22" y="394.001" type="line"/>
      <point x="22" y="497.001" type="line"/>
      <point x="372" y="497" type="line" smooth="yes"/>
      <point x="405.565" y="497"/>
      <point x="425" y="480.913"/>
      <point x="425" y="444" type="curve" smooth="yes"/>
      <point x="425" y="253.001" type="line"/>
      <point x="168" y="253" type="line" smooth="yes"/>
      <point x="151.333" y="253"/>
      <point x="146" y="245.668"/>
      <point x="146" y="231.001" type="curve" smooth="yes"/>
      <point x="146" y="133.001" type="line" smooth="yes"/>
      <point x="146" y="113.159"/>
      <point x="151.048" y="107"/>
      <point x="166.2" y="107" type="curve" smooth="yes"/>
      <point x="429" y="107.001" type="line"/>
    </contour>
  </outline>
</glyph>
<glyph name="si_DV.halant" format="1">
  <advance width="673"/>
  <outline>
    <contour>
      <point x="158.998" y="332.006" type="line" smooth="yes"/>
      <point x="146.598" y="332.006"/>
      <point x="140.001" y="326.005"/>
      <point x="140.001" y="308.005" type="curve" smooth="yes"/>
      <point x="140.001" y="-0.000976562" type="line"/>
      <point x="22" y="-0.000976562" type="line"/>
      <point x="22" y="344.009" type="line" smooth="yes"/>
      <point x="22" y="397.553"/>
      <point x="56.2471" y="435.009"/>
      <point x="108.4" y="435.009" type="curve" smooth="yes"/>
      <point x="255.002" y="435.008" type="line"/>
      <point x="202.001" y="332.005" type="line"/>
    </contour>
    <component base="si_V.halant" xOffset="157.8"/>
  </outline>
</glyph>
<glyph name="si_DdhIi" format="1">
  <advance width="515"/>
  <outline>
    <contour>
      <point x="338" y="616" type="line" smooth="yes"/>
      <point x="328" y="616"/>
      <point x="323" y="612"/>
      <point x="323" y="604" type="curve" smooth="yes"/>
      <point x="323" y="583" type="line" smooth="yes"/>
      <point x="323" y="574.333"/>
      <point x="328.333" y="570"/>
      <point x="339" y="570" type="curve" smooth="yes"/>
      <point x="380" y="570" type="line" smooth="yes"/>
      <point x="390.667" y="570"/>
      <point x="396" y="574.667"/>
      <point x="396" y="584" type="curve" smooth="yes"/>
      <point x="396" y="604" type="line" smooth="yes"/>
      <point x="396" y="612"/>
      <point x="390.333" y="616"/>
      <point x="379" y="616" type="curve" smooth="yes"/>
    </contour>
    <contour>
      <point x="191.8" y="418" type="line"/>
      <point x="82" y="418" type="line" smooth="yes"/>
      <point x="45.3535" y="418"/>
      <point x="32" y="439"/>
      <point x="32" y="469" type="curve" smooth="yes"/>
      <point x="32" y="614" type="line" smooth="yes"/>
      <point x="32" y="648.255"/>
      <point x="50.5791" y="672"/>
      <point x="95" y="672" type="curve" smooth="yes"/>
      <point x="445" y="672" type="line" smooth="yes"/>
      <point x="471.631" y="672"/>
      <point x="488" y="661.562"/>
      <point x="488" y="635" type="curve" smooth="yes"/>
      <point x="488" y="584" type="line" smooth="yes"/>
      <point x="488" y="557.302"/>
      <point x="474.291" y="547"/>
      <point x="444" y="547" type="curve" smooth="yes"/>
      <point x="260" y="546.998" type="line" smooth="yes"/>
      <point x="239.515" y="546.998"/>
      <point x="230" y="555.715"/>
      <point x="230" y="572" type="curve" smooth="yes"/>
      <point x="230" y="585" type="line"/>
      <point x="230" y="585" type="line"/>
      <point x="126" y="585" type="line" smooth="yes"/>
      <point x="108.851" y="585"/>
      <point x="104" y="575.513"/>
      <point x="104" y="561" type="curve" smooth="yes"/>
      <point x="104" y="487" type="line" smooth="yes"/>
      <point x="104" y="473.963"/>
      <point x="108.626" y="468"/>
      <point x="126" y="468" type="curve" smooth="yes"/>
      <point x="191.802" y="468" type="line"/>
    </contour>
    <contour>
      <point x="293.203" y="497.16" type="line"/>
      <point x="293.203" y="473.76" type="line" smooth="yes"/>
      <point x="293.203" y="455.352"/>
      <point x="300.605" y="455.175"/>
      <point x="314.986" y="455.175" type="curve" smooth="yes"/>
      <point x="358.199" y="455.175" type="line"/>
      <point x="358.2" y="481.161" type="line" smooth="yes"/>
      <point x="358.2" y="488.871"/>
      <point x="356.312" y="497.16"/>
      <point x="346" y="497.16" type="curve" smooth="yes"/>
    </contour>
    <contour>
      <point x="485.001" y="361.368" type="line"/>
      <point x="361" y="361.368" type="line"/>
      <point x="361" y="394.383" type="line"/>
      <point x="228.986" y="394.383" type="line" smooth="yes"/>
      <point x="195.694" y="394.383"/>
      <point x="183.203" y="405.354"/>
      <point x="183.203" y="441.769" type="curve" smooth="yes"/>
      <point x="183.203" y="498.16" type="line"/>
      <point x="137.809" y="498.16" type="line"/>
      <point x="137.809" y="558.534" type="line"/>
      <point x="419" y="558.534" type="line" smooth="yes"/>
      <point x="466.56" y="558.534"/>
      <point x="485.001" y="543.102"/>
      <point x="485.001" y="491.534" type="curve" smooth="yes"/>
    </contour>
    <contour>
      <point x="-6" y="266.367" type="line"/>
      <point x="88" y="266.367" type="line"/>
      <point x="88" y="189.773" type="line"/>
      <point x="-6" y="189.773" type="line"/>
    </contour>
    <contour>
      <point x="23" y="386.953" type="line"/>
      <point x="192" y="386.953" type="line" smooth="yes"/>
      <point x="230.669" y="386.953"/>
      <point x="264" y="370.719"/>
      <point x="264" y="332.953" type="curve" smooth="yes"/>
      <point x="264" y="183.777" type="line"/>
      <point x="169" y="183.777" type="line" smooth="yes"/>
      <point x="153.667" y="183.777"/>
      <point x="146" y="178.11"/>
      <point x="146" y="166.777" type="curve" smooth="yes"/>
      <point x="146" y="130" type="line" smooth="yes"/>
      <point x="146" y="114.667"/>
      <point x="152" y="107"/>
      <point x="164.804" y="107" type="curve" smooth="yes"/>
      <point x="181.803" y="107" type="line" smooth="yes"/>
      <point x="196" y="107"/>
      <point x="203.803" y="115.333"/>
      <point x="203.803" y="132" type="curve" smooth="yes"/>
      <point x="203.803" y="153.386" type="line"/>
      <point x="303.398" y="153.386" type="line"/>
      <point x="303.398" y="134" type="line" smooth="yes"/>
      <point x="303.398" y="116"/>
      <point x="311.064" y="107"/>
      <point x="326.398" y="107" type="curve" smooth="yes"/>
      <point x="343.997" y="107" type="line" smooth="yes"/>
      <point x="355.33" y="107"/>
      <point x="360.997" y="114"/>
      <point x="360.997" y="128" type="curve" smooth="yes"/>
      <point x="360.997" y="379.369" type="line"/>
      <point x="484.998" y="379.368" type="line"/>
      <point x="484.998" y="50" type="line" smooth="yes"/>
      <point x="484.998" y="19.6377"/>
      <point x="471.396" y="0"/>
      <point x="438" y="0" type="curve" smooth="yes"/>
      <point x="301.803" y="0" type="line" smooth="yes"/>
      <point x="275.803" y="0"/>
      <point x="259.469" y="12.333"/>
      <point x="252.803" y="37" type="curve"/>
      <point x="249.629" y="16.3779"/>
      <point x="229" y="0"/>
      <point x="205.803" y="0" type="curve" smooth="yes"/>
      <point x="69.998" y="0" type="line" smooth="yes"/>
      <point x="33" y="0"/>
      <point x="22" y="16.2734"/>
      <point x="22" y="54" type="curve" smooth="yes"/>
      <point x="22" y="148.777" type="line" smooth="yes"/>
      <point x="22" y="170.11"/>
      <point x="29.667" y="184.444"/>
      <point x="45" y="191.777" type="curve"/>
      <point x="61.2197" y="214.079"/>
      <point x="40.8584" y="266.371"/>
      <point x="78" y="266.371" type="curve" smooth="yes"/>
      <point x="168.05" y="266.371" type="line"/>
      <point x="168.042" y="266.599"/>
      <point x="168" y="286.168"/>
      <point x="168" y="286.168" type="curve" smooth="yes"/>
      <point x="168" y="296.168"/>
      <point x="161.333" y="301.168"/>
      <point x="148" y="301.168" type="curve" smooth="yes"/>
      <point x="23" y="301.168" type="line"/>
    </contour>
  </outline>
</glyph>
<glyph name="si_DhIi" format="1">
  <advance width="515"/>
  <outline>
    <contour>
      <point x="361" y="405" type="line"/>
      <point x="361" y="434" type="line" smooth="yes"/>
      <point x="361" y="452.191"/>
      <point x="343.683" y="464"/>
      <point x="325" y="464" type="curve" smooth="yes"/>
      <point x="65" y="464" type="line" smooth="yes"/>
      <point x="35.1571" y="464"/>
      <point x="22" y="472.771"/>
      <point x="22" y="505" type="curve" smooth="yes"/>
      <point x="22" y="618" type="line" smooth="yes"/>
      <point x="22" y="654.86"/>
      <point x="35.4108" y="672"/>
      <point x="72" y="672" type="curve" smooth="yes"/>
      <point x="435" y="672" type="line" smooth="yes"/>
      <point x="471.588" y="672"/>
      <point x="485" y="654.858"/>
      <point x="485" y="618" type="curve" smooth="yes"/>
      <point x="485" y="552" type="line" smooth="yes"/>
      <point x="485" y="529.838"/>
      <point x="468.868" y="512.774"/>
      <point x="450" y="509" type="curve"/>
      <point x="471.911" y="502.153"/>
      <point x="485" y="474.275"/>
      <point x="485" y="445" type="curve" smooth="yes"/>
      <point x="485" y="405" type="line"/>
    </contour>
    <contour>
      <point x="232" y="539" type="line"/>
      <point x="224.066" y="543.656"/>
      <point x="221" y="547.826"/>
      <point x="221" y="564" type="curve" smooth="yes"/>
      <point x="221" y="575" type="line" smooth="yes"/>
      <point x="221" y="581.855"/>
      <point x="221.142" y="584.018"/>
      <point x="224" y="587" type="curve"/>
      <point x="153" y="587" type="line" smooth="yes"/>
      <point x="141.667" y="587"/>
      <point x="136" y="582.333"/>
      <point x="136" y="573" type="curve" smooth="yes"/>
      <point x="136" y="554" type="line" smooth="yes"/>
      <point x="136" y="544"/>
      <point x="141.333" y="539"/>
      <point x="152" y="539" type="curve" smooth="yes"/>
    </contour>
    <contour>
      <point x="326" y="594" type="line" smooth="yes"/>
      <point x="317.619" y="594"/>
      <point x="313" y="588.388"/>
      <point x="313" y="581" type="curve" smooth="yes"/>
      <point x="313" y="558" type="line" smooth="yes"/>
      <point x="313" y="547.623"/>
      <point x="322.201" y="543"/>
      <point x="331" y="543" type="curve" smooth="yes"/>
      <point x="368" y="543" type="line" smooth="yes"/>
      <point x="379.682" y="543"/>
      <point x="388" y="549.518"/>
      <point x="388" y="564" type="curve" smooth="yes"/>
      <point x="388" y="582" type="line" smooth="yes"/>
      <point x="388" y="591.396"/>
      <point x="381.685" y="594"/>
      <point x="377" y="594" type="curve" smooth="yes"/>
    </contour>
    <contour>
      <point x="484.998" y="415" type="line"/>
      <point x="484.998" y="49" type="line" smooth="yes"/>
      <point x="484.998" y="16.6827"/>
      <point x="471.396" y="-4.08988e-15"/>
      <point x="438" y="0" type="curve" smooth="yes"/>
      <point x="301.803" y="0" type="line" smooth="yes"/>
      <point x="275.803" y="0"/>
      <point x="259.469" y="12.333"/>
      <point x="252.803" y="37" type="curve"/>
      <point x="249.629" y="16.3779"/>
      <point x="229.072" y="0"/>
      <point x="205.803" y="0" type="curve" smooth="yes"/>
      <point x="69" y="0" type="line" smooth="yes"/>
      <point x="37.6096" y="0"/>
      <point x="22" y="15.0176"/>
      <point x="22" y="48" type="curve" smooth="yes"/>
      <point x="22" y="361.008" type="line" smooth="yes"/>
      <point x="22" y="399.562"/>
      <point x="40.0205" y="426.008"/>
      <point x="81" y="426.008" type="curve" smooth="yes"/>
      <point x="259.197" y="426.008" type="line"/>
      <point x="259.198" y="318.407" type="line"/>
      <point x="156" y="318.407" type="line" smooth="yes"/>
      <point x="149.064" y="318.407"/>
      <point x="146.004" y="314.699"/>
      <point x="146.004" y="308.606" type="curve" smooth="yes"/>
      <point x="146.004" y="126" type="line" smooth="yes"/>
      <point x="146.004" y="113.333"/>
      <point x="152.337" y="107"/>
      <point x="165.004" y="107" type="curve" smooth="yes"/>
      <point x="181.803" y="107" type="line" smooth="yes"/>
      <point x="196.469" y="107"/>
      <point x="203.803" y="115.333"/>
      <point x="203.803" y="132" type="curve" smooth="yes"/>
      <point x="203.803" y="244.796" type="line"/>
      <point x="303.398" y="244.796" type="line"/>
      <point x="303.398" y="134" type="line" smooth="yes"/>
      <point x="303.398" y="116"/>
      <point x="311.064" y="107"/>
      <point x="326.398" y="107" type="curve" smooth="yes"/>
      <point x="343.997" y="107" type="line" smooth="yes"/>
      <point x="355.33" y="107"/>
      <point x="360.997" y="114"/>
      <point x="360.997" y="128" type="curve" smooth="yes"/>
      <point x="360.997" y="414.998" type="line"/>
    </contour>
  </outline>
</glyph>
<glyph name="si_FU" format="1">
  <advance width="564"/>
  <outline>
    <contour>
      <point x="534" y="-159" type="line"/>
      <point x="24.7168" y="-159" type="line"/>
      <point x="24.7168" y="-53" type="line"/>
      <point x="411" y="-53" type="line"/>
      <point x="411" y="25" type="line"/>
      <point x="483" y="25" type="line" smooth="yes"/>
      <point x="511.667" y="25"/>
      <point x="528.667" y="38"/>
      <point x="534" y="64" type="curve"/>
    </contour>
    <component base="si_Fa"/>
  </outline>
</glyph>
<glyph name="si_HRI" format="1">
  <advance width="592"/>
  <outline>
    <contour>
      <point x="30.1904" y="511" type="line"/>
      <point x="30.1904" y="595.803" type="line" smooth="yes"/>
      <point x="30.1904" y="625.797"/>
      <point x="47.1064" y="640"/>
      <point x="74.1904" y="640" type="curve" smooth="yes"/>
      <point x="512.2" y="640" type="line" smooth="yes"/>
      <point x="537.533" y="640"/>
      <point x="553.2" y="628.565"/>
      <point x="553.2" y="597" type="curve" smooth="yes"/>
      <point x="553.2" y="511" type="line"/>
      <point x="429.195" y="511" type="line"/>
      <point x="429.195" y="528" type="line" smooth="yes"/>
      <point x="429.195" y="540.878"/>
      <point x="428.479" y="546.001"/>
      <point x="415.599" y="546.001" type="curve" smooth="yes"/>
      <point x="167.19" y="546.001" type="line" smooth="yes"/>
      <point x="155.857" y="546.001"/>
      <point x="154.195" y="540.001"/>
      <point x="154.195" y="528.001" type="curve" smooth="yes"/>
      <point x="154.195" y="511" type="line"/>
    </contour>
    <contour>
      <point x="146" y="128" type="line" smooth="yes"/>
      <point x="146" y="114"/>
      <point x="151.667" y="107"/>
      <point x="163" y="107" type="curve" smooth="yes"/>
      <point x="229" y="107" type="line" smooth="yes"/>
      <point x="248.709" y="107"/>
      <point x="249" y="111.54"/>
      <point x="249" y="132" type="curve" smooth="yes"/>
      <point x="249" y="196" type="line" smooth="yes"/>
      <point x="249" y="209.333"/>
      <point x="244" y="216"/>
      <point x="234" y="216" type="curve" smooth="yes"/>
      <point x="220" y="216" type="line"/>
      <point x="258" y="446" type="line" smooth="yes"/>
      <point x="264" y="480"/>
      <point x="288" y="497"/>
      <point x="330" y="497" type="curve" smooth="yes"/>
      <point x="495" y="497" type="line" smooth="yes"/>
      <point x="541.224" y="497"/>
      <point x="562" y="479.952"/>
      <point x="562" y="434" type="curve" smooth="yes"/>
      <point x="562" y="64" type="line" smooth="yes"/>
      <point x="562" y="15.29"/>
      <point x="548.134" y="0"/>
      <point x="499" y="0" type="curve" smooth="yes"/>
      <point x="402" y="0" type="line"/>
      <point x="402" y="107" type="line"/>
      <point x="416" y="107" type="line" smooth="yes"/>
      <point x="436.64" y="107"/>
      <point x="438" y="112.033"/>
      <point x="438" y="133" type="curve" smooth="yes"/>
      <point x="438" y="372" type="line" smooth="yes"/>
      <point x="438" y="384"/>
      <point x="432" y="390"/>
      <point x="420" y="390" type="curve" smooth="yes"/>
      <point x="384" y="390" type="line" smooth="yes"/>
      <point x="370.667" y="390"/>
      <point x="362.667" y="384.333"/>
      <point x="360" y="373" type="curve" smooth="yes"/>
      <point x="345" y="288" type="line"/>
      <point x="347.75" y="287.928" type="line" smooth="yes"/>
      <point x="362.583" y="287.538"/>
      <point x="370" y="276.896"/>
      <point x="370" y="256" type="curve" smooth="yes"/>
      <point x="370" y="60" type="line" smooth="yes"/>
      <point x="370" y="12.6074"/>
      <point x="350.6" y="0"/>
      <point x="303" y="0" type="curve" smooth="yes"/>
      <point x="70" y="0" type="line" smooth="yes"/>
      <point x="33.3613" y="0"/>
      <point x="22" y="14.0518"/>
      <point x="22" y="51" type="curve" smooth="yes"/>
      <point x="22" y="299" type="line" smooth="yes"/>
      <point x="22" y="336.333"/>
      <point x="40.333" y="355"/>
      <point x="77" y="355" type="curve" smooth="yes"/>
      <point x="106" y="355" type="line"/>
      <point x="106" y="377" type="line" smooth="yes"/>
      <point x="106" y="392.226"/>
      <point x="100.533" y="394"/>
      <point x="85" y="394" type="curve" smooth="yes"/>
      <point x="22" y="394" type="line"/>
      <point x="22" y="497" type="line"/>
      <point x="125" y="497" type="line" smooth="yes"/>
      <point x="168.332" y="497"/>
      <point x="197.001" y="474.112"/>
      <point x="197.001" y="431" type="curve" smooth="yes"/>
      <point x="197" y="253" type="line"/>
      <point x="169" y="253" type="line" smooth="yes"/>
      <point x="148.818" y="253"/>
      <point x="146" y="248.131"/>
      <point x="146" y="228" type="curve" smooth="yes"/>
    </contour>
    <component base="si_Rakar" xOffset="623.2"/>
  </outline>
</glyph>
<glyph name="si_JRa" format="1">
  <advance width="513"/>
  <outline>
    <contour>
      <point x="21.9902" y="-15.8076" type="line"/>
      <point x="21.9902" y="-114.824" type="line" smooth="yes"/>
      <point x="21.9902" y="-144.818"/>
      <point x="38.9062" y="-159.021"/>
      <point x="65.9902" y="-159.021" type="curve" smooth="yes"/>
      <point x="443.802" y="-159.021" type="line" smooth="yes"/>
      <point x="469.135" y="-159.021"/>
      <point x="484.802" y="-147.587"/>
      <point x="484.802" y="-116.021" type="curve" smooth="yes"/>
      <point x="484.802" y="-15.8076" type="line"/>
      <point x="360.797" y="-15.8076" type="line"/>
      <point x="360.797" y="-35.0098" type="line" smooth="yes"/>
      <point x="360.797" y="-47.8877"/>
      <point x="360.081" y="-53.0107"/>
      <point x="347.201" y="-53.0107" type="curve" smooth="yes"/>
      <point x="158.99" y="-53.0107" type="line" smooth="yes"/>
      <point x="147.657" y="-53.0107"/>
      <point x="145.995" y="-47.0107"/>
      <point x="145.995" y="-35.0107" type="curve" smooth="yes"/>
      <point x="145.995" y="-15.8076" type="line"/>
    </contour>
    <component base="si_Ja"/>
  </outline>
</glyph>
<glyph name="si_Ja.reph" format="1">
  <advance width="513"/>
  <outline>
    <contour>
      <point x="154.405" y="618" type="line"/>
      <point x="212.405" y="618" type="line"/>
      <point x="212.405" y="552" type="line" smooth="yes"/>
      <point x="212.405" y="524.822"/>
      <point x="200.914" y="515"/>
      <point x="181.405" y="515" type="curve" smooth="yes"/>
      <point x="63.1992" y="515" type="line" smooth="yes"/>
      <point x="36.7305" y="515"/>
      <point x="23.1992" y="528.896"/>
      <point x="23.1992" y="561" type="curve" smooth="yes"/>
      <point x="23.1992" y="659" type="line" smooth="yes"/>
      <point x="23.1992" y="687.736"/>
      <point x="40.4482" y="707"/>
      <point x="77.1992" y="707" type="curve" smooth="yes"/>
      <point x="286.8" y="707" type="line" smooth="yes"/>
      <point x="320.245" y="707"/>
      <point x="337.8" y="690.179"/>
      <point x="337.8" y="651" type="curve" smooth="yes"/>
      <point x="337.8" y="518" type="line"/>
      <point x="240.199" y="518" type="line"/>
      <point x="240.199" y="620" type="line" smooth="yes"/>
      <point x="240.199" y="635.333"/>
      <point x="234.866" y="643"/>
      <point x="224.199" y="643" type="curve" smooth="yes"/>
      <point x="143.033" y="643" type="line" smooth="yes"/>
      <point x="132.366" y="643"/>
      <point x="127.033" y="638.667"/>
      <point x="127.033" y="630" type="curve" smooth="yes"/>
      <point x="127.033" y="602" type="line" smooth="yes"/>
      <point x="127.033" y="593.333"/>
      <point x="130.753" y="589"/>
      <point x="139.033" y="589" type="curve" smooth="yes"/>
      <point x="141.614" y="589" type="line" smooth="yes"/>
      <point x="152.879" y="589"/>
      <point x="154.405" y="594.333"/>
      <point x="154.405" y="605" type="curve" smooth="yes"/>
    </contour>
    <component base="si_Ja"/>
  </outline>
</glyph>
<glyph name="si_JhIi" format="1">
  <advance width="912"/>
  <outline>
    <contour>
      <point x="756.999" y="405" type="line"/>
      <point x="756.999" y="434" type="line" smooth="yes"/>
      <point x="756.999" y="452.19"/>
      <point x="739.682" y="464"/>
      <point x="720.999" y="464" type="curve" smooth="yes"/>
      <point x="460.999" y="464" type="line" smooth="yes"/>
      <point x="431.156" y="464"/>
      <point x="417.999" y="472.771"/>
      <point x="417.999" y="505" type="curve" smooth="yes"/>
      <point x="417.999" y="618" type="line" smooth="yes"/>
      <point x="417.999" y="654.859"/>
      <point x="431.41" y="672"/>
      <point x="467.999" y="672" type="curve" smooth="yes"/>
      <point x="830.999" y="672" type="line" smooth="yes"/>
      <point x="867.587" y="672"/>
      <point x="880.999" y="654.858"/>
      <point x="880.999" y="618" type="curve" smooth="yes"/>
      <point x="880.999" y="552" type="line" smooth="yes"/>
      <point x="880.999" y="529.838"/>
      <point x="864.867" y="512.773"/>
      <point x="845.999" y="509" type="curve"/>
      <point x="867.91" y="502.152"/>
      <point x="880.999" y="474.274"/>
      <point x="880.999" y="445" type="curve" smooth="yes"/>
      <point x="880.999" y="405" type="line"/>
    </contour>
    <contour>
      <point x="627.999" y="539" type="line"/>
      <point x="620.065" y="543.655"/>
      <point x="616.999" y="547.826"/>
      <point x="616.999" y="564" type="curve" smooth="yes"/>
      <point x="616.999" y="575" type="line" smooth="yes"/>
      <point x="616.999" y="581.855"/>
      <point x="617.141" y="584.019"/>
      <point x="619.999" y="587" type="curve"/>
      <point x="548.999" y="587" type="line" smooth="yes"/>
      <point x="537.666" y="587"/>
      <point x="531.999" y="582.333"/>
      <point x="531.999" y="573" type="curve" smooth="yes"/>
      <point x="531.999" y="554" type="line" smooth="yes"/>
      <point x="531.999" y="544"/>
      <point x="537.332" y="539"/>
      <point x="547.999" y="539" type="curve" smooth="yes"/>
    </contour>
    <contour>
      <point x="721.999" y="594" type="line" smooth="yes"/>
      <point x="713.618" y="594"/>
      <point x="708.999" y="588.388"/>
      <point x="708.999" y="581" type="curve" smooth="yes"/>
      <point x="708.999" y="558" type="line" smooth="yes"/>
      <point x="708.999" y="547.623"/>
      <point x="718.2" y="543"/>
      <point x="726.999" y="543" type="curve" smooth="yes"/>
      <point x="763.999" y="543" type="line" smooth="yes"/>
      <point x="775.682" y="543"/>
      <point x="783.999" y="549.519"/>
      <point x="783.999" y="564" type="curve" smooth="yes"/>
      <point x="783.999" y="582" type="line" smooth="yes"/>
      <point x="783.999" y="591.396"/>
      <point x="777.684" y="594"/>
      <point x="772.999" y="594" type="curve" smooth="yes"/>
    </contour>
    <contour>
      <point x="880.998" y="415" type="line"/>
      <point x="880.998" y="49" type="line" smooth="yes"/>
      <point x="880.998" y="16.6826"/>
      <point x="867.396" y="0"/>
      <point x="834" y="0" type="curve" smooth="yes"/>
      <point x="697.803" y="0" type="line" smooth="yes"/>
      <point x="671.803" y="0"/>
      <point x="655.469" y="12.333"/>
      <point x="648.803" y="37" type="curve"/>
      <point x="645.629" y="16.3779"/>
      <point x="625.072" y="0"/>
      <point x="601.803" y="0" type="curve" smooth="yes"/>
      <point x="465" y="0" type="line" smooth="yes"/>
      <point x="433.609" y="0"/>
      <point x="418" y="15.0176"/>
      <point x="418" y="48" type="curve" smooth="yes"/>
      <point x="418" y="326.606" type="line" smooth="yes"/>
      <point x="418" y="365.161"/>
      <point x="436.021" y="391.606"/>
      <point x="477" y="391.606" type="curve" smooth="yes"/>
      <point x="598.999" y="391.606" type="line"/>
      <point x="599" y="284.006" type="line"/>
      <point x="552" y="284.006" type="line" smooth="yes"/>
      <point x="545.064" y="284.006"/>
      <point x="542.004" y="280.298"/>
      <point x="542.004" y="274.205" type="curve" smooth="yes"/>
      <point x="542.004" y="126" type="line" smooth="yes"/>
      <point x="542.004" y="113.333"/>
      <point x="548.337" y="107"/>
      <point x="561.004" y="107" type="curve" smooth="yes"/>
      <point x="577.803" y="107" type="line" smooth="yes"/>
      <point x="592.469" y="107"/>
      <point x="599.803" y="115.333"/>
      <point x="599.803" y="132" type="curve" smooth="yes"/>
      <point x="599.803" y="244.796" type="line"/>
      <point x="699.398" y="244.796" type="line"/>
      <point x="699.398" y="134" type="line" smooth="yes"/>
      <point x="699.398" y="116"/>
      <point x="707.064" y="107"/>
      <point x="722.398" y="107" type="curve" smooth="yes"/>
      <point x="739.997" y="107" type="line" smooth="yes"/>
      <point x="751.33" y="107"/>
      <point x="756.997" y="114"/>
      <point x="756.997" y="128" type="curve" smooth="yes"/>
      <point x="756.997" y="414.998" type="line"/>
    </contour>
    <contour>
      <point x="275.4" y="243" type="line" smooth="yes"/>
      <point x="275.4" y="255.665"/>
      <point x="270.4" y="262"/>
      <point x="260.4" y="262" type="curve" smooth="yes"/>
      <point x="145" y="262" type="line"/>
      <point x="115.399" y="236" type="line"/>
      <point x="143.793" y="236" type="line"/>
      <point x="143.996" y="222" type="line"/>
      <point x="138.511" y="218.224"/>
      <point x="131.996" y="204.954"/>
      <point x="131.996" y="180.803" type="curve" smooth="yes"/>
      <point x="131.996" y="127" type="line" smooth="yes"/>
      <point x="131.996" y="109.666"/>
      <point x="134.656" y="107"/>
      <point x="145.996" y="107" type="curve" smooth="yes"/>
      <point x="154.397" y="107" type="line" smooth="yes"/>
      <point x="167.482" y="107"/>
      <point x="169.397" y="112.667"/>
      <point x="169.397" y="124.001" type="curve" smooth="yes"/>
      <point x="169.397" y="188" type="line"/>
      <point x="237.397" y="188" type="line"/>
      <point x="237.397" y="126" type="line" smooth="yes"/>
      <point x="237.397" y="111.333"/>
      <point x="240.106" y="107"/>
      <point x="251.397" y="107" type="curve" smooth="yes"/>
      <point x="262.4" y="107" type="line" smooth="yes"/>
      <point x="272.605" y="107"/>
      <point x="275.4" y="111.803"/>
      <point x="275.4" y="129.802" type="curve" smooth="yes"/>
    </contour>
    <contour>
      <point x="11.9971" y="276.397" type="line"/>
      <point x="11.9971" y="276.397"/>
      <point x="87.4082" y="342.001"/>
      <point x="130.608" y="380.401" type="curve"/>
      <point x="130.608" y="381.999" type="line" smooth="yes"/>
      <point x="130.608" y="391.229"/>
      <point x="119.919" y="393.972"/>
      <point x="107.012" y="394.002" type="curve" smooth="yes"/>
      <point x="22" y="394.201" type="line"/>
      <point x="22" y="497.201" type="line"/>
      <point x="185.409" y="497.001" type="line" smooth="yes"/>
      <point x="217.092" y="496.963"/>
      <point x="221.005" y="469.791"/>
      <point x="221.005" y="461.599" type="curve" smooth="yes"/>
      <point x="221.005" y="459.398" type="line"/>
      <point x="243.6" y="475.202" type="line" smooth="yes"/>
      <point x="267.183" y="490.383"/>
      <point x="280.128" y="491.401"/>
      <point x="301" y="491.401" type="curve" smooth="yes"/>
      <point x="308.069" y="491.401"/>
      <point x="335.533" y="486.575"/>
      <point x="351" y="481" type="curve" smooth="yes"/>
      <point x="598.999" y="391.606" type="line"/>
      <point x="433" y="350" type="line" smooth="yes"/>
      <point x="343" y="382.198" type="line" smooth="yes"/>
      <point x="331.382" y="386.588"/>
      <point x="315.375" y="391.201"/>
      <point x="309" y="391.201" type="curve" smooth="yes"/>
      <point x="296.886" y="391.201"/>
      <point x="292.494" y="390.784"/>
      <point x="276.198" y="376.592" type="curve" smooth="yes"/>
      <point x="251.407" y="355.001" type="line"/>
      <point x="331.4" y="355.001" type="line" smooth="yes"/>
      <point x="363.213" y="355.001"/>
      <point x="384.4" y="337.696"/>
      <point x="384.4" y="298.001" type="curve" smooth="yes"/>
      <point x="384.4" y="51.001" type="line" smooth="yes"/>
      <point x="384.4" y="14.9551"/>
      <point x="361.045" y="0.000976562"/>
      <point x="331.4" y="0.000976562" type="curve" smooth="yes"/>
      <point x="241.397" y="0.000976562" type="line" smooth="yes"/>
      <point x="222.438" y="0.000976562"/>
      <point x="209.064" y="9.66797"/>
      <point x="204.397" y="29.002" type="curve"/>
      <point x="199.73" y="9.66797"/>
      <point x="183.09" y="0.000976562"/>
      <point x="165.397" y="0.000976562" type="curve" smooth="yes"/>
      <point x="65.9961" y="0.000976562" type="line" smooth="yes"/>
      <point x="34.1328" y="0.000976562"/>
      <point x="22" y="19.8174"/>
      <point x="22" y="50.002" type="curve" smooth="yes"/>
      <point x="22" y="140.201" type="line" smooth="yes"/>
      <point x="22" y="180.996"/>
      <point x="34.2734" y="195.266"/>
      <point x="48" y="203.002" type="curve"/>
      <point x="11.9971" y="203.002" type="line"/>
    </contour>
  </outline>
</glyph>
<glyph name="si_JhRIi" format="1">
  <advance width="911"/>
  <outline>
    <contour>
      <point x="419.382" y="-15.8076" type="line"/>
      <point x="419.382" y="-114.824" type="line" smooth="yes"/>
      <point x="419.382" y="-144.818"/>
      <point x="436.298" y="-159.021"/>
      <point x="463.382" y="-159.021" type="curve" smooth="yes"/>
      <point x="839.792" y="-159.021" type="line" smooth="yes"/>
      <point x="865.125" y="-159.021"/>
      <point x="880.792" y="-147.587"/>
      <point x="880.792" y="-116.021" type="curve" smooth="yes"/>
      <point x="880.792" y="-15.8076" type="line"/>
      <point x="756.787" y="-15.8076" type="line"/>
      <point x="756.787" y="-35.0098" type="line" smooth="yes"/>
      <point x="756.787" y="-47.8877"/>
      <point x="756.071" y="-53.0107"/>
      <point x="743.191" y="-53.0107" type="curve" smooth="yes"/>
      <point x="556.382" y="-53.0107" type="line" smooth="yes"/>
      <point x="545.049" y="-53.0107"/>
      <point x="543.387" y="-47.0107"/>
      <point x="543.387" y="-35.0107" type="curve" smooth="yes"/>
      <point x="543.387" y="-15.8076" type="line"/>
    </contour>
    <component base="si_JhIi"/>
  </outline>
</glyph>
<glyph name="si_JhU.reph" format="1">
  <advance width="912"/>
  <outline>
    <contour>
      <point x="11.9971" y="276.397" type="line"/>
      <point x="11.9971" y="276.397"/>
      <point x="87.4082" y="342.001"/>
      <point x="130.608" y="380.401" type="curve"/>
      <point x="130.608" y="381.999" type="line" smooth="yes"/>
      <point x="130.608" y="391.229"/>
      <point x="119.919" y="393.972"/>
      <point x="107.012" y="394.002" type="curve" smooth="yes"/>
      <point x="22" y="394.201" type="line"/>
      <point x="22" y="497.201" type="line"/>
      <point x="185.409" y="497.001" type="line" smooth="yes"/>
      <point x="217.092" y="496.963"/>
      <point x="221.005" y="469.791"/>
      <point x="221.005" y="461.599" type="curve" smooth="yes"/>
      <point x="221.005" y="459.398" type="line"/>
      <point x="243.6" y="475.202" type="line" smooth="yes"/>
      <point x="267.183" y="490.383"/>
      <point x="280.128" y="491.401"/>
      <point x="301" y="491.401" type="curve" smooth="yes"/>
      <point x="308.069" y="491.401"/>
      <point x="335.533" y="486.575"/>
      <point x="351" y="481" type="curve" smooth="yes"/>
      <point x="598.999" y="391.606" type="line"/>
      <point x="433" y="350" type="line" smooth="yes"/>
      <point x="343" y="382.198" type="line" smooth="yes"/>
      <point x="331.382" y="386.588"/>
      <point x="315.375" y="391.201"/>
      <point x="309" y="391.201" type="curve" smooth="yes"/>
      <point x="296.886" y="391.201"/>
      <point x="292.494" y="390.784"/>
      <point x="276.198" y="376.592" type="curve" smooth="yes"/>
      <point x="251.407" y="355.001" type="line"/>
      <point x="331.4" y="355.001" type="line" smooth="yes"/>
      <point x="363.213" y="355.001"/>
      <point x="384.4" y="337.696"/>
      <point x="384.4" y="298.001" type="curve" smooth="yes"/>
      <point x="384.4" y="51.001" type="line" smooth="yes"/>
      <point x="384.4" y="14.9551"/>
      <point x="361.045" y="0.000976562"/>
      <point x="331.4" y="0.000976562" type="curve" smooth="yes"/>
      <point x="241.397" y="0.000976562" type="line" smooth="yes"/>
      <point x="222.438" y="0.000976562"/>
      <point x="209.064" y="9.66797"/>
      <point x="204.397" y="29.002" type="curve"/>
      <point x="199.73" y="9.66797"/>
      <point x="183.09" y="0.000976562"/>
      <point x="165.397" y="0.000976562" type="curve" smooth="yes"/>
      <point x="65.9961" y="0.000976562" type="line" smooth="yes"/>
      <point x="34.1328" y="0.000976562"/>
      <point x="22" y="19.8174"/>
      <point x="22" y="50.002" type="curve" smooth="yes"/>
      <point x="22" y="140.201" type="line" smooth="yes"/>
      <point x="22" y="180.996"/>
      <point x="34.2734" y="195.266"/>
      <point x="48" y="203.002" type="curve"/>
      <point x="11.9971" y="203.002" type="line"/>
    </contour>
    <contour>
      <point x="598.196" y="284.79" type="line"/>
      <point x="555.997" y="284.79" type="line" smooth="yes"/>
      <point x="549.062" y="284.79"/>
      <point x="546.001" y="281.082"/>
      <point x="546.001" y="274.989" type="curve" smooth="yes"/>
      <point x="546.001" y="126" type="line" smooth="yes"/>
      <point x="546.001" y="113.333"/>
      <point x="552.334" y="107"/>
      <point x="565.001" y="107" type="curve" smooth="yes"/>
      <point x="581.8" y="107" type="line" smooth="yes"/>
      <point x="596.466" y="107"/>
      <point x="603.8" y="115.333"/>
      <point x="603.8" y="132" type="curve" smooth="yes"/>
      <point x="603.8" y="244.796" type="line"/>
      <point x="703.396" y="244.796" type="line"/>
      <point x="703.396" y="134" type="line" smooth="yes"/>
      <point x="703.396" y="116"/>
      <point x="711.062" y="107"/>
      <point x="726.396" y="107" type="curve" smooth="yes"/>
      <point x="743.994" y="107" type="line" smooth="yes"/>
      <point x="755.327" y="107"/>
      <point x="760.994" y="114"/>
      <point x="760.994" y="128" type="curve" smooth="yes"/>
      <point x="760.994" y="426" type="line" smooth="yes"/>
      <point x="760.994" y="450.852"/>
      <point x="753.881" y="457"/>
      <point x="729.997" y="457" type="curve" smooth="yes"/>
      <point x="448" y="457" type="line"/>
      <point x="448" y="558.6" type="line"/>
      <point x="811.997" y="558.6" type="line" smooth="yes"/>
      <point x="854.306" y="558.6"/>
      <point x="884.995" y="541.863"/>
      <point x="884.995" y="492.6" type="curve" smooth="yes"/>
      <point x="884.995" y="50" type="line" smooth="yes"/>
      <point x="884.995" y="19.6377"/>
      <point x="871.394" y="0"/>
      <point x="837.997" y="0" type="curve" smooth="yes"/>
      <point x="701.8" y="0" type="line" smooth="yes"/>
      <point x="675.8" y="0"/>
      <point x="659.466" y="12.333"/>
      <point x="652.8" y="37" type="curve"/>
      <point x="649.626" y="16.3779"/>
      <point x="629.069" y="0"/>
      <point x="605.8" y="0" type="curve" smooth="yes"/>
      <point x="468.997" y="0" type="line" smooth="yes"/>
      <point x="437.606" y="0"/>
      <point x="421.997" y="15.0176"/>
      <point x="421.997" y="48" type="curve" smooth="yes"/>
      <point x="421.997" y="327.391" type="line" smooth="yes"/>
      <point x="421.997" y="365.945"/>
      <point x="440.018" y="392.391"/>
      <point x="480.997" y="392.391" type="curve" smooth="yes"/>
      <point x="598.195" y="392.391" type="line"/>
    </contour>
    <contour>
      <point x="631.178" y="628" type="line"/>
      <point x="715.387" y="628" type="line"/>
      <point x="715.387" y="590.188" type="line" smooth="yes"/>
      <point x="715.387" y="563.011"/>
      <point x="703.896" y="553.188"/>
      <point x="684.387" y="553.188" type="curve" smooth="yes"/>
      <point x="512.387" y="553.188" type="line" smooth="yes"/>
      <point x="485.917" y="553.188"/>
      <point x="472.387" y="567.084"/>
      <point x="472.387" y="599.188" type="curve" smooth="yes"/>
      <point x="472.387" y="669" type="line" smooth="yes"/>
      <point x="472.387" y="697.736"/>
      <point x="489.636" y="717"/>
      <point x="526.387" y="717" type="curve" smooth="yes"/>
      <point x="811.387" y="717" type="line" smooth="yes"/>
      <point x="844.832" y="717"/>
      <point x="862.387" y="700.164"/>
      <point x="862.387" y="661" type="curve" smooth="yes"/>
      <point x="862.387" y="575.198" type="line"/>
      <point x="749.387" y="575.198" type="line"/>
      <point x="749.387" y="630" type="line" smooth="yes"/>
      <point x="749.387" y="645.321"/>
      <point x="744.054" y="653"/>
      <point x="733.387" y="653" type="curve" smooth="yes"/>
      <point x="600.387" y="653" type="line" smooth="yes"/>
      <point x="589.72" y="653"/>
      <point x="584.387" y="648.667"/>
      <point x="584.387" y="640" type="curve" smooth="yes"/>
      <point x="584.387" y="612" type="line" smooth="yes"/>
      <point x="584.387" y="603.333"/>
      <point x="588.106" y="599"/>
      <point x="596.387" y="599" type="curve" smooth="yes"/>
      <point x="618.387" y="599" type="line" smooth="yes"/>
      <point x="629.651" y="599"/>
      <point x="631.178" y="604.333"/>
      <point x="631.178" y="615" type="curve" smooth="yes"/>
    </contour>
    <contour>
      <point x="275.4" y="243" type="line" smooth="yes"/>
      <point x="275.4" y="255.665"/>
      <point x="270.4" y="262"/>
      <point x="260.4" y="262" type="curve" smooth="yes"/>
      <point x="145" y="262" type="line"/>
      <point x="115.399" y="236" type="line"/>
      <point x="143.793" y="236" type="line"/>
      <point x="143.996" y="222" type="line"/>
      <point x="138.511" y="218.224"/>
      <point x="131.996" y="204.954"/>
      <point x="131.996" y="180.803" type="curve" smooth="yes"/>
      <point x="131.996" y="127" type="line" smooth="yes"/>
      <point x="131.996" y="109.666"/>
      <point x="134.656" y="107"/>
      <point x="145.996" y="107" type="curve" smooth="yes"/>
      <point x="154.397" y="107" type="line" smooth="yes"/>
      <point x="167.482" y="107"/>
      <point x="169.397" y="112.667"/>
      <point x="169.397" y="124.001" type="curve" smooth="yes"/>
      <point x="169.397" y="188" type="line"/>
      <point x="237.397" y="188" type="line"/>
      <point x="237.397" y="126" type="line" smooth="yes"/>
      <point x="237.397" y="111.333"/>
      <point x="240.106" y="107"/>
      <point x="251.397" y="107" type="curve" smooth="yes"/>
      <point x="262.4" y="107" type="line" smooth="yes"/>
      <point x="272.605" y="107"/>
      <point x="275.4" y="111.803"/>
      <point x="275.4" y="129.802" type="curve" smooth="yes"/>
    </contour>
    <contour>
      <point x="884.888" y="-159" type="line"/>
      <point x="423.994" y="-159" type="line"/>
      <point x="423.994" y="-53" type="line"/>
      <point x="761.888" y="-53" type="line"/>
      <point x="761.888" y="28.6035" type="line"/>
      <point x="833.888" y="28.6035" type="line" smooth="yes"/>
      <point x="862.555" y="28.6035"/>
      <point x="879.555" y="41.6035"/>
      <point x="884.888" y="67.6035" type="curve"/>
    </contour>
  </outline>
</glyph>
<glyph name="si_Ll.halant" format="1">
  <advance width="553"/>
  <outline>
    <contour>
      <point x="398.598" y="492.396" type="line"/>
      <point x="398.598" y="649" type="line"/>
      <point x="522.8" y="649" type="line"/>
      <point x="522.8" y="426" type="line"/>
      <point x="518.133" y="433.333"/>
      <point x="502.718" y="462.636"/>
      <point x="490.8" y="470.791" type="curve" smooth="yes"/>
      <point x="478.344" y="479.315"/>
      <point x="459.302" y="492.396"/>
      <point x="433.8" y="492.396" type="curve" smooth="yes"/>
    </contour>
    <component base="si_Lla"/>
  </outline>
</glyph>
<glyph name="si_Ma.reph" format="1">
  <advance width="515"/>
  <outline>
    <contour>
      <point x="133.999" y="249.595" type="line"/>
      <point x="185.196" y="249.597" type="line" smooth="yes"/>
      <point x="195.196" y="249.598"/>
      <point x="199.794" y="253.396"/>
      <point x="199.794" y="263.396" type="curve" smooth="yes"/>
      <point x="199.792" y="300.999" type="line" smooth="yes"/>
      <point x="199.792" y="312.487"/>
      <point x="194.791" y="317.398"/>
      <point x="183.791" y="317.398" type="curve" smooth="yes"/>
      <point x="163.797" y="317.398" type="line" smooth="yes"/>
      <point x="149.797" y="317.398"/>
      <point x="146" y="311.065"/>
      <point x="146" y="298.398" type="curve" smooth="yes"/>
      <point x="146" y="129" type="line" smooth="yes"/>
      <point x="146" y="114.333"/>
      <point x="152" y="107"/>
      <point x="164" y="107" type="curve" smooth="yes"/>
      <point x="343" y="107" type="line" smooth="yes"/>
      <point x="355" y="107"/>
      <point x="361" y="114.333"/>
      <point x="361" y="129" type="curve" smooth="yes"/>
      <point x="361" y="363.797" type="line"/>
      <point x="485" y="363.797" type="line"/>
      <point x="485" y="59" type="line" smooth="yes"/>
      <point x="485" y="21.2705"/>
      <point x="466.075" y="0"/>
      <point x="429" y="0" type="curve" smooth="yes"/>
      <point x="75" y="0" type="line" smooth="yes"/>
      <point x="37.9287" y="0"/>
      <point x="22" y="19.2734"/>
      <point x="22" y="57" type="curve" smooth="yes"/>
      <point x="22" y="360.797" type="line" smooth="yes"/>
      <point x="22" y="397.464"/>
      <point x="45.6709" y="418.798"/>
      <point x="83" y="418.798" type="curve" smooth="yes"/>
      <point x="258.196" y="418.798" type="line" smooth="yes"/>
      <point x="294.453" y="418.798"/>
      <point x="317.196" y="405.119"/>
      <point x="317.196" y="367.797" type="curve" smooth="yes"/>
      <point x="317.197" y="207.394" type="line" smooth="yes"/>
      <point x="317.197" y="168.376"/>
      <point x="303.052" y="149.991"/>
      <point x="265.196" y="149.991" type="curve" smooth="yes"/>
      <point x="134" y="149.99" type="line"/>
    </contour>
    <contour>
      <point x="213.593" y="628" type="line"/>
      <point x="297.802" y="628" type="line"/>
      <point x="297.802" y="590.188" type="line" smooth="yes"/>
      <point x="297.802" y="563.011"/>
      <point x="286.311" y="553.188"/>
      <point x="266.802" y="553.188" type="curve" smooth="yes"/>
      <point x="94.8018" y="553.188" type="line" smooth="yes"/>
      <point x="68.332" y="553.188"/>
      <point x="54.8018" y="567.084"/>
      <point x="54.8018" y="599.188" type="curve" smooth="yes"/>
      <point x="54.8018" y="669" type="line" smooth="yes"/>
      <point x="54.8018" y="697.736"/>
      <point x="72.0508" y="717"/>
      <point x="108.802" y="717" type="curve" smooth="yes"/>
      <point x="393.802" y="717" type="line" smooth="yes"/>
      <point x="427.247" y="717"/>
      <point x="444.802" y="700.164"/>
      <point x="444.802" y="661" type="curve" smooth="yes"/>
      <point x="444.802" y="575.198" type="line"/>
      <point x="331.802" y="575.198" type="line"/>
      <point x="331.802" y="630" type="line" smooth="yes"/>
      <point x="331.802" y="645.321"/>
      <point x="326.469" y="653"/>
      <point x="315.802" y="653" type="curve" smooth="yes"/>
      <point x="182.802" y="653" type="line" smooth="yes"/>
      <point x="172.135" y="653"/>
      <point x="166.802" y="648.667"/>
      <point x="166.802" y="640" type="curve" smooth="yes"/>
      <point x="166.802" y="612" type="line" smooth="yes"/>
      <point x="166.802" y="603.333"/>
      <point x="170.521" y="599"/>
      <point x="178.802" y="599" type="curve" smooth="yes"/>
      <point x="200.802" y="599" type="line" smooth="yes"/>
      <point x="212.066" y="599"/>
      <point x="213.593" y="604.333"/>
      <point x="213.593" y="615" type="curve" smooth="yes"/>
    </contour>
    <contour>
      <point x="416" y="560.184" type="line" smooth="yes"/>
      <point x="471" y="560.184"/>
      <point x="485" y="535.87"/>
      <point x="485" y="479.184" type="curve" smooth="yes"/>
      <point x="485" y="348.797" type="line"/>
      <point x="361" y="348.797" type="line"/>
      <point x="361" y="429.785" type="line" smooth="yes"/>
      <point x="361" y="448.134"/>
      <point x="354.062" y="452.785"/>
      <point x="335" y="452.785" type="curve" smooth="yes"/>
      <point x="22" y="452.785" type="line"/>
      <point x="22" y="560.184" type="line"/>
    </contour>
  </outline>
</glyph>
<glyph name="si_NDRIi" format="1">
  <advance width="853"/>
  <outline>
    <contour>
      <point x="691.219" y="582.198" type="line" smooth="yes"/>
      <point x="681.219" y="582.198"/>
      <point x="676.219" y="578.198"/>
      <point x="676.219" y="570.198" type="curve" smooth="yes"/>
      <point x="676.219" y="562.011" type="line" smooth="yes"/>
      <point x="676.219" y="553.344"/>
      <point x="681.552" y="549.011"/>
      <point x="692.219" y="549.011" type="curve" smooth="yes"/>
      <point x="714" y="549.011" type="line" smooth="yes"/>
      <point x="724.667" y="549.011"/>
      <point x="730" y="553.678"/>
      <point x="730" y="563.011" type="curve" smooth="yes"/>
      <point x="730" y="570.198" type="line" smooth="yes"/>
      <point x="730" y="578.198"/>
      <point x="724.333" y="582.198"/>
      <point x="713" y="582.198" type="curve" smooth="yes"/>
    </contour>
    <contour>
      <point x="558.992" y="553.809" type="line" smooth="yes"/>
      <point x="548.002" y="553.808"/>
      <point x="545.997" y="547.809"/>
      <point x="545.997" y="535.809" type="curve" smooth="yes"/>
      <point x="545.997" y="511" type="line"/>
      <point x="421.992" y="511" type="line"/>
      <point x="421.992" y="595.803" type="line" smooth="yes"/>
      <point x="421.992" y="625.797"/>
      <point x="438.212" y="640.011"/>
      <point x="465.202" y="640.011" type="curve" smooth="yes"/>
      <point x="780.001" y="640.012" type="line" smooth="yes"/>
      <point x="807.48" y="640.012"/>
      <point x="822" y="626.66"/>
      <point x="822" y="600" type="curve" smooth="yes"/>
      <point x="822" y="540.996" type="line" smooth="yes"/>
      <point x="822" y="521"/>
      <point x="811.998" y="510.996"/>
      <point x="792" y="510.996" type="curve" smooth="yes"/>
      <point x="611.219" y="510.994" type="line" smooth="yes"/>
      <point x="587.943" y="510.994"/>
      <point x="583.219" y="520.251"/>
      <point x="583.219" y="531.996" type="curve" smooth="yes"/>
      <point x="583.219" y="545.801" type="line" smooth="yes"/>
      <point x="583.219" y="550.332"/>
      <point x="584.036" y="552.81"/>
      <point x="585.618" y="553.801" type="curve"/>
    </contour>
    <component base="si_NDRa"/>
  </outline>
</glyph>
<glyph name="si_NDU" format="1">
  <advance width="853"/>
  <outline>
    <contour>
      <point x="266" y="418" type="line"/>
      <point x="176" y="311" type="line"/>
      <point x="176" y="373.5" type="line" smooth="yes"/>
      <point x="176" y="387.167"/>
      <point x="168.333" y="394"/>
      <point x="153" y="394" type="curve" smooth="yes"/>
      <point x="22" y="394" type="line"/>
      <point x="22" y="497" type="line"/>
      <point x="195" y="497" type="line" smooth="yes"/>
      <point x="238.332" y="497"/>
      <point x="266" y="474.112"/>
      <point x="266" y="431" type="curve" smooth="yes"/>
    </contour>
    <contour>
      <point x="212" y="223" type="line"/>
      <point x="292" y="314.56" type="line"/>
      <point x="336.414" y="314.5" type="line" smooth="yes"/>
      <point x="371.416" y="314.431"/>
      <point x="384.414" y="299.698"/>
      <point x="384.414" y="266.572" type="curve" smooth="yes"/>
      <point x="384.414" y="60" type="line" smooth="yes"/>
      <point x="384.414" y="12.6074"/>
      <point x="365.014" y="0"/>
      <point x="317.414" y="0" type="curve" smooth="yes"/>
      <point x="70" y="0" type="line" smooth="yes"/>
      <point x="33.3613" y="0"/>
      <point x="22" y="14.0518"/>
      <point x="22" y="51" type="curve" smooth="yes"/>
      <point x="22" y="341.25" type="line"/>
      <point x="136.5" y="341.25" type="line"/>
      <point x="136.5" y="278.799" type="line"/>
      <point x="144.5" y="160.803" type="line"/>
      <point x="144.5" y="125.25" type="line" smooth="yes"/>
      <point x="144.5" y="111.04"/>
      <point x="147.677" y="107"/>
      <point x="161.5" y="107" type="curve" smooth="yes"/>
      <point x="243.414" y="107" type="line" smooth="yes"/>
      <point x="263.123" y="107"/>
      <point x="263.414" y="111.54"/>
      <point x="263.414" y="132" type="curve" smooth="yes"/>
      <point x="263.414" y="203" type="line" smooth="yes"/>
      <point x="263.414" y="216.333"/>
      <point x="258.414" y="223"/>
      <point x="248.414" y="223" type="curve" smooth="yes"/>
    </contour>
    <contour>
      <point x="150.25" y="151.324" type="curve" smooth="yes"/>
      <point x="140.75" y="151.324"/>
      <point x="136" y="153.566"/>
      <point x="136" y="158.053" type="curve"/>
      <point x="134" y="298.147" type="line"/>
      <point x="137.068" y="296.313"/>
      <point x="139.318" y="295.396"/>
      <point x="140.75" y="295.396" type="curve" smooth="yes"/>
      <point x="143.446" y="295.396"/>
      <point x="146.194" y="297.065"/>
      <point x="149" y="300.397" type="curve" smooth="yes"/>
      <point x="274.199" y="450" type="line" smooth="yes"/>
      <point x="301.946" y="483.155"/>
      <point x="323.471" y="497"/>
      <point x="356" y="497" type="curve" smooth="yes"/>
      <point x="431.998" y="497" type="line"/>
      <point x="432" y="393.999" type="line"/>
      <point x="398" y="394" type="line" smooth="yes"/>
      <point x="378.403" y="394"/>
      <point x="372.184" y="386.479"/>
      <point x="360" y="373" type="curve" smooth="yes"/>
      <point x="170" y="162.803" type="line" smooth="yes"/>
      <point x="163.174" y="155.251"/>
      <point x="156.698" y="151.324"/>
    </contour>
    <component base="si_DU" xOffset="394"/>
  </outline>
</glyph>
<glyph name="si_NThIi" format="1">
  <advance width="918"/>
  <outline>
    <contour>
      <point x="212" y="223" type="line"/>
      <point x="292" y="314.56" type="line"/>
      <point x="336.414" y="314.5" type="line" smooth="yes"/>
      <point x="371.416" y="314.431"/>
      <point x="384.414" y="299.698"/>
      <point x="384.414" y="266.572" type="curve" smooth="yes"/>
      <point x="384.414" y="60" type="line" smooth="yes"/>
      <point x="384.414" y="12.6074"/>
      <point x="365.014" y="0"/>
      <point x="317.414" y="0" type="curve" smooth="yes"/>
      <point x="70" y="0" type="line" smooth="yes"/>
      <point x="33.3613" y="0"/>
      <point x="22" y="14.0518"/>
      <point x="22" y="51" type="curve" smooth="yes"/>
      <point x="22" y="341.25" type="line"/>
      <point x="136.5" y="341.25" type="line"/>
      <point x="136.5" y="278.799" type="line"/>
      <point x="144.5" y="160.803" type="line"/>
      <point x="144.5" y="125.25" type="line" smooth="yes"/>
      <point x="144.5" y="111.04"/>
      <point x="147.677" y="107"/>
      <point x="161.5" y="107" type="curve" smooth="yes"/>
      <point x="243.414" y="107" type="line" smooth="yes"/>
      <point x="263.123" y="107"/>
      <point x="263.414" y="111.54"/>
      <point x="263.414" y="132" type="curve" smooth="yes"/>
      <point x="263.414" y="203" type="line" smooth="yes"/>
      <point x="263.414" y="216.333"/>
      <point x="258.414" y="223"/>
      <point x="248.414" y="223" type="curve" smooth="yes"/>
    </contour>
    <contour>
      <point x="656" y="621.998" type="line" smooth="yes"/>
      <point x="632.725" y="621.998"/>
      <point x="628" y="631.255"/>
      <point x="628" y="643" type="curve" smooth="yes"/>
      <point x="628" y="652" type="line" smooth="yes"/>
      <point x="628" y="656.531"/>
      <point x="628.817" y="659.009"/>
      <point x="630.399" y="660" type="curve"/>
      <point x="550" y="660" type="line" smooth="yes"/>
      <point x="534" y="660"/>
      <point x="525" y="656.56"/>
      <point x="525" y="640" type="curve" smooth="yes"/>
      <point x="525" y="532" type="line" smooth="yes"/>
      <point x="525" y="516.212"/>
      <point x="531.121" y="514"/>
      <point x="543" y="514" type="curve" smooth="yes"/>
      <point x="614.002" y="514" type="line"/>
      <point x="614" y="464" type="line"/>
      <point x="499" y="464" type="line" smooth="yes"/>
      <point x="468.015" y="464"/>
      <point x="453" y="479"/>
      <point x="453" y="509" type="curve" smooth="yes"/>
      <point x="453" y="684" type="line" smooth="yes"/>
      <point x="453" y="714.667"/>
      <point x="471" y="736"/>
      <point x="509" y="736" type="curve" smooth="yes"/>
      <point x="850.8" y="736.001" type="line" smooth="yes"/>
      <point x="873.8" y="736.001"/>
      <point x="886" y="726.334"/>
      <point x="886" y="707.001" type="curve" smooth="yes"/>
      <point x="886" y="652" type="line" smooth="yes"/>
      <point x="886" y="632"/>
      <point x="875.998" y="622"/>
      <point x="856" y="622" type="curve" smooth="yes"/>
    </contour>
    <contour>
      <point x="656.198" y="287.399" type="line"/>
      <point x="569.198" y="287.399" type="line" smooth="yes"/>
      <point x="555.198" y="287.399"/>
      <point x="548.198" y="281.066"/>
      <point x="548.198" y="268.399" type="curve" smooth="yes"/>
      <point x="548.198" y="129" type="line" smooth="yes"/>
      <point x="548.198" y="114.333"/>
      <point x="554.198" y="107"/>
      <point x="566.198" y="107" type="curve" smooth="yes"/>
      <point x="744.397" y="107" type="line" smooth="yes"/>
      <point x="756.397" y="107"/>
      <point x="762.397" y="114.333"/>
      <point x="762.397" y="129" type="curve" smooth="yes"/>
      <point x="762.397" y="415" type="line"/>
      <point x="887.198" y="415" type="line"/>
      <point x="887.198" y="54" type="line" smooth="yes"/>
      <point x="887.198" y="16.2705"/>
      <point x="874.273" y="0"/>
      <point x="837.198" y="0" type="curve" smooth="yes"/>
      <point x="474.198" y="0" type="line" smooth="yes"/>
      <point x="437.126" y="0"/>
      <point x="424.198" y="16.2734"/>
      <point x="424.198" y="54" type="curve" smooth="yes"/>
      <point x="424.198" y="339.001" type="line" smooth="yes"/>
      <point x="424.198" y="375.668"/>
      <point x="442.865" y="394.001"/>
      <point x="480.198" y="394.001" type="curve" smooth="yes"/>
      <point x="656.196" y="394.001" type="line"/>
    </contour>
    <contour>
      <point x="150.25" y="151.324" type="curve" smooth="yes"/>
      <point x="140.75" y="151.324"/>
      <point x="136" y="153.566"/>
      <point x="136" y="158.053" type="curve"/>
      <point x="134" y="298.147" type="line"/>
      <point x="137.068" y="296.313"/>
      <point x="139.318" y="295.396"/>
      <point x="140.75" y="295.396" type="curve" smooth="yes"/>
      <point x="143.446" y="295.396"/>
      <point x="146.205" y="297.057"/>
      <point x="149" y="300.397" type="curve" smooth="yes"/>
      <point x="280" y="457" type="line" smooth="yes"/>
      <point x="290.833" y="469.95"/>
      <point x="305.56" y="478.152"/>
      <point x="316" y="481.4" type="curve" smooth="yes"/>
      <point x="326.574" y="484.689"/>
      <point x="338.864" y="485.594"/>
      <point x="350" y="485.6" type="curve" smooth="yes"/>
      <point x="358.007" y="485.604"/>
      <point x="380.364" y="484.212"/>
      <point x="405" y="476" type="curve" smooth="yes"/>
      <point x="651.601" y="394" type="line"/>
      <point x="425" y="351" type="line"/>
      <point x="402" y="359" type="line" smooth="yes"/>
      <point x="394.096" y="361.749"/>
      <point x="376.409" y="366.587"/>
      <point x="366" y="366" type="curve" smooth="yes"/>
      <point x="359.214" y="365.617"/>
      <point x="348.178" y="362.149"/>
      <point x="340" y="353" type="curve" smooth="yes"/>
      <point x="170" y="162.803" type="line" smooth="yes"/>
      <point x="163.216" y="155.212"/>
      <point x="156.698" y="151.324"/>
    </contour>
    <contour>
      <point x="887.199" y="394" type="line"/>
      <point x="762.397" y="394" type="line"/>
      <point x="762.397" y="427.015" type="line"/>
      <point x="648.986" y="427.015" type="line" smooth="yes"/>
      <point x="615.694" y="427.015"/>
      <point x="603.203" y="437.986"/>
      <point x="603.203" y="474.4" type="curve" smooth="yes"/>
      <point x="603.203" y="539" type="line"/>
      <point x="557.809" y="539" type="line"/>
      <point x="557.809" y="626" type="line"/>
      <point x="821.198" y="626" type="line" smooth="yes"/>
      <point x="868.758" y="626"/>
      <point x="887.199" y="610.567"/>
      <point x="887.199" y="559" type="curve" smooth="yes"/>
    </contour>
    <contour>
      <point x="266" y="418" type="line"/>
      <point x="176" y="311" type="line"/>
      <point x="176" y="373.5" type="line" smooth="yes"/>
      <point x="176" y="387.167"/>
      <point x="168.333" y="394"/>
      <point x="153" y="394" type="curve" smooth="yes"/>
      <point x="22" y="394" type="line"/>
      <point x="22" y="497" type="line"/>
      <point x="195" y="497" type="line" smooth="yes"/>
      <point x="238.332" y="497"/>
      <point x="266" y="474.112"/>
      <point x="266" y="431" type="curve" smooth="yes"/>
    </contour>
    <contour>
      <point x="736" y="691" type="line" smooth="yes"/>
      <point x="726" y="691"/>
      <point x="721" y="687"/>
      <point x="721" y="679" type="curve" smooth="yes"/>
      <point x="721" y="658" type="line" smooth="yes"/>
      <point x="721" y="649.333"/>
      <point x="726.333" y="645"/>
      <point x="737" y="645" type="curve" smooth="yes"/>
      <point x="778" y="645" type="line" smooth="yes"/>
      <point x="788.667" y="645"/>
      <point x="794" y="649.667"/>
      <point x="794" y="659" type="curve" smooth="yes"/>
      <point x="794" y="679" type="line" smooth="yes"/>
      <point x="794" y="687"/>
      <point x="788.333" y="691"/>
      <point x="777" y="691" type="curve" smooth="yes"/>
    </contour>
    <contour>
      <point x="695.401" y="538" type="line"/>
      <point x="695.401" y="514.6" type="line" smooth="yes"/>
      <point x="695.401" y="496.191"/>
      <point x="702.804" y="496.015"/>
      <point x="717.185" y="496.015" type="curve" smooth="yes"/>
      <point x="760.397" y="496.015" type="line"/>
      <point x="760.398" y="522.001" type="line" smooth="yes"/>
      <point x="760.398" y="529.711"/>
      <point x="758.511" y="538"/>
      <point x="748.198" y="538" type="curve" smooth="yes"/>
    </contour>
  </outline>
</glyph>
<glyph name="si_NTha" format="1">
  <advance width="914"/>
  <outline>
    <contour>
      <point x="691.203" y="538" type="line"/>
      <point x="691.203" y="514.6" type="line" smooth="yes"/>
      <point x="691.203" y="496.191"/>
      <point x="698.605" y="496.015"/>
      <point x="712.986" y="496.015" type="curve" smooth="yes"/>
      <point x="756.199" y="496.015" type="line"/>
      <point x="756.2" y="522.001" type="line" smooth="yes"/>
      <point x="756.2" y="529.711"/>
      <point x="754.312" y="538"/>
      <point x="744" y="538" type="curve" smooth="yes"/>
    </contour>
    <contour>
      <point x="883.001" y="394" type="line"/>
      <point x="758.199" y="394" type="line"/>
      <point x="758.199" y="427.015" type="line"/>
      <point x="626.986" y="427.015" type="line" smooth="yes"/>
      <point x="593.694" y="427.015"/>
      <point x="581.203" y="437.986"/>
      <point x="581.203" y="474.4" type="curve" smooth="yes"/>
      <point x="581.203" y="539" type="line"/>
      <point x="535.809" y="539" type="line"/>
      <point x="535.809" y="626" type="line"/>
      <point x="817" y="626" type="line" smooth="yes"/>
      <point x="864.56" y="626"/>
      <point x="883.001" y="610.567"/>
      <point x="883.001" y="559" type="curve" smooth="yes"/>
    </contour>
    <contour>
      <point x="652" y="287.399" type="line"/>
      <point x="565" y="287.399" type="line" smooth="yes"/>
      <point x="551" y="287.399"/>
      <point x="544" y="281.066"/>
      <point x="544" y="268.399" type="curve" smooth="yes"/>
      <point x="544" y="129" type="line" smooth="yes"/>
      <point x="544" y="114.333"/>
      <point x="550" y="107"/>
      <point x="562" y="107" type="curve" smooth="yes"/>
      <point x="740.199" y="107" type="line" smooth="yes"/>
      <point x="752.199" y="107"/>
      <point x="758.199" y="114.333"/>
      <point x="758.199" y="129" type="curve" smooth="yes"/>
      <point x="758.199" y="415" type="line"/>
      <point x="883" y="415" type="line"/>
      <point x="883" y="54" type="line" smooth="yes"/>
      <point x="883" y="16.2705"/>
      <point x="870.075" y="0"/>
      <point x="833" y="0" type="curve" smooth="yes"/>
      <point x="470" y="0" type="line" smooth="yes"/>
      <point x="432.928" y="0"/>
      <point x="420" y="16.2734"/>
      <point x="420" y="54" type="curve" smooth="yes"/>
      <point x="420" y="339.001" type="line" smooth="yes"/>
      <point x="420" y="375.668"/>
      <point x="438.667" y="394.001"/>
      <point x="476" y="394.001" type="curve" smooth="yes"/>
      <point x="651.998" y="394.001" type="line"/>
    </contour>
    <contour>
      <point x="266" y="418" type="line"/>
      <point x="176" y="311" type="line"/>
      <point x="176" y="373.5" type="line" smooth="yes"/>
      <point x="176" y="387.167"/>
      <point x="168.333" y="394"/>
      <point x="153" y="394" type="curve" smooth="yes"/>
      <point x="22" y="394" type="line"/>
      <point x="22" y="497" type="line"/>
      <point x="195" y="497" type="line" smooth="yes"/>
      <point x="238.332" y="497"/>
      <point x="266" y="474.113"/>
      <point x="266" y="431" type="curve" smooth="yes"/>
    </contour>
    <contour>
      <point x="212" y="223" type="line"/>
      <point x="292" y="314.56" type="line"/>
      <point x="336.414" y="314.5" type="line" smooth="yes"/>
      <point x="371.416" y="314.431"/>
      <point x="384.414" y="299.698"/>
      <point x="384.414" y="266.572" type="curve" smooth="yes"/>
      <point x="384.414" y="60" type="line" smooth="yes"/>
      <point x="384.414" y="12.6074"/>
      <point x="365.014" y="0"/>
      <point x="317.414" y="0" type="curve" smooth="yes"/>
      <point x="70" y="0" type="line" smooth="yes"/>
      <point x="33.3613" y="0"/>
      <point x="22" y="14.0518"/>
      <point x="22" y="51" type="curve" smooth="yes"/>
      <point x="22" y="341.25" type="line"/>
      <point x="136.5" y="341.25" type="line"/>
      <point x="136.5" y="278.799" type="line"/>
      <point x="144.5" y="160.803" type="line"/>
      <point x="144.5" y="125.25" type="line" smooth="yes"/>
      <point x="144.5" y="111.04"/>
      <point x="147.676" y="107"/>
      <point x="161.5" y="107" type="curve" smooth="yes"/>
      <point x="243.414" y="107" type="line" smooth="yes"/>
      <point x="263.123" y="107"/>
      <point x="263.414" y="111.54"/>
      <point x="263.414" y="132" type="curve" smooth="yes"/>
      <point x="263.414" y="203" type="line" smooth="yes"/>
      <point x="263.414" y="216.333"/>
      <point x="258.414" y="223"/>
      <point x="248.414" y="223" type="curve" smooth="yes"/>
    </contour>
    <contour>
      <point x="150.25" y="151.324" type="curve" smooth="yes"/>
      <point x="140.75" y="151.324"/>
      <point x="136" y="153.566"/>
      <point x="136" y="158.053" type="curve"/>
      <point x="134" y="298.147" type="line"/>
      <point x="137.068" y="296.313"/>
      <point x="139.318" y="295.396"/>
      <point x="140.75" y="295.396" type="curve" smooth="yes"/>
      <point x="143.446" y="295.396"/>
      <point x="146.205" y="297.056"/>
      <point x="149" y="300.397" type="curve" smooth="yes"/>
      <point x="280" y="457" type="line" smooth="yes"/>
      <point x="290.833" y="469.95"/>
      <point x="305.56" y="478.152"/>
      <point x="316" y="481.4" type="curve" smooth="yes"/>
      <point x="326.574" y="484.689"/>
      <point x="338.864" y="485.594"/>
      <point x="350" y="485.6" type="curve" smooth="yes"/>
      <point x="358.007" y="485.604"/>
      <point x="380.365" y="484.212"/>
      <point x="405" y="476" type="curve" smooth="yes"/>
      <point x="651.601" y="394" type="line"/>
      <point x="425" y="351" type="line"/>
      <point x="402" y="359" type="line" smooth="yes"/>
      <point x="394.096" y="361.749"/>
      <point x="376.409" y="366.587"/>
      <point x="366" y="366" type="curve" smooth="yes"/>
      <point x="359.214" y="365.617"/>
      <point x="348.178" y="362.149"/>
      <point x="340" y="353" type="curve" smooth="yes"/>
      <point x="170" y="162.803" type="line" smooth="yes"/>
      <point x="163.215" y="155.212"/>
      <point x="156.698" y="151.324"/>
    </contour>
  </outline>
</glyph>
<glyph name="si_NdIi" format="1">
  <advance width="624"/>
  <outline>
    <contour>
      <point x="457.219" y="582.198" type="line" smooth="yes"/>
      <point x="447.219" y="582.198"/>
      <point x="442.219" y="578.198"/>
      <point x="442.219" y="570.198" type="curve" smooth="yes"/>
      <point x="442.219" y="562.011" type="line" smooth="yes"/>
      <point x="442.219" y="553.344"/>
      <point x="447.552" y="549.011"/>
      <point x="458.219" y="549.011" type="curve" smooth="yes"/>
      <point x="480" y="549.011" type="line" smooth="yes"/>
      <point x="490.667" y="549.011"/>
      <point x="496" y="553.678"/>
      <point x="496" y="563.011" type="curve" smooth="yes"/>
      <point x="496" y="570.198" type="line" smooth="yes"/>
      <point x="496" y="578.198"/>
      <point x="490.333" y="582.198"/>
      <point x="479" y="582.198" type="curve" smooth="yes"/>
    </contour>
    <contour>
      <point x="324.992" y="553.809" type="line" smooth="yes"/>
      <point x="314.002" y="553.808"/>
      <point x="311.997" y="547.809"/>
      <point x="311.997" y="535.809" type="curve" smooth="yes"/>
      <point x="311.997" y="511" type="line"/>
      <point x="187.992" y="511" type="line"/>
      <point x="187.992" y="595.803" type="line" smooth="yes"/>
      <point x="187.992" y="625.797"/>
      <point x="204.212" y="640.011"/>
      <point x="231.202" y="640.011" type="curve" smooth="yes"/>
      <point x="546.001" y="640.012" type="line" smooth="yes"/>
      <point x="573.48" y="640.012"/>
      <point x="588" y="626.66"/>
      <point x="588" y="600" type="curve" smooth="yes"/>
      <point x="588" y="540.996" type="line" smooth="yes"/>
      <point x="588" y="521"/>
      <point x="577.998" y="510.996"/>
      <point x="558" y="510.996" type="curve" smooth="yes"/>
      <point x="377.219" y="510.994" type="line" smooth="yes"/>
      <point x="353.943" y="510.994"/>
      <point x="349.219" y="520.251"/>
      <point x="349.219" y="531.996" type="curve" smooth="yes"/>
      <point x="349.219" y="545.801" type="line" smooth="yes"/>
      <point x="349.219" y="550.332"/>
      <point x="350.036" y="552.81"/>
      <point x="351.618" y="553.801" type="curve"/>
    </contour>
    <component base="si_Nda"/>
  </outline>
</glyph>
<glyph name="si_Ng.halant" format="1">
  <advance width="578"/>
  <outline>
    <contour>
      <point x="2" y="389.788" type="line" smooth="yes"/>
      <point x="2" y="420.455"/>
      <point x="22.453" y="438.788"/>
      <point x="58.6084" y="438.791" type="curve" smooth="yes"/>
      <point x="277" y="438.808" type="line" smooth="yes"/>
      <point x="315.2" y="438.811"/>
      <point x="349" y="425.626"/>
      <point x="349" y="374.998" type="curve" smooth="yes"/>
      <point x="349" y="206.602" type="line"/>
      <point x="231.197" y="206.602" type="line" smooth="yes"/>
      <point x="215.864" y="206.602"/>
      <point x="208.197" y="200.935"/>
      <point x="208.197" y="189.602" type="curve" smooth="yes"/>
      <point x="208.197" y="130" type="line" smooth="yes"/>
      <point x="208.197" y="114.667"/>
      <point x="214.197" y="107"/>
      <point x="227.001" y="107" type="curve" smooth="yes"/>
      <point x="244" y="107" type="line" smooth="yes"/>
      <point x="258.197" y="107"/>
      <point x="266" y="115.333"/>
      <point x="266" y="132" type="curve" smooth="yes"/>
      <point x="266" y="166" type="line"/>
      <point x="365.596" y="166" type="line"/>
      <point x="365.596" y="134" type="line" smooth="yes"/>
      <point x="365.596" y="116"/>
      <point x="373.262" y="107"/>
      <point x="388.596" y="107" type="curve" smooth="yes"/>
      <point x="406.194" y="107" type="line" smooth="yes"/>
      <point x="417.527" y="107"/>
      <point x="423.194" y="114"/>
      <point x="423.194" y="128" type="curve" smooth="yes"/>
      <point x="423.194" y="419" type="line"/>
      <point x="547.195" y="420" type="line" smooth="yes"/>
      <point x="547.195" y="50" type="line" smooth="yes"/>
      <point x="547.195" y="19.6377"/>
      <point x="533.594" y="-4.08996e-15"/>
      <point x="500.197" y="0" type="curve" smooth="yes"/>
      <point x="364" y="0" type="line" smooth="yes"/>
      <point x="338" y="0"/>
      <point x="321.666" y="12.333"/>
      <point x="315" y="37" type="curve"/>
      <point x="311.826" y="16.3779"/>
      <point x="291.197" y="-2.84081e-15"/>
      <point x="268" y="0" type="curve" smooth="yes"/>
      <point x="132.195" y="0" type="line" smooth="yes"/>
      <point x="95.1973" y="0"/>
      <point x="84.1973" y="16.2734"/>
      <point x="84.1973" y="54" type="curve" smooth="yes"/>
      <point x="84.1973" y="206.75" type="line" smooth="yes"/>
      <point x="84.1973" y="240.177"/>
      <point x="102.38" y="265.757"/>
      <point x="140.197" y="265.757" type="curve" smooth="yes"/>
      <point x="244" y="265.757" type="line"/>
      <point x="244" y="359" type="line" smooth="yes"/>
      <point x="244" y="370.258"/>
      <point x="237.529" y="376.191"/>
      <point x="223" y="376.191" type="curve" smooth="yes"/>
      <point x="191.078" y="376.191" type="line" smooth="yes"/>
      <point x="191.078" y="376.191"/>
      <point x="200" y="371.722"/>
      <point x="200" y="365" type="curve" smooth="yes"/>
      <point x="200" y="312" type="line" smooth="yes"/>
      <point x="200" y="290.714"/>
      <point x="187.471" y="280.804"/>
      <point x="172" y="280.804" type="curve" smooth="yes"/>
      <point x="48" y="280.804" type="line" smooth="yes"/>
      <point x="17" y="280.804"/>
      <point x="2" y="297.471"/>
      <point x="2" y="330.804" type="curve" smooth="yes"/>
    </contour>
    <contour>
      <point x="76.2021" y="464" type="line"/>
      <point x="76.2021" y="550" type="line"/>
      <point x="156.202" y="550" type="line"/>
      <point x="126.869" y="557.333"/>
      <point x="112.202" y="571.667"/>
      <point x="112.202" y="593" type="curve" smooth="yes"/>
      <point x="112.202" y="632" type="line" smooth="yes"/>
      <point x="112.202" y="659.333"/>
      <point x="128.535" y="673"/>
      <point x="161.202" y="673" type="curve" smooth="yes"/>
      <point x="545.202" y="673" type="line"/>
      <point x="545.202" y="589" type="line"/>
      <point x="268.202" y="589" type="line" smooth="yes"/>
      <point x="250.202" y="589"/>
      <point x="241.202" y="584.333"/>
      <point x="241.202" y="575" type="curve" smooth="yes"/>
      <point x="241.202" y="565.227"/>
      <point x="249.128" y="558"/>
      <point x="259.202" y="558" type="curve" smooth="yes"/>
      <point x="478.202" y="558" type="line" smooth="yes"/>
      <point x="533.644" y="558"/>
      <point x="547.202" y="533.687"/>
      <point x="547.202" y="477" type="curve" smooth="yes"/>
      <point x="547.202" y="400" type="line"/>
      <point x="423.202" y="400" type="line"/>
      <point x="423.202" y="441" type="line" smooth="yes"/>
      <point x="423.202" y="459.349"/>
      <point x="416.264" y="464"/>
      <point x="397.202" y="464" type="curve" smooth="yes"/>
    </contour>
    <contour>
      <point x="64" y="370" type="curve" smooth="yes"/>
      <point x="64" y="345" type="line" smooth="yes"/>
      <point x="64" y="341"/>
      <point x="67" y="339"/>
      <point x="71" y="339" type="curve" smooth="yes"/>
      <point x="128.192" y="339" type="line" smooth="yes"/>
      <point x="131.192" y="339"/>
      <point x="134.192" y="342"/>
      <point x="134.192" y="345" type="curve" smooth="yes"/>
      <point x="134.192" y="366.8" type="line" smooth="yes"/>
      <point x="134.192" y="372.521"/>
      <point x="131.104" y="376.191"/>
      <point x="127.048" y="376.191" type="curve" smooth="yes"/>
      <point x="70" y="376.191" type="line" smooth="yes"/>
      <point x="67" y="376.191"/>
      <point x="64" y="373.591"/>
    </contour>
  </outline>
</glyph>
<glyph name="si_NnI" format="1">
  <advance width="845"/>
  <outline>
    <contour>
      <point x="492.995" y="511" type="line"/>
      <point x="492.995" y="595.803" type="line" smooth="yes"/>
      <point x="492.995" y="625.797"/>
      <point x="509.911" y="640"/>
      <point x="536.995" y="640" type="curve" smooth="yes"/>
      <point x="772" y="640" type="line" smooth="yes"/>
      <point x="797.333" y="640"/>
      <point x="813" y="628.565"/>
      <point x="813" y="597" type="curve" smooth="yes"/>
      <point x="813" y="511" type="line"/>
      <point x="696" y="511" type="line"/>
      <point x="696" y="534.999" type="line" smooth="yes"/>
      <point x="696" y="547.877"/>
      <point x="695.284" y="553"/>
      <point x="682.404" y="553" type="curve" smooth="yes"/>
      <point x="622.995" y="553" type="line" smooth="yes"/>
      <point x="611.662" y="553"/>
      <point x="610" y="547"/>
      <point x="610" y="535" type="curve" smooth="yes"/>
      <point x="610" y="511" type="line"/>
    </contour>
    <component base="si_Nna"/>
  </outline>
</glyph>
<glyph name="si_Nna.reph" format="1">
  <advance width="845"/>
  <outline>
    <contour>
      <point x="578.991" y="621.401" type="line"/>
      <point x="663.2" y="621.401" type="line"/>
      <point x="663.2" y="555.401" type="line" smooth="yes"/>
      <point x="663.2" y="528.224"/>
      <point x="651.709" y="518.401"/>
      <point x="632.2" y="518.401" type="curve" smooth="yes"/>
      <point x="460.2" y="518.401" type="line" smooth="yes"/>
      <point x="433.73" y="518.401"/>
      <point x="420.2" y="532.297"/>
      <point x="420.2" y="564.401" type="curve" smooth="yes"/>
      <point x="420.2" y="662.401" type="line" smooth="yes"/>
      <point x="420.2" y="691.139"/>
      <point x="437.449" y="710.401"/>
      <point x="474.2" y="710.401" type="curve" smooth="yes"/>
      <point x="759.2" y="710.401" type="line" smooth="yes"/>
      <point x="792.645" y="710.401"/>
      <point x="810.2" y="693.58"/>
      <point x="810.2" y="654.401" type="curve" smooth="yes"/>
      <point x="810.2" y="521.401" type="line"/>
      <point x="697.2" y="521.401" type="line"/>
      <point x="697.2" y="623.401" type="line" smooth="yes"/>
      <point x="697.2" y="638.734"/>
      <point x="691.867" y="646.401"/>
      <point x="681.2" y="646.401" type="curve" smooth="yes"/>
      <point x="548.2" y="646.401" type="line" smooth="yes"/>
      <point x="537.533" y="646.401"/>
      <point x="532.2" y="642.068"/>
      <point x="532.2" y="633.401" type="curve" smooth="yes"/>
      <point x="532.2" y="605.401" type="line" smooth="yes"/>
      <point x="532.2" y="596.734"/>
      <point x="535.92" y="592.401"/>
      <point x="544.2" y="592.401" type="curve" smooth="yes"/>
      <point x="566.2" y="592.401" type="line" smooth="yes"/>
      <point x="577.465" y="592.401"/>
      <point x="578.991" y="597.734"/>
      <point x="578.991" y="608.401" type="curve" smooth="yes"/>
    </contour>
    <component base="si_Nna"/>
  </outline>
</glyph>
<glyph name="si_Nndd.halant" format="1">
  <advance width="700"/>
  <outline>
    <contour>
      <point x="669.803" y="394" type="line"/>
      <point x="545.803" y="394" type="line"/>
      <point x="545.803" y="435" type="line" smooth="yes"/>
      <point x="545.803" y="453.349"/>
      <point x="538.864" y="458"/>
      <point x="519.803" y="458" type="curve" smooth="yes"/>
      <point x="198.803" y="458" type="line"/>
      <point x="198.803" y="544" type="line"/>
      <point x="278.803" y="544" type="line"/>
      <point x="249.47" y="551.333"/>
      <point x="234.803" y="565.667"/>
      <point x="234.803" y="587" type="curve" smooth="yes"/>
      <point x="234.803" y="626" type="line" smooth="yes"/>
      <point x="234.803" y="653.333"/>
      <point x="251.136" y="667"/>
      <point x="283.803" y="667" type="curve" smooth="yes"/>
      <point x="667.803" y="667" type="line"/>
      <point x="667.803" y="583" type="line"/>
      <point x="390.803" y="583" type="line" smooth="yes"/>
      <point x="372.803" y="583"/>
      <point x="363.803" y="578.333"/>
      <point x="363.803" y="569" type="curve" smooth="yes"/>
      <point x="363.803" y="559.227"/>
      <point x="371.729" y="552"/>
      <point x="381.803" y="552" type="curve" smooth="yes"/>
      <point x="600.803" y="552" type="line" smooth="yes"/>
      <point x="656.244" y="552"/>
      <point x="669.803" y="527.687"/>
      <point x="669.803" y="471" type="curve" smooth="yes"/>
    </contour>
    <contour>
      <point x="178.803" y="290.371" type="line"/>
      <point x="272.803" y="290.371" type="line"/>
      <point x="272.803" y="193.371" type="line"/>
      <point x="178.803" y="193.371" type="line"/>
    </contour>
    <contour>
      <point x="254.801" y="-6" type="line" smooth="yes"/>
      <point x="217.803" y="-6"/>
      <point x="206.803" y="10.2734"/>
      <point x="206.803" y="48" type="curve" smooth="yes"/>
      <point x="206.803" y="142" type="line" smooth="yes"/>
      <point x="206.803" y="177.035"/>
      <point x="214.47" y="188.042"/>
      <point x="229.803" y="195.375" type="curve"/>
      <point x="246.022" y="217.677"/>
      <point x="225.661" y="290.375"/>
      <point x="262.803" y="290.375" type="curve" smooth="yes"/>
      <point x="330.395" y="290.375" type="line"/>
      <point x="330.387" y="290.603"/>
      <point x="330.345" y="313.375"/>
      <point x="330.345" y="313.375" type="curve" smooth="yes"/>
      <point x="330.345" y="323.375"/>
      <point x="323.678" y="328.375"/>
      <point x="310.345" y="328.375" type="curve" smooth="yes"/>
      <point x="207.803" y="328.375" type="line"/>
      <point x="207.803" y="431.375" type="line"/>
      <point x="376.803" y="431.375" type="line" smooth="yes"/>
      <point x="415.472" y="431.375"/>
      <point x="448.803" y="415.141"/>
      <point x="448.803" y="377.375" type="curve" smooth="yes"/>
      <point x="448.803" y="187.375" type="line"/>
      <point x="353.803" y="187.375" type="line" smooth="yes"/>
      <point x="338.47" y="187.375"/>
      <point x="330.803" y="181.708"/>
      <point x="330.803" y="170.375" type="curve" smooth="yes"/>
      <point x="330.803" y="124" type="line" smooth="yes"/>
      <point x="330.803" y="108.667"/>
      <point x="336.803" y="101"/>
      <point x="349.606" y="101" type="curve" smooth="yes"/>
      <point x="366.605" y="101" type="line" smooth="yes"/>
      <point x="380.803" y="101"/>
      <point x="388.605" y="109.333"/>
      <point x="388.605" y="126" type="curve" smooth="yes"/>
      <point x="388.605" y="155.182" type="line"/>
      <point x="488.201" y="155.182" type="line"/>
      <point x="488.201" y="128" type="line" smooth="yes"/>
      <point x="488.201" y="110"/>
      <point x="495.867" y="101"/>
      <point x="511.201" y="101" type="curve" smooth="yes"/>
      <point x="528.8" y="101" type="line" smooth="yes"/>
      <point x="540.133" y="101"/>
      <point x="545.8" y="108"/>
      <point x="545.8" y="122" type="curve" smooth="yes"/>
      <point x="545.8" y="416.802" type="line"/>
      <point x="669.801" y="417" type="line"/>
      <point x="669.801" y="44" type="line" smooth="yes"/>
      <point x="669.801" y="13.6377"/>
      <point x="656.199" y="-6"/>
      <point x="622.803" y="-6" type="curve" smooth="yes"/>
      <point x="486.605" y="-6" type="line" smooth="yes"/>
      <point x="460.605" y="-6"/>
      <point x="444.271" y="6.33301"/>
      <point x="437.605" y="31" type="curve"/>
      <point x="434.432" y="10.3779"/>
      <point x="413.803" y="-6"/>
      <point x="390.605" y="-6" type="curve" smooth="yes"/>
    </contour>
    <contour>
      <point x="158.998" y="345.401" type="line" smooth="yes"/>
      <point x="146.598" y="345.401"/>
      <point x="140.001" y="339.4"/>
      <point x="140.001" y="321.4" type="curve" smooth="yes"/>
      <point x="140.001" y="0" type="line"/>
      <point x="22" y="0" type="line"/>
      <point x="22" y="340.401" type="line" smooth="yes"/>
      <point x="22" y="394.01"/>
      <point x="56.2471" y="431.401"/>
      <point x="108.4" y="431.401" type="curve" smooth="yes"/>
      <point x="255.002" y="431.4" type="line"/>
      <point x="214" y="345.4" type="line"/>
    </contour>
  </outline>
</glyph>
<glyph name="si_NnddI" format="1">
  <advance width="700"/>
  <outline>
    <contour>
      <point x="669.8" y="400" type="line"/>
      <point x="545.8" y="400" type="line"/>
      <point x="545.8" y="441" type="line" smooth="yes"/>
      <point x="545.8" y="459.349"/>
      <point x="538.861" y="464"/>
      <point x="519.8" y="464" type="curve" smooth="yes"/>
      <point x="253.8" y="464" type="line" smooth="yes"/>
      <point x="222.467" y="464"/>
      <point x="206.8" y="480"/>
      <point x="206.8" y="512" type="curve" smooth="yes"/>
      <point x="206.8" y="612" type="line" smooth="yes"/>
      <point x="206.8" y="656.156"/>
      <point x="222.643" y="672"/>
      <point x="266.8" y="672" type="curve" smooth="yes"/>
      <point x="668.3" y="672" type="line"/>
      <point x="668.3" y="589" type="line"/>
      <point x="349.8" y="589" type="line" smooth="yes"/>
      <point x="337.133" y="589"/>
      <point x="330.8" y="585.667"/>
      <point x="330.8" y="577" type="curve" smooth="yes"/>
      <point x="330.8" y="568" type="line" smooth="yes"/>
      <point x="330.8" y="561.333"/>
      <point x="336.467" y="558"/>
      <point x="347.8" y="558" type="curve" smooth="yes"/>
      <point x="600.8" y="558" type="line" smooth="yes"/>
      <point x="657.614" y="558"/>
      <point x="669.8" y="535.085"/>
      <point x="669.8" y="477" type="curve" smooth="yes"/>
    </contour>
    <contour>
      <point x="178.8" y="296.371" type="line"/>
      <point x="272.8" y="296.371" type="line"/>
      <point x="272.8" y="199.371" type="line"/>
      <point x="178.8" y="199.371" type="line"/>
    </contour>
    <contour>
      <point x="254.798" y="0" type="line" smooth="yes"/>
      <point x="217.8" y="0"/>
      <point x="206.8" y="16.2734"/>
      <point x="206.8" y="54" type="curve" smooth="yes"/>
      <point x="206.8" y="148" type="line" smooth="yes"/>
      <point x="206.8" y="183.035"/>
      <point x="214.467" y="194.042"/>
      <point x="229.8" y="201.375" type="curve"/>
      <point x="246.02" y="223.677"/>
      <point x="225.658" y="296.375"/>
      <point x="262.8" y="296.375" type="curve" smooth="yes"/>
      <point x="330.392" y="296.375" type="line"/>
      <point x="330.384" y="296.603"/>
      <point x="330.342" y="319.375"/>
      <point x="330.342" y="319.375" type="curve" smooth="yes"/>
      <point x="330.342" y="329.375"/>
      <point x="323.675" y="334.375"/>
      <point x="310.342" y="334.375" type="curve" smooth="yes"/>
      <point x="207.8" y="334.375" type="line"/>
      <point x="207.8" y="437.375" type="line"/>
      <point x="376.8" y="437.375" type="line" smooth="yes"/>
      <point x="415.469" y="437.375"/>
      <point x="448.8" y="421.141"/>
      <point x="448.8" y="383.375" type="curve" smooth="yes"/>
      <point x="448.8" y="193.375" type="line"/>
      <point x="353.8" y="193.375" type="line" smooth="yes"/>
      <point x="338.467" y="193.375"/>
      <point x="330.8" y="187.708"/>
      <point x="330.8" y="176.375" type="curve" smooth="yes"/>
      <point x="330.8" y="130" type="line" smooth="yes"/>
      <point x="330.8" y="114.667"/>
      <point x="336.8" y="107"/>
      <point x="349.604" y="107" type="curve" smooth="yes"/>
      <point x="366.603" y="107" type="line" smooth="yes"/>
      <point x="380.8" y="107"/>
      <point x="388.603" y="115.333"/>
      <point x="388.603" y="132" type="curve" smooth="yes"/>
      <point x="388.603" y="161.182" type="line"/>
      <point x="488.198" y="161.182" type="line"/>
      <point x="488.198" y="134" type="line" smooth="yes"/>
      <point x="488.198" y="116"/>
      <point x="495.864" y="107"/>
      <point x="511.198" y="107" type="curve" smooth="yes"/>
      <point x="528.797" y="107" type="line" smooth="yes"/>
      <point x="540.13" y="107"/>
      <point x="545.797" y="114"/>
      <point x="545.797" y="128" type="curve" smooth="yes"/>
      <point x="545.797" y="422.802" type="line"/>
      <point x="669.798" y="423" type="line"/>
      <point x="669.798" y="50" type="line" smooth="yes"/>
      <point x="669.798" y="19.6377"/>
      <point x="656.196" y="0"/>
      <point x="622.8" y="0" type="curve" smooth="yes"/>
      <point x="486.603" y="0" type="line" smooth="yes"/>
      <point x="460.603" y="0"/>
      <point x="444.269" y="12.333"/>
      <point x="437.603" y="37" type="curve"/>
      <point x="434.429" y="16.3779"/>
      <point x="413.8" y="0"/>
      <point x="390.603" y="0" type="curve" smooth="yes"/>
    </contour>
    <contour>
      <point x="158.998" y="351.407" type="line" smooth="yes"/>
      <point x="146.598" y="351.407"/>
      <point x="140.001" y="345.406"/>
      <point x="140.001" y="327.406" type="curve" smooth="yes"/>
      <point x="140.001" y="0" type="line"/>
      <point x="22" y="0" type="line"/>
      <point x="22" y="346.407" type="line" smooth="yes"/>
      <point x="22" y="400.016"/>
      <point x="56.2471" y="437.407"/>
      <point x="108.4" y="437.407" type="curve" smooth="yes"/>
      <point x="255.002" y="437.406" type="line"/>
      <point x="214" y="351.406" type="line"/>
    </contour>
  </outline>
</glyph>
<glyph name="si_NnddIi" format="1">
  <advance width="700"/>
  <outline>
    <contour>
      <point x="545.803" y="405" type="line"/>
      <point x="545.803" y="434" type="line" smooth="yes"/>
      <point x="545.803" y="452.19"/>
      <point x="528.485" y="464"/>
      <point x="509.803" y="464" type="curve" smooth="yes"/>
      <point x="249.803" y="464" type="line" smooth="yes"/>
      <point x="219.96" y="464"/>
      <point x="206.803" y="472.771"/>
      <point x="206.803" y="505" type="curve" smooth="yes"/>
      <point x="206.803" y="618" type="line" smooth="yes"/>
      <point x="206.803" y="654.859"/>
      <point x="220.214" y="672"/>
      <point x="256.803" y="672" type="curve" smooth="yes"/>
      <point x="619.803" y="672" type="line" smooth="yes"/>
      <point x="656.391" y="672"/>
      <point x="669.803" y="654.858"/>
      <point x="669.803" y="618" type="curve" smooth="yes"/>
      <point x="669.803" y="552" type="line" smooth="yes"/>
      <point x="669.803" y="529.838"/>
      <point x="653.671" y="512.773"/>
      <point x="634.803" y="509" type="curve"/>
      <point x="656.714" y="502.152"/>
      <point x="669.803" y="474.274"/>
      <point x="669.803" y="445" type="curve" smooth="yes"/>
      <point x="669.803" y="405" type="line"/>
    </contour>
    <contour>
      <point x="416.803" y="539" type="line"/>
      <point x="408.869" y="543.655"/>
      <point x="405.803" y="547.826"/>
      <point x="405.803" y="564" type="curve" smooth="yes"/>
      <point x="405.803" y="575" type="line" smooth="yes"/>
      <point x="405.803" y="581.855"/>
      <point x="405.944" y="584.019"/>
      <point x="408.803" y="587" type="curve"/>
      <point x="337.803" y="587" type="line" smooth="yes"/>
      <point x="326.47" y="587"/>
      <point x="320.803" y="582.333"/>
      <point x="320.803" y="573" type="curve" smooth="yes"/>
      <point x="320.803" y="554" type="line" smooth="yes"/>
      <point x="320.803" y="544"/>
      <point x="326.136" y="539"/>
      <point x="336.803" y="539" type="curve" smooth="yes"/>
    </contour>
    <contour>
      <point x="510.803" y="594" type="line" smooth="yes"/>
      <point x="502.422" y="594"/>
      <point x="497.803" y="588.388"/>
      <point x="497.803" y="581" type="curve" smooth="yes"/>
      <point x="497.803" y="558" type="line" smooth="yes"/>
      <point x="497.803" y="547.623"/>
      <point x="507.004" y="543"/>
      <point x="515.803" y="543" type="curve" smooth="yes"/>
      <point x="552.803" y="543" type="line" smooth="yes"/>
      <point x="564.485" y="543"/>
      <point x="572.803" y="549.519"/>
      <point x="572.803" y="564" type="curve" smooth="yes"/>
      <point x="572.803" y="582" type="line" smooth="yes"/>
      <point x="572.803" y="591.396"/>
      <point x="566.487" y="594"/>
      <point x="561.803" y="594" type="curve" smooth="yes"/>
    </contour>
    <contour>
      <point x="178.803" y="296.371" type="line"/>
      <point x="272.803" y="296.371" type="line"/>
      <point x="272.803" y="199.371" type="line"/>
      <point x="178.803" y="199.371" type="line"/>
    </contour>
    <contour>
      <point x="254.801" y="0" type="line" smooth="yes"/>
      <point x="217.803" y="0"/>
      <point x="206.803" y="16.2734"/>
      <point x="206.803" y="54" type="curve" smooth="yes"/>
      <point x="206.803" y="148" type="line" smooth="yes"/>
      <point x="206.803" y="183.035"/>
      <point x="214.47" y="194.042"/>
      <point x="229.803" y="201.375" type="curve"/>
      <point x="246.022" y="223.677"/>
      <point x="225.661" y="296.375"/>
      <point x="262.803" y="296.375" type="curve" smooth="yes"/>
      <point x="330.395" y="296.375" type="line"/>
      <point x="330.387" y="296.603"/>
      <point x="330.345" y="319.375"/>
      <point x="330.345" y="319.375" type="curve" smooth="yes"/>
      <point x="330.345" y="329.375"/>
      <point x="323.678" y="334.375"/>
      <point x="310.345" y="334.375" type="curve" smooth="yes"/>
      <point x="207.803" y="334.375" type="line"/>
      <point x="207.803" y="437.375" type="line"/>
      <point x="376.803" y="437.375" type="line" smooth="yes"/>
      <point x="415.472" y="437.375"/>
      <point x="448.803" y="421.141"/>
      <point x="448.803" y="383.375" type="curve" smooth="yes"/>
      <point x="448.803" y="193.375" type="line"/>
      <point x="353.803" y="193.375" type="line" smooth="yes"/>
      <point x="338.47" y="193.375"/>
      <point x="330.803" y="187.708"/>
      <point x="330.803" y="176.375" type="curve" smooth="yes"/>
      <point x="330.803" y="130" type="line" smooth="yes"/>
      <point x="330.803" y="114.667"/>
      <point x="336.803" y="107"/>
      <point x="349.606" y="107" type="curve" smooth="yes"/>
      <point x="366.605" y="107" type="line" smooth="yes"/>
      <point x="380.803" y="107"/>
      <point x="388.605" y="115.333"/>
      <point x="388.605" y="132" type="curve" smooth="yes"/>
      <point x="388.605" y="161.182" type="line"/>
      <point x="488.201" y="161.182" type="line"/>
      <point x="488.201" y="134" type="line" smooth="yes"/>
      <point x="488.201" y="116"/>
      <point x="495.867" y="107"/>
      <point x="511.201" y="107" type="curve" smooth="yes"/>
      <point x="528.8" y="107" type="line" smooth="yes"/>
      <point x="540.133" y="107"/>
      <point x="545.8" y="114"/>
      <point x="545.8" y="128" type="curve" smooth="yes"/>
      <point x="545.8" y="422.802" type="line"/>
      <point x="669.801" y="423" type="line"/>
      <point x="669.801" y="50" type="line" smooth="yes"/>
      <point x="669.801" y="19.6377"/>
      <point x="656.199" y="0"/>
      <point x="622.803" y="0" type="curve" smooth="yes"/>
      <point x="486.605" y="0" type="line" smooth="yes"/>
      <point x="460.605" y="0"/>
      <point x="444.271" y="12.333"/>
      <point x="437.605" y="37" type="curve"/>
      <point x="434.432" y="16.3779"/>
      <point x="413.803" y="0"/>
      <point x="390.605" y="0" type="curve" smooth="yes"/>
    </contour>
    <contour>
      <point x="158.998" y="351.407" type="line" smooth="yes"/>
      <point x="146.598" y="351.407"/>
      <point x="140.001" y="345.406"/>
      <point x="140.001" y="327.406" type="curve" smooth="yes"/>
      <point x="140.001" y="0" type="line"/>
      <point x="22" y="0" type="line"/>
      <point x="22" y="346.407" type="line" smooth="yes"/>
      <point x="22" y="400.016"/>
      <point x="56.2471" y="437.407"/>
      <point x="108.4" y="437.407" type="curve" smooth="yes"/>
      <point x="255.002" y="437.406" type="line"/>
      <point x="214" y="351.406" type="line"/>
    </contour>
  </outline>
</glyph>
<glyph name="si_NyRIi" format="1">
  <advance width="1018"/>
  <outline>
    <contour>
      <point x="174.394" y="276.397" type="line"/>
      <point x="174.394" y="276.397"/>
      <point x="249.805" y="342.001"/>
      <point x="293.005" y="380.401" type="curve"/>
      <point x="293.005" y="381.999" type="line" smooth="yes"/>
      <point x="293.005" y="391.229"/>
      <point x="282.315" y="393.972"/>
      <point x="269.408" y="394.002" type="curve" smooth="yes"/>
      <point x="184.396" y="394.201" type="line"/>
      <point x="184.396" y="497.201" type="line"/>
      <point x="347.806" y="497.001" type="line" smooth="yes"/>
      <point x="379.488" y="496.963"/>
      <point x="383.401" y="469.791"/>
      <point x="383.401" y="461.599" type="curve" smooth="yes"/>
      <point x="383.401" y="459.398" type="line"/>
      <point x="405.996" y="475.202" type="line" smooth="yes"/>
      <point x="418.654" y="484.055"/>
      <point x="432.572" y="489.505"/>
      <point x="446.368" y="492.741" type="curve" smooth="yes"/>
      <point x="460.163" y="495.977"/>
      <point x="473.835" y="497"/>
      <point x="486" y="497" type="curve" smooth="yes"/>
      <point x="591.989" y="497" type="line"/>
      <point x="592" y="394.199" type="line"/>
      <point x="500" y="394" type="line" smooth="yes"/>
      <point x="484.424" y="393.966"/>
      <point x="470.375" y="392.896"/>
      <point x="461" y="389" type="curve" smooth="yes"/>
      <point x="454.826" y="386.434"/>
      <point x="443.138" y="379.688"/>
      <point x="434.003" y="372" type="curve" smooth="yes"/>
      <point x="413.804" y="355.001" type="line"/>
      <point x="493.797" y="355.001" type="line" smooth="yes"/>
      <point x="525.609" y="355.001"/>
      <point x="546.797" y="337.696"/>
      <point x="546.797" y="298.001" type="curve" smooth="yes"/>
      <point x="546.797" y="51.001" type="line" smooth="yes"/>
      <point x="546.797" y="14.9551"/>
      <point x="523.441" y="0.000976562"/>
      <point x="493.797" y="0.000976562" type="curve" smooth="yes"/>
      <point x="403.794" y="0.000976562" type="line" smooth="yes"/>
      <point x="384.834" y="0.000976562"/>
      <point x="371.461" y="9.66797"/>
      <point x="366.794" y="29.002" type="curve"/>
      <point x="362.127" y="9.66797"/>
      <point x="345.486" y="0.000976562"/>
      <point x="327.794" y="0.000976562" type="curve" smooth="yes"/>
      <point x="228.393" y="0.000976562" type="line" smooth="yes"/>
      <point x="196.529" y="0.000976562"/>
      <point x="184.396" y="19.8174"/>
      <point x="184.396" y="50.002" type="curve" smooth="yes"/>
      <point x="184.396" y="140.201" type="line" smooth="yes"/>
      <point x="184.396" y="180.996"/>
      <point x="196.67" y="195.266"/>
      <point x="210.396" y="203.002" type="curve"/>
      <point x="174.394" y="203.002" type="line"/>
    </contour>
    <contour>
      <point x="988.8" y="0.000976562" type="line"/>
      <point x="626" y="0" type="line" smooth="yes"/>
      <point x="592" y="0"/>
      <point x="581.8" y="17.9258"/>
      <point x="581.8" y="49.5996" type="curve" smooth="yes"/>
      <point x="581.8" y="298" type="line" smooth="yes"/>
      <point x="581.8" y="338.657"/>
      <point x="602.906" y="355"/>
      <point x="639.8" y="355" type="curve" smooth="yes"/>
      <point x="860.8" y="355" type="line"/>
      <point x="860.799" y="378" type="line" smooth="yes"/>
      <point x="860.798" y="391.308"/>
      <point x="856.138" y="394.001"/>
      <point x="846.805" y="394.001" type="curve" smooth="yes"/>
      <point x="581.8" y="394.001" type="line"/>
      <point x="581.8" y="497.001" type="line"/>
      <point x="931.8" y="497" type="line" smooth="yes"/>
      <point x="965.365" y="497"/>
      <point x="984.8" y="480.913"/>
      <point x="984.8" y="444" type="curve" smooth="yes"/>
      <point x="984.8" y="253.001" type="line"/>
      <point x="727.8" y="253" type="line" smooth="yes"/>
      <point x="711.133" y="253"/>
      <point x="705.8" y="245.668"/>
      <point x="705.8" y="231.001" type="curve" smooth="yes"/>
      <point x="705.8" y="133.001" type="line" smooth="yes"/>
      <point x="705.8" y="113.159"/>
      <point x="710.848" y="107"/>
      <point x="726" y="107" type="curve" smooth="yes"/>
      <point x="988.8" y="107.001" type="line"/>
    </contour>
    <contour>
      <point x="437.797" y="244.001" type="line" smooth="yes"/>
      <point x="437.797" y="256.666"/>
      <point x="432.797" y="263.001"/>
      <point x="422.797" y="263.001" type="curve" smooth="yes"/>
      <point x="307.396" y="263.001" type="line"/>
      <point x="277.796" y="237.001" type="line"/>
      <point x="306.189" y="237.001" type="line"/>
      <point x="306.393" y="223.001" type="line"/>
      <point x="300.907" y="219.225"/>
      <point x="294.393" y="205.955"/>
      <point x="294.393" y="181.804" type="curve" smooth="yes"/>
      <point x="294.393" y="128.001" type="line" smooth="yes"/>
      <point x="294.393" y="110.667"/>
      <point x="297.053" y="108.001"/>
      <point x="308.393" y="108.001" type="curve" smooth="yes"/>
      <point x="316.794" y="108.001" type="line" smooth="yes"/>
      <point x="329.879" y="108.001"/>
      <point x="331.794" y="113.668"/>
      <point x="331.794" y="125.002" type="curve" smooth="yes"/>
      <point x="331.794" y="189.001" type="line"/>
      <point x="399.794" y="189.001" type="line"/>
      <point x="399.794" y="127.001" type="line" smooth="yes"/>
      <point x="399.794" y="112.334"/>
      <point x="402.503" y="108.001"/>
      <point x="413.794" y="108.001" type="curve" smooth="yes"/>
      <point x="424.797" y="108.001" type="line" smooth="yes"/>
      <point x="435.002" y="108.001"/>
      <point x="437.797" y="112.804"/>
      <point x="437.797" y="130.803" type="curve" smooth="yes"/>
    </contour>
    <contour>
      <point x="725.394" y="553.809" type="line" smooth="yes"/>
      <point x="714.403" y="553.808"/>
      <point x="712.398" y="547.809"/>
      <point x="712.398" y="535.809" type="curve" smooth="yes"/>
      <point x="712.398" y="511" type="line"/>
      <point x="588.394" y="511" type="line"/>
      <point x="588.394" y="595.803" type="line" smooth="yes"/>
      <point x="588.394" y="625.797"/>
      <point x="604.613" y="640.011"/>
      <point x="631.604" y="640.011" type="curve" smooth="yes"/>
      <point x="946.402" y="640.012" type="line" smooth="yes"/>
      <point x="973.882" y="640.012"/>
      <point x="988.401" y="626.66"/>
      <point x="988.401" y="600" type="curve" smooth="yes"/>
      <point x="988.401" y="540.996" type="line" smooth="yes"/>
      <point x="988.401" y="521"/>
      <point x="978.399" y="510.996"/>
      <point x="958.401" y="510.996" type="curve" smooth="yes"/>
      <point x="777.62" y="510.994" type="line" smooth="yes"/>
      <point x="754.345" y="510.994"/>
      <point x="749.62" y="520.251"/>
      <point x="749.62" y="531.996" type="curve" smooth="yes"/>
      <point x="749.62" y="545.801" type="line" smooth="yes"/>
      <point x="749.62" y="550.332"/>
      <point x="750.438" y="552.81"/>
      <point x="752.02" y="553.801" type="curve"/>
    </contour>
    <contour>
      <point x="581.999" y="-15.8076" type="line"/>
      <point x="706.004" y="-15.8076" type="line"/>
      <point x="706.004" y="-34.8105" type="line" smooth="yes"/>
      <point x="706.004" y="-46.8105"/>
      <point x="707.666" y="-52.8105"/>
      <point x="718.999" y="-52.8105" type="curve" smooth="yes"/>
      <point x="850.999" y="-52.8105" type="line" smooth="yes"/>
      <point x="863.879" y="-52.8105"/>
      <point x="864.595" y="-47.6875"/>
      <point x="864.595" y="-34.8096" type="curve" smooth="yes"/>
      <point x="864.595" y="12" type="line"/>
      <point x="988.6" y="12" type="line"/>
      <point x="988.6" y="-115.821" type="line" smooth="yes"/>
      <point x="988.6" y="-147.387"/>
      <point x="972.933" y="-158.821"/>
      <point x="947.6" y="-158.821" type="curve" smooth="yes"/>
      <point x="625.999" y="-158.821" type="line" smooth="yes"/>
      <point x="598.915" y="-158.821"/>
      <point x="581.999" y="-144.618"/>
      <point x="581.999" y="-114.624" type="curve" smooth="yes"/>
    </contour>
    <contour>
      <point x="158.998" y="410.599" type="line" smooth="yes"/>
      <point x="146.598" y="410.599"/>
      <point x="140.001" y="404.598"/>
      <point x="140.001" y="386.598" type="curve" smooth="yes"/>
      <point x="140.001" y="0" type="line"/>
      <point x="22" y="0" type="line"/>
      <point x="22" y="406" type="line" smooth="yes"/>
      <point x="22" y="459.608"/>
      <point x="56.2471" y="497"/>
      <point x="108.4" y="497" type="curve" smooth="yes"/>
      <point x="255.002" y="496.999" type="line"/>
      <point x="202.001" y="410.598" type="line"/>
    </contour>
    <contour>
      <point x="857.62" y="582.198" type="line" smooth="yes"/>
      <point x="847.62" y="582.198"/>
      <point x="842.62" y="578.198"/>
      <point x="842.62" y="570.198" type="curve" smooth="yes"/>
      <point x="842.62" y="562.011" type="line" smooth="yes"/>
      <point x="842.62" y="553.344"/>
      <point x="847.953" y="549.011"/>
      <point x="858.62" y="549.011" type="curve" smooth="yes"/>
      <point x="880.401" y="549.011" type="line" smooth="yes"/>
      <point x="891.068" y="549.011"/>
      <point x="896.401" y="553.678"/>
      <point x="896.401" y="563.011" type="curve" smooth="yes"/>
      <point x="896.401" y="570.198" type="line" smooth="yes"/>
      <point x="896.401" y="578.198"/>
      <point x="890.734" y="582.198"/>
      <point x="879.401" y="582.198" type="curve" smooth="yes"/>
    </contour>
  </outline>
</glyph>
<glyph name="si_R.halant" format="1">
  <advance width="466"/>
  <outline>
    <contour>
      <point x="67" y="0" type="line" smooth="yes"/>
      <point x="41" y="0"/>
      <point x="22" y="14.9424"/>
      <point x="22" y="48" type="curve" smooth="yes"/>
      <point x="22" y="424" type="line" smooth="yes"/>
      <point x="22" y="455.7"/>
      <point x="46.583" y="478.246"/>
      <point x="73.6104" y="498.002" type="curve" smooth="yes"/>
      <point x="260" y="642.002" type="line"/>
      <point x="438" y="642.002" type="line"/>
      <point x="247.207" y="497.002" type="line"/>
      <point x="373" y="497" type="line" smooth="yes"/>
      <point x="411.484" y="496.999"/>
      <point x="435.214" y="476.413"/>
      <point x="435.214" y="438" type="curve" smooth="yes"/>
      <point x="435.214" y="48" type="line" smooth="yes"/>
      <point x="435.214" y="18.8477"/>
      <point x="417.333" y="0"/>
      <point x="390" y="0" type="curve" smooth="yes"/>
    </contour>
    <contour>
      <point x="146.005" y="365.801" type="curve" smooth="yes"/>
      <point x="146" y="138" type="line" smooth="yes"/>
      <point x="146" y="112.666"/>
      <point x="157.334" y="107"/>
      <point x="170" y="107" type="curve" smooth="yes"/>
      <point x="284" y="107" type="line" smooth="yes"/>
      <point x="301.895" y="107"/>
      <point x="311.005" y="113.252"/>
      <point x="311.005" y="138.398" type="curve" smooth="yes"/>
      <point x="311.005" y="368" type="line" smooth="yes"/>
      <point x="311.005" y="385.761"/>
      <point x="304.667" y="394"/>
      <point x="286" y="394" type="curve" smooth="yes"/>
      <point x="173.808" y="394.002" type="line" smooth="yes"/>
      <point x="151.802" y="394.002"/>
      <point x="146.005" y="386.921"/>
    </contour>
    <contour>
      <point x="22.0039" y="411.796" type="line"/>
      <point x="22.0039" y="656" type="line"/>
      <point x="139.413" y="656" type="line"/>
      <point x="139.413" y="411" type="line"/>
    </contour>
  </outline>
</glyph>
<glyph name="si_RI" format="1">
  <advance width="466"/>
  <outline>
    <contour>
      <point x="22" y="419.002" type="curve"/>
      <point x="22.001" y="561" type="line" smooth="yes"/>
      <point x="22.001" y="575.266"/>
      <point x="22.134" y="587.794"/>
      <point x="40" y="602" type="curve" smooth="yes"/>
      <point x="73.2012" y="628.399" type="line" smooth="yes"/>
      <point x="89.2969" y="639.969"/>
      <point x="96.6602" y="642"/>
      <point x="116" y="642" type="curve" smooth="yes"/>
      <point x="238.201" y="642" type="line"/>
      <point x="159" y="565" type="line"/>
      <point x="148.598" y="565" type="line" smooth="yes"/>
      <point x="131.931" y="565"/>
      <point x="128.405" y="560.324"/>
      <point x="123" y="556" type="curve" smooth="yes"/>
      <point x="111" y="545" type="line" smooth="yes"/>
      <point x="100.112" y="535.019"/>
      <point x="100" y="532.658"/>
      <point x="100" y="521" type="curve" smooth="yes"/>
      <point x="100" y="504.598" type="line"/>
      <point x="84" y="491.931"/>
      <point x="54.1582" y="462.521"/>
      <point x="48" y="456" type="curve" smooth="yes"/>
      <point x="36.667" y="444"/>
      <point x="26.7236" y="433.927"/>
    </contour>
    <contour>
      <point x="22" y="374" type="line" smooth="yes"/>
      <point x="22" y="405.7"/>
      <point x="40.9199" y="422.896"/>
      <point x="63" y="448.002" type="curve" smooth="yes"/>
      <point x="260" y="642.002" type="line"/>
      <point x="420" y="642.002" type="line"/>
      <point x="226" y="447.002" type="line"/>
      <point x="373" y="447" type="line" smooth="yes"/>
      <point x="411.484" y="446.999"/>
      <point x="435.214" y="426.413"/>
      <point x="435.214" y="388" type="curve" smooth="yes"/>
      <point x="435.214" y="48" type="line" smooth="yes"/>
      <point x="435.214" y="18.8477"/>
      <point x="417.333" y="-0"/>
      <point x="390" y="0" type="curve" smooth="yes"/>
      <point x="67" y="0" type="line" smooth="yes"/>
      <point x="41" y="0"/>
      <point x="22" y="14.9424"/>
      <point x="22" y="48" type="curve" smooth="yes"/>
    </contour>
    <contour>
      <point x="146.005" y="315.801" type="curve" smooth="yes"/>
      <point x="146" y="138" type="line" smooth="yes"/>
      <point x="146" y="112.666"/>
      <point x="157.334" y="107"/>
      <point x="170" y="107" type="curve" smooth="yes"/>
      <point x="284" y="107" type="line" smooth="yes"/>
      <point x="301.894" y="107"/>
      <point x="311.005" y="113.252"/>
      <point x="311.005" y="138.398" type="curve" smooth="yes"/>
      <point x="311.005" y="318" type="line" smooth="yes"/>
      <point x="311.005" y="335.761"/>
      <point x="304.667" y="344"/>
      <point x="286" y="344" type="curve" smooth="yes"/>
      <point x="173.808" y="344.002" type="line" smooth="yes"/>
      <point x="151.802" y="344.002"/>
      <point x="146.005" y="336.921"/>
    </contour>
  </outline>
</glyph>
<glyph name="si_Rakar" format="1">
  <advance width="2"/>
  <outline>
    <contour>
      <point x="-600.619" y="-15.8076" type="line"/>
      <point x="-476.614" y="-15.8076" type="line"/>
      <point x="-476.614" y="-34.8105" type="line" smooth="yes"/>
      <point x="-476.614" y="-46.8105"/>
      <point x="-474.952" y="-52.8105"/>
      <point x="-463.619" y="-52.8105" type="curve" smooth="yes"/>
      <point x="-201.199" y="-52.8105" type="line" smooth="yes"/>
      <point x="-188.319" y="-52.8105"/>
      <point x="-187.604" y="-47.6875"/>
      <point x="-187.604" y="-34.8096" type="curve" smooth="yes"/>
      <point x="-187.604" y="-15.8076" type="line"/>
      <point x="-63.5986" y="-15.8076" type="line"/>
      <point x="-63.5986" y="-115.821" type="line" smooth="yes"/>
      <point x="-63.5986" y="-147.387"/>
      <point x="-79.2656" y="-158.821"/>
      <point x="-104.599" y="-158.821" type="curve" smooth="yes"/>
      <point x="-556.619" y="-158.821" type="line" smooth="yes"/>
      <point x="-583.703" y="-158.821"/>
      <point x="-600.619" y="-144.618"/>
      <point x="-600.619" y="-114.624" type="curve" smooth="yes"/>
    </contour>
  </outline>
</glyph>
